<svg xmlns="http://www.w3.org/2000/svg" xmlns:xlink="http://www.w3.org/1999/xlink" version="1.1" id="boe_canvas__item_1697200346794__svg" x="0px" y="0px" viewBox="0 0 164.028 164.028" style="width: 11px; height: 11px;" xml:space="preserve" preserveAspectRatio="none">
<g xmlns="http://www.w3.org/2000/svg">
<g>
<g>
<path d="M87.994,116.832c-1.452-1.341-3.705-1.243-5.039,0.209l-5.606,6.091c-0.189-0.031-0.36-0.113-0.558-0.113h-9.699     c-0.124-0.348-0.257-0.687-0.415-1.017l6.852-6.852c0.22-0.22,0.344-0.489,0.494-0.744l7.804,0.327     c0.052,0.004,0.103,0.004,0.152,0.004c1.901,0,3.481-1.501,3.56-3.416c0.082-1.968-1.445-3.629-3.412-3.712l-6.13-0.258     l-0.254-6.125c-0.08-1.968-1.698-3.569-3.71-3.416c-1.968,0.08-3.496,1.741-3.414,3.708l0.343,8.276     c-0.155,0.112-0.334,0.175-0.474,0.315l-6.852,6.852c-0.331-0.158-0.669-0.291-1.017-0.415v-9.697     c0-0.311-0.102-0.588-0.177-0.875l5.75-5.292c1.448-1.334,1.543-3.587,0.209-5.035c-1.332-1.452-3.587-1.55-5.039-0.209     l-4.513,4.151l-4.513-4.151c-1.452-1.341-3.707-1.243-5.039,0.209c-1.334,1.448-1.24,3.702,0.209,5.035l6.094,5.608     c-0.032,0.189-0.113,0.36-0.113,0.558v9.697c-0.348,0.124-0.687,0.257-1.017,0.415l-6.852-6.852     c-0.219-0.219-0.488-0.343-0.743-0.494l0.324-7.808c0.082-1.968-1.447-3.629-3.414-3.708c-2.07-0.16-3.63,1.448-3.71,3.416     l-0.254,6.125l-6.13,0.258c-1.968,0.083-3.494,1.745-3.412,3.712c0.08,1.915,1.659,3.416,3.56,3.416c0.049,0,0.099,0,0.152-0.004     l8.272-0.346c0.112,0.156,0.175,0.335,0.315,0.475l6.852,6.852c-0.158,0.331-0.291,0.669-0.415,1.017h-9.699     c-0.311,0-0.589,0.102-0.876,0.177l-5.287-5.748c-1.335-1.452-3.588-1.546-5.037-0.213c-1.45,1.334-1.544,3.59-0.211,5.039     l4.153,4.516l-4.153,4.513c-1.334,1.448-1.24,3.705,0.209,5.035c0.686,0.634,1.551,0.944,2.413,0.944     c0.963,0,1.922-0.387,2.626-1.152l5.606-6.091c0.189,0.031,0.359,0.113,0.557,0.113h9.699c0.124,0.348,0.256,0.687,0.415,1.017     l-6.852,6.852c-0.22,0.22-0.344,0.489-0.494,0.744l-7.804-0.327c-2.105-0.178-3.63,1.445-3.712,3.412     c-0.082,1.967,1.445,3.629,3.412,3.712l6.13,0.258l0.254,6.125c0.078,1.919,1.659,3.42,3.56,3.42c0.049,0,0.099,0,0.15-0.004     c1.968-0.08,3.496-1.741,3.414-3.708l-0.344-8.276c0.155-0.112,0.334-0.175,0.474-0.315l6.852-6.852     c0.331,0.158,0.669,0.291,1.017,0.415v9.697c0,0.311,0.102,0.588,0.177,0.875l-5.75,5.292c-1.448,1.334-1.543,3.587-0.209,5.035     c1.334,1.452,3.585,1.553,5.039,0.209l4.513-4.151l4.513,4.151c0.686,0.634,1.551,0.944,2.413,0.944     c0.963,0,1.922-0.387,2.626-1.152c1.334-1.448,1.24-3.702-0.209-5.035l-6.094-5.608c0.031-0.189,0.113-0.361,0.113-0.559v-9.697     c0.348-0.124,0.687-0.257,1.017-0.415l6.852,6.852c0.219,0.219,0.488,0.343,0.743,0.494l-0.324,7.808     c-0.082,1.968,1.447,3.629,3.414,3.708c0.051,0.004,0.101,0.004,0.15,0.004c1.901,0,3.482-1.501,3.56-3.42l0.254-6.125     l6.13-0.258c1.968-0.083,3.494-1.745,3.412-3.712c-0.082-1.964-1.616-3.583-3.712-3.412l-8.272,0.346     c-0.112-0.156-0.175-0.335-0.315-0.475l-6.852-6.852c0.158-0.331,0.291-0.669,0.415-1.017h9.699c0.311,0,0.589-0.102,0.876-0.177     l5.287,5.748c0.704,0.766,1.663,1.152,2.626,1.152c0.862,0,1.727-0.31,2.412-0.94c1.45-1.334,1.544-3.59,0.211-5.039     l-4.153-4.516l4.153-4.513C89.537,120.418,89.443,118.162,87.994,116.832z M57.053,130.151c-1.966,0-3.566-1.598-3.566-3.566     c0-1.968,1.6-3.566,3.566-3.566s3.566,1.598,3.566,3.566C60.619,128.553,59.019,130.151,57.053,130.151z" data-id-fill="fill__000000" data-color-fill="#ffffff" fill="#ffffff" style="fill: rgb(255, 255, 255);"></path>
<path d="M158.933,72.893l4.153-4.513c1.334-1.448,1.24-3.705-0.209-5.035c-1.452-1.341-3.705-1.243-5.039,0.209l-5.606,6.091     c-0.189-0.031-0.36-0.113-0.558-0.113h-9.699c-0.124-0.348-0.257-0.687-0.415-1.017l6.852-6.852     c0.22-0.22,0.344-0.489,0.494-0.744l7.804,0.327c0.052,0.004,0.103,0.004,0.152,0.004c1.901,0,3.481-1.501,3.56-3.416     c0.082-1.968-1.445-3.629-3.412-3.712l-6.13-0.258l-0.254-6.125c-0.082-1.968-1.712-3.569-3.71-3.416     c-1.968,0.08-3.496,1.741-3.414,3.708l0.343,8.276c-0.155,0.112-0.334,0.175-0.474,0.315l-6.852,6.852     c-0.331-0.158-0.669-0.291-1.017-0.415v-9.697c0-0.311-0.102-0.588-0.177-0.875l5.75-5.292c1.448-1.334,1.543-3.587,0.209-5.035     s-3.587-1.55-5.039-0.209l-4.513,4.151l-4.513-4.151c-1.45-1.341-3.707-1.24-5.039,0.209c-1.334,1.448-1.24,3.702,0.209,5.035     l6.094,5.608c-0.032,0.189-0.113,0.36-0.113,0.558v9.697c-0.348,0.124-0.687,0.257-1.017,0.415l-6.852-6.852     c-0.219-0.219-0.488-0.343-0.743-0.494l0.324-7.808c0.082-1.968-1.447-3.629-3.414-3.708c-2.014-0.16-3.632,1.448-3.71,3.416     l-0.254,6.125l-6.13,0.258c-1.968,0.083-3.494,1.745-3.412,3.712c0.08,1.915,1.659,3.416,3.56,3.416c0.049,0,0.099,0,0.152-0.004     l8.272-0.346c0.112,0.156,0.175,0.335,0.315,0.475l6.852,6.852c-0.158,0.331-0.291,0.669-0.415,1.017h-9.699     c-0.311,0-0.589,0.102-0.876,0.177l-5.287-5.748c-1.335-1.452-3.588-1.55-5.037-0.213c-1.45,1.334-1.544,3.59-0.211,5.039     l4.153,4.516l-4.153,4.513c-1.334,1.448-1.24,3.705,0.209,5.035c0.686,0.634,1.551,0.944,2.413,0.944     c0.963,0,1.922-0.387,2.626-1.152l5.606-6.091c0.189,0.031,0.359,0.113,0.557,0.113h9.699c0.124,0.348,0.256,0.687,0.415,1.017     l-6.852,6.852c-0.22,0.22-0.344,0.489-0.494,0.744l-7.804-0.327c-2.119-0.178-3.63,1.445-3.712,3.412     c-0.082,1.967,1.445,3.629,3.412,3.712l6.13,0.258l0.254,6.125c0.078,1.919,1.659,3.42,3.56,3.42c0.049,0,0.099,0,0.15-0.004     c1.968-0.08,3.496-1.741,3.414-3.708l-0.344-8.276c0.155-0.112,0.334-0.175,0.474-0.315l6.852-6.852     c0.331,0.158,0.669,0.291,1.017,0.415v9.697c0,0.311,0.102,0.588,0.177,0.875l-5.75,5.292c-1.448,1.334-1.543,3.587-0.209,5.035     c1.334,1.452,3.587,1.553,5.039,0.209l4.513-4.151l4.513,4.151c0.686,0.634,1.551,0.944,2.413,0.944     c0.963,0,1.922-0.387,2.626-1.152c1.334-1.448,1.24-3.702-0.209-5.035l-6.094-5.608c0.031-0.189,0.113-0.361,0.113-0.559v-9.697     c0.348-0.124,0.687-0.257,1.017-0.415l6.852,6.852c0.219,0.219,0.488,0.343,0.743,0.494l-0.324,7.808     c-0.082,1.968,1.447,3.629,3.414,3.708c0.051,0.004,0.101,0.004,0.15,0.004c1.901,0,3.482-1.501,3.56-3.42l0.254-6.125     l6.13-0.258c1.968-0.083,3.494-1.745,3.412-3.712c-0.082-1.964-1.63-3.583-3.712-3.412l-8.272,0.346     c-0.112-0.156-0.175-0.335-0.315-0.475l-6.852-6.852c0.158-0.331,0.291-0.669,0.415-1.017h9.699c0.311,0,0.589-0.102,0.876-0.177     l5.287,5.748c0.704,0.766,1.663,1.152,2.626,1.152c0.862,0,1.727-0.31,2.412-0.94c1.45-1.334,1.544-3.59,0.211-5.039     L158.933,72.893z M131.935,76.664c-1.966,0-3.566-1.598-3.566-3.566c0-1.968,1.6-3.566,3.566-3.566s3.566,1.598,3.566,3.566     C135.501,75.066,133.901,76.664,131.935,76.664z" data-id-fill="fill__000000" data-color-fill="#ffffff" fill="#ffffff" style="fill: rgb(255, 255, 255);"></path>
<path d="M27.783,68.589l4.513-4.151l4.513,4.151c0.686,0.634,1.551,0.944,2.413,0.944c0.963,0,1.922-0.387,2.625-1.152     c1.334-1.448,1.24-3.702-0.209-5.035l-6.094-5.608c0.031-0.189,0.113-0.361,0.113-0.559v-9.697     c0.348-0.124,0.687-0.257,1.017-0.415l6.852,6.852c0.219,0.219,0.488,0.343,0.743,0.494l-0.324,7.808     c-0.082,1.968,1.447,3.629,3.414,3.708c0.051,0.004,0.101,0.004,0.15,0.004c1.901,0,3.482-1.501,3.56-3.42l0.254-6.125     l6.13-0.258c1.968-0.083,3.494-1.745,3.412-3.712c-0.083-1.964-1.657-3.583-3.712-3.412l-8.272,0.346     c-0.112-0.156-0.175-0.335-0.315-0.475l-6.852-6.852c0.158-0.331,0.291-0.669,0.415-1.017h9.699c0.311,0,0.589-0.102,0.876-0.177     l5.287,5.748c0.704,0.766,1.663,1.152,2.626,1.152c0.862,0,1.727-0.31,2.412-0.94c1.45-1.334,1.544-3.59,0.211-5.039     l-4.152-4.516l4.153-4.513c1.334-1.448,1.24-3.705-0.209-5.035c-1.45-1.344-3.707-1.243-5.039,0.209l-5.606,6.091     c-0.189-0.031-0.36-0.113-0.558-0.113H42.13c-0.124-0.348-0.257-0.687-0.415-1.017l6.852-6.852     c0.22-0.22,0.344-0.489,0.494-0.744l7.804,0.327c0.052,0.004,0.103,0.004,0.152,0.004c1.901,0,3.481-1.501,3.56-3.416     c0.082-1.968-1.445-3.629-3.412-3.712l-6.13-0.258l-0.254-6.125c-0.082-1.968-1.739-3.569-3.71-3.416     c-1.968,0.08-3.496,1.741-3.414,3.708L44,20.65c-0.155,0.112-0.334,0.175-0.474,0.315l-6.852,6.852     c-0.331-0.158-0.67-0.291-1.018-0.415v-9.697c0-0.311-0.102-0.588-0.177-0.875l5.75-5.292c1.448-1.334,1.543-3.587,0.209-5.035     c-1.334-1.452-3.587-1.55-5.039-0.209l-4.513,4.151l-4.513-4.151c-1.454-1.341-3.703-1.243-5.039,0.209     c-1.334,1.448-1.24,3.702,0.209,5.035l6.094,5.608c-0.031,0.189-0.113,0.361-0.113,0.559V27.4     c-0.348,0.124-0.687,0.257-1.017,0.415l-6.852-6.852c-0.219-0.219-0.488-0.343-0.743-0.494l0.324-7.808     c0.082-1.968-1.447-3.629-3.414-3.708c-2.042-0.16-3.63,1.448-3.71,3.416l-0.254,6.125l-6.131,0.257     c-1.968,0.083-3.494,1.745-3.412,3.712c0.08,1.915,1.659,3.416,3.56,3.416c0.049,0,0.099,0,0.152-0.004l8.272-0.346     c0.112,0.156,0.175,0.335,0.315,0.475l6.852,6.852c-0.158,0.331-0.291,0.669-0.415,1.017h-9.699     c-0.311,0-0.589,0.102-0.876,0.177L6.19,28.303c-1.332-1.452-3.587-1.546-5.037-0.213c-1.45,1.333-1.544,3.59-0.211,5.039     l4.153,4.516l-4.153,4.513c-1.334,1.448-1.24,3.705,0.209,5.035c0.686,0.634,1.551,0.944,2.413,0.944     c0.963,0,1.922-0.387,2.626-1.152l5.606-6.091c0.189,0.031,0.359,0.113,0.557,0.113h9.699c0.124,0.348,0.256,0.687,0.415,1.017     l-6.852,6.852c-0.22,0.22-0.344,0.489-0.494,0.744l-7.804-0.327C7.265,49.29,7.214,49.29,7.165,49.29     c-1.901,0-3.481,1.501-3.56,3.416c-0.082,1.968,1.445,3.629,3.412,3.712l6.13,0.258l0.254,6.125     c0.078,1.919,1.659,3.42,3.56,3.42c0.049,0,0.099,0,0.15-0.004c1.968-0.08,3.496-1.741,3.414-3.708l-0.343-8.276     c0.155-0.112,0.334-0.175,0.474-0.315l6.852-6.852c0.33,0.158,0.669,0.291,1.017,0.415v9.697c0,0.311,0.102,0.588,0.177,0.875     l-5.75,5.292c-1.448,1.334-1.543,3.587-0.209,5.035C24.078,69.832,26.331,69.93,27.783,68.589z M28.526,37.44     c0-1.968,1.6-3.566,3.566-3.566s3.566,1.598,3.566,3.566s-1.6,3.566-3.566,3.566S28.526,39.408,28.526,37.44z" data-id-fill="fill__000000" data-color-fill="#ffffff" fill="#ffffff" style="fill: rgb(255, 255, 255);"></path>
</g>
</g>
</g>
<g xmlns="http://www.w3.org/2000/svg">
</g>
<g xmlns="http://www.w3.org/2000/svg">
</g>
<g xmlns="http://www.w3.org/2000/svg">
</g>
<g xmlns="http://www.w3.org/2000/svg">
</g>
<g xmlns="http://www.w3.org/2000/svg">
</g>
<g xmlns="http://www.w3.org/2000/svg">
</g>
<g xmlns="http://www.w3.org/2000/svg">
</g>
<g xmlns="http://www.w3.org/2000/svg">
</g>
<g xmlns="http://www.w3.org/2000/svg">
</g>
<g xmlns="http://www.w3.org/2000/svg">
</g>
<g xmlns="http://www.w3.org/2000/svg">
</g>
<g xmlns="http://www.w3.org/2000/svg">
</g>
<g xmlns="http://www.w3.org/2000/svg">
</g>
<g xmlns="http://www.w3.org/2000/svg">
</g>
<g xmlns="http://www.w3.org/2000/svg">
</g>
</svg>