<svg xmlns="http://www.w3.org/2000/svg" xmlns:xlink="http://www.w3.org/1999/xlink" version="1.1" id="boe_canvas__item_1697200787868__svg" x="0px" y="0px" viewBox="0 0 195.418 195.418" style="width: 15px; height: 15px;" xml:space="preserve" preserveAspectRatio="none">
<path xmlns="http://www.w3.org/2000/svg" d="M147.45,3.202C146.046,1.195,143.752,0,141.303,0H54.115c-2.449,0-4.743,1.195-6.146,3.202  C33.771,23.505,24.596,50.394,24.596,71.703c0,19.368,7.723,36.871,21.747,49.284c11.549,10.223,26.716,16.473,43.335,17.998v41.433  H71.372c-4.142,0-7.5,3.357-7.5,7.5s3.358,7.5,7.5,7.5h51.616c4.142,0,7.5-3.357,7.5-7.5s-3.358-7.5-7.5-7.5h-18.31v-41.336  c17.036-1.352,32.602-7.654,44.397-18.095c14.023-12.413,21.747-29.916,21.747-49.284C170.822,50.394,161.647,23.505,147.45,3.202z   M58.11,15h79.197c9.593,14.867,16.355,33.433,18.073,49.203H40.038C41.755,48.433,48.518,29.867,58.11,15z M97.71,124.363  c-30.844,0-53.926-18.587-57.59-45.16h115.18C151.635,105.776,128.553,124.363,97.71,124.363z" data-id-fill="fill__000000" data-color-fill="#ffffff" fill="#ffffff" style="fill: rgb(255, 255, 255);"></path>
<g xmlns="http://www.w3.org/2000/svg">
</g>
<g xmlns="http://www.w3.org/2000/svg">
</g>
<g xmlns="http://www.w3.org/2000/svg">
</g>
<g xmlns="http://www.w3.org/2000/svg">
</g>
<g xmlns="http://www.w3.org/2000/svg">
</g>
<g xmlns="http://www.w3.org/2000/svg">
</g>
<g xmlns="http://www.w3.org/2000/svg">
</g>
<g xmlns="http://www.w3.org/2000/svg">
</g>
<g xmlns="http://www.w3.org/2000/svg">
</g>
<g xmlns="http://www.w3.org/2000/svg">
</g>
<g xmlns="http://www.w3.org/2000/svg">
</g>
<g xmlns="http://www.w3.org/2000/svg">
</g>
<g xmlns="http://www.w3.org/2000/svg">
</g>
<g xmlns="http://www.w3.org/2000/svg">
</g>
<g xmlns="http://www.w3.org/2000/svg">
</g>
</svg>