<svg xmlns="http://www.w3.org/2000/svg" xmlns:xlink="http://www.w3.org/1999/xlink" id="boe_canvas__item_1658401881453__svg" viewBox="0 0 1000 1000" shape-rendering="geometricPrecision" text-rendering="geometricPrecision" preserveAspectRatio="none" style="width: 54.6667px; height: 54.6667px;"><style xmlns="http://www.w3.org/2000/svg">#exutsQrmkEi2_tr {animation: exutsQrmkEi2_tr__tr 5000ms linear infinite normal forwards}@keyframes exutsQrmkEi2_tr__tr { 0% {transform: translate(500px,500px) rotate(0deg)} 24% {transform: translate(500px,500px) rotate(-13.432477deg)} 50% {transform: translate(500px,500px) rotate(8.760381deg)} 78% {transform: translate(500px,500px) rotate(-15.015321deg)} 100% {transform: translate(500px,500px) rotate(0deg)}}</style><g xmlns="http://www.w3.org/2000/svg" id="exutsQrmkEi2_tr" transform="translate(500,500) rotate(0)"><g transform="scale(1.903005,1.903005) translate(-206.227508,-206.227508)"><g><g><g><path d="M187.48,409.52L2.93,225c-3.903819-3.904999-3.903819-10.235001,0-14.14L210.82,2.93c3.904999-3.903819,10.235001-3.903819,14.14,0L409.52,187.48c1.87777,1.875683,2.932867,4.420908,2.932867,7.075s-1.055097,5.199317-2.932867,7.075L201.63,409.52c-1.875683,1.87777-4.420908,2.932867-7.075,2.932867s-5.199317-1.055097-7.075-2.932867ZM24.14,217.89L194.55,388.3L388.3,194.55L217.89,24.14Z" fill="#ffffed" data-id-fill="fill__ffffed" data-color-fill="#ffffed"></path><rect width="30" height="66" rx="15" ry="15" transform="matrix(.707107 0.707107-.707107 0.707107 271.624259 18.482429)" fill="#ffffed" data-id-fill="fill__ffffed" data-color-fill="#ffffed"></rect><rect width="30" height="66" rx="15" ry="15" transform="matrix(.707107 0.707107-.707107 0.707107 323.244259 70.104133)" fill="#ffffed" data-id-fill="fill__ffffed" data-color-fill="#ffffed"></rect><rect width="30" height="66" rx="15" ry="15" transform="matrix(.707107 0.707107-.707107 0.707107 372.034259 118.893612)" fill="#ffffed" data-id-fill="fill__ffffed" data-color-fill="#ffffed"></rect></g><rect width="176" height="14" rx="0" ry="0" transform="matrix(.707107 0.707107-.707107 0.707107 197.03681 90.971048)" fill="#ffffed" data-id-fill="fill__ffffed" data-color-fill="#ffffed"></rect><rect width="176" height="14" rx="0" ry="0" transform="matrix(.707107 0.707107-.707107 0.707107 170.863912 117.123977)" fill="#ffffed" data-id-fill="fill__ffffed" data-color-fill="#ffffed"></rect><rect width="176" height="14" rx="0" ry="0" transform="matrix(.707107 0.707107-.707107 0.707107 146.112126 141.873977)" fill="#ffffed" data-id-fill="fill__ffffed" data-color-fill="#ffffed"></rect><rect width="176" height="14" rx="0" ry="0" transform="matrix(.707107 0.707107-.707107 0.707107 119.242208 168.743977)" fill="#ffffed" data-id-fill="fill__ffffed" data-color-fill="#ffffed"></rect><rect width="176" height="14" rx="0" ry="0" transform="matrix(.707107 0.707107-.707107 0.707107 93.086381 194.903977)" fill="#ffffed" data-id-fill="fill__ffffed" data-color-fill="#ffffed"></rect></g></g></g></g></svg>