<svg xmlns="http://www.w3.org/2000/svg" xmlns:xlink="http://www.w3.org/1999/xlink" version="1.1" id="boe_canvas__item_1680189378261__svg" x="0px" y="0px" viewBox="0 0 413.113 413.113" style="width: 24px; height: 24px;" xml:space="preserve" preserveAspectRatio="none">
<path xmlns="http://www.w3.org/2000/svg" id="XMLID_2022_" d="M243.004,315.452c16.634-20.108,23.586-44.912,17.518-65.994c-0.673-2.341-2.267-4.309-4.416-5.453  c-18.089-9.639-41.661-8.987-63.813,1.254c-5.559-23.505-19.502-42.705-38.289-51.044c-2.224-0.985-4.756-1.031-7.015-0.121  c-19.792,7.973-34.774,27.824-40.733,52.36c-22.863-11.375-47.536-12.451-66.304-2.449c-2.149,1.145-3.743,3.112-4.416,5.453  c-6.068,21.081,0.886,45.888,17.518,65.994C5.812,323.647,0,335.592,0,344.14c0,12.807,14.81,21.368,48.02,27.76  c26.802,5.159,62.319,8,100.01,8c37.689,0,73.206-2.841,100.009-8c33.209-6.392,48.019-14.953,48.019-27.76  C296.057,335.591,290.245,323.646,243.004,315.452z M194.857,264.127c16.869-9.242,35.355-11.453,49.24-5.883  c3.233,18.619-7.307,41.615-26.688,57.312c-14.736,11.934-32.548,17.981-47.928,17.123c15.313-14.376,25.001-37.317,25.442-62.638  C194.959,268.057,194.936,266.084,194.857,264.127z M121.453,268.764c0.434-24.938,12.063-47.404,28.725-56.318  c16.34,9.487,27.183,32.344,26.749,57.283c-0.434,24.938-12.063,47.404-28.724,56.319  C131.862,316.559,121.021,293.702,121.453,268.764z M51.959,258.244c14.534-5.832,34.107-3.136,51.592,7.224  c-0.046,0.99-0.078,1.985-0.096,2.983c-0.445,25.713,8.727,49.309,23.947,64.174c-15.575,1.14-33.756-4.921-48.755-17.069  C59.266,299.86,48.726,276.863,51.959,258.244z M238.481,355.337c-24.911,4.231-57.034,6.563-90.452,6.563  s-65.542-2.331-90.453-6.563c-24.886-4.228-34.573-8.878-38.1-11.222c4.703-3.081,18.354-8.617,48.992-12.835  c0.288-0.04,0.571-0.093,0.849-0.158c24.758,19.057,55.5,24.791,78.711,14.896c23.21,9.893,53.951,4.162,78.71-14.896  c0.278,0.065,0.562,0.118,0.851,0.158c30.637,4.216,44.288,9.753,48.99,12.834C273.054,346.459,263.366,351.109,238.481,355.337z   M352.388,94.517v-32.7c0-15.771-12.831-28.603-28.603-28.603H129.578c-15.771,0-28.603,12.831-28.603,28.603v32.7  c-34.212,4.427-60.725,33.749-60.725,69.147v51.855c0,4.971,4.029,9,9,9s9-4.029,9-9v-51.855c0-28.521,23.203-51.726,51.725-51.726  H310.6v19.36h-14.789c-4.971,0-9,4.029-9,9v68.736c0,4.971,4.029,9,9,9h47.577c4.971,0,9-4.029,9-9v-68.736c0-4.971-4.029-9-9-9  H328.6v-19.36h14.788c28.521,0,51.726,23.204,51.726,51.726v121.451c0,28.521-23.204,51.725-51.726,51.725H322.03  c-4.971,0-9,4.029-9,9s4.029,9,9,9h21.357c38.447,0,69.726-31.278,69.726-69.725V163.664  C413.113,128.266,386.601,98.943,352.388,94.517z M334.388,149.299v50.736h-29.577v-50.736H334.388z M334.388,93.938H118.976V61.816  c0-5.847,4.756-10.603,10.603-10.603h194.207c5.847,0,10.603,4.756,10.603,10.603V93.938z" data-id-fill="fill__000000" data-color-fill="#ffffff" fill="#ffffff" style="fill: rgb(255, 255, 255);"></path>
<g xmlns="http://www.w3.org/2000/svg">
</g>
<g xmlns="http://www.w3.org/2000/svg">
</g>
<g xmlns="http://www.w3.org/2000/svg">
</g>
<g xmlns="http://www.w3.org/2000/svg">
</g>
<g xmlns="http://www.w3.org/2000/svg">
</g>
<g xmlns="http://www.w3.org/2000/svg">
</g>
<g xmlns="http://www.w3.org/2000/svg">
</g>
<g xmlns="http://www.w3.org/2000/svg">
</g>
<g xmlns="http://www.w3.org/2000/svg">
</g>
<g xmlns="http://www.w3.org/2000/svg">
</g>
<g xmlns="http://www.w3.org/2000/svg">
</g>
<g xmlns="http://www.w3.org/2000/svg">
</g>
<g xmlns="http://www.w3.org/2000/svg">
</g>
<g xmlns="http://www.w3.org/2000/svg">
</g>
<g xmlns="http://www.w3.org/2000/svg">
</g>
</svg>