<svg xmlns="http://www.w3.org/2000/svg" xmlns:xlink="http://www.w3.org/1999/xlink" cache-id="39bc87d893a34cd2b47d95d620aae2d2" id="boe_canvas__item_1697104369143__svg" viewBox="210 40 200 550" shape-rendering="geometricPrecision" text-rendering="geometricPrecision" preserveAspectRatio="none" style="width: 780px; height: 252px;"><style xmlns="http://www.w3.org/2000/svg">#erUPoH6FDgu5_to {animation: erUPoH6FDgu5_to__to 6521.739130434782ms linear infinite normal forwards}@keyframes erUPoH6FDgu5_to__to { 0% {transform: translate(29.999882px,1260.670183px)} 100% {transform: translate(29.999882px,225.03612px)}} #erUPoH6FDgu6_to {animation: erUPoH6FDgu6_to__to 6521.739130434782ms linear infinite normal forwards}@keyframes erUPoH6FDgu6_to__to { 0% {transform: translate(29.999882px,1260.670183px)} 100% {transform: translate(29.999882px,913.749361px)}} #erUPoH6FDgu7_to {animation: erUPoH6FDgu7_to__to 6521.739130434782ms linear infinite normal forwards}@keyframes erUPoH6FDgu7_to__to { 0% {transform: translate(29.999882px,1191.680884px)} 100% {transform: translate(29.999882px,839.097596px)}}</style><defs xmlns="http://www.w3.org/2000/svg"><filter id="erUPoH6FDgu2-filter" x="-400%" width="600%" y="-400%" height="600%"><feGaussianBlur id="erUPoH6FDgu2-filter-blur-0" stdDeviation="5,0" result="result"></feGaussianBlur></filter><filter id="erUPoH6FDgu3-filter" x="-400%" width="600%" y="-400%" height="600%"><feGaussianBlur id="erUPoH6FDgu3-filter-blur-0" stdDeviation="2,0" result="result"></feGaussianBlur></filter><filter id="erUPoH6FDgu4-filter" x="-400%" width="600%" y="-400%" height="600%"><feGaussianBlur id="erUPoH6FDgu4-filter-blur-0" stdDeviation="0,0" result="result"></feGaussianBlur></filter><filter id="erUPoH6FDgu5-filter" x="-400%" width="600%" y="-400%" height="600%"><feGaussianBlur id="erUPoH6FDgu5-filter-blur-0" stdDeviation="0,0" result="result"></feGaussianBlur></filter><filter id="erUPoH6FDgu6-filter" x="-400%" width="600%" y="-400%" height="600%"><feGaussianBlur id="erUPoH6FDgu6-filter-blur-0" stdDeviation="0,0" result="result"></feGaussianBlur></filter><filter id="erUPoH6FDgu7-filter" x="-400%" width="600%" y="-400%" height="600%"><feGaussianBlur id="erUPoH6FDgu7-filter-blur-0" stdDeviation="0,0" result="result"></feGaussianBlur></filter><filter id="erUPoH6FDgu10-filter" x="-400%" width="600%" y="-400%" height="600%"><feGaussianBlur id="erUPoH6FDgu10-filter-blur-0" stdDeviation="6,0" result="result"></feGaussianBlur></filter></defs><g xmlns="http://www.w3.org/2000/svg" id="erUPoH6FDgu3" transform="matrix(1 0 0 1 8.74823 -1.16372)" opacity="0.38" mask="url(#erUPoH6FDgu8)" filter="url(#erUPoH6FDgu3-filter)"><g id="erUPoH6FDgu4" transform="matrix(1 0 0 1 271.751888 -428.458113)" filter="url(#erUPoH6FDgu4-filter)"><g id="erUPoH6FDgu5_to" transform="translate(29.999882,1260.670183)"><path id="erUPoH6FDgu5" d="M175.5,1726.1L172.5,1726.1C172.5,1683.1,168.4,1661.2,164.5,1640.1C160.6,1618.8,156.5,1596.8,156.5,1553.5C156.5,1510.2,160.6,1488.2,164.5,1466.9C168.4,1445.8,172.5,1423.9,172.5,1380.9C172.5,1337.9,168.4,1316,164.5,1294.9C160.6,1273.6,156.5,1251.6,156.5,1208.3C156.5,1165,160.6,1143,164.5,1121.7C168.4,1100.6,172.5,1078.7,172.5,1035.7C172.5,992.7,168.4,970.8,164.5,949.7C160.6,928.4,156.5,906.4,156.5,863.1C156.5,819.8,160.6,797.8,164.5,776.5C168.4,755.4,172.5,733.5,172.5,690.5C172.5,647.5,168.4,625.6,164.5,604.5C160.6,583.2,156.5,561.2,156.5,517.9C156.5,474.6,160.6,452.6,164.5,431.3C168.4,410.2,172.5,388.3,172.5,345.3C172.5,302.3,168.4,280.4,164.5,259.3C160.6,238,156.5,216,156.5,172.7C156.5,129.4,160.6,107.4,164.5,86.1C168.4,65,172.5,43.1,172.5,0.1L175.5,0.1C175.5,43.4,171.4,65.4,167.5,86.7C163.6,107.8,159.5,129.7,159.5,172.7C159.5,215.7,163.6,237.6,167.5,258.7C171.4,280,175.5,302,175.5,345.3C175.5,388.6,171.4,410.6,167.5,431.9C163.6,453,159.5,474.9,159.5,517.9C159.5,560.9,163.6,582.8,167.5,603.9C171.4,625.2,175.5,647.2,175.5,690.5C175.5,733.8,171.4,755.8,167.5,777.1C163.6,798.2,159.5,820.1,159.5,863.1C159.5,906.1,163.6,928,167.5,949.1C171.4,970.4,175.5,992.4,175.5,1035.7C175.5,1079,171.4,1101,167.5,1122.3C163.6,1143.4,159.5,1165.3,159.5,1208.3C159.5,1251.3,163.6,1273.2,167.5,1294.3C171.4,1315.6,175.5,1337.6,175.5,1380.9C175.5,1424.2,171.4,1446.2,167.5,1467.5C163.6,1488.6,159.5,1510.5,159.5,1553.5C159.5,1596.5,163.6,1618.4,167.5,1639.5C171.4,1660.8,175.5,1682.8,175.5,1726.1Z" transform="translate(-166,-863.100075)" opacity="0.5" filter="url(#erUPoH6FDgu5-filter)" fill="rgb(255,255,255)" stroke="none" stroke-width="1" data-id-fill="fill__ffffff" data-color-fill="#ffffff"></path></g><g id="erUPoH6FDgu6_to" transform="translate(29.999882,1260.670183)"><path id="erUPoH6FDgu6" d="M175.5,1726.1L172.5,1726.1C172.5,1683.1,168.4,1661.2,164.5,1640.1C160.6,1618.8,156.5,1596.8,156.5,1553.5C156.5,1510.2,160.6,1488.2,164.5,1466.9C168.4,1445.8,172.5,1423.9,172.5,1380.9C172.5,1337.9,168.4,1316,164.5,1294.9C160.6,1273.6,156.5,1251.6,156.5,1208.3C156.5,1165,160.6,1143,164.5,1121.7C168.4,1100.6,172.5,1078.7,172.5,1035.7C172.5,992.7,168.4,970.8,164.5,949.7C160.6,928.4,156.5,906.4,156.5,863.1C156.5,819.8,160.6,797.8,164.5,776.5C168.4,755.4,172.5,733.5,172.5,690.5C172.5,647.5,168.4,625.6,164.5,604.5C160.6,583.2,156.5,561.2,156.5,517.9C156.5,474.6,160.6,452.6,164.5,431.3C168.4,410.2,172.5,388.3,172.5,345.3C172.5,302.3,168.4,280.4,164.5,259.3C160.6,238,156.5,216,156.5,172.7C156.5,129.4,160.6,107.4,164.5,86.1C168.4,65,172.5,43.1,172.5,0.1L175.5,0.1C175.5,43.4,171.4,65.4,167.5,86.7C163.6,107.8,159.5,129.7,159.5,172.7C159.5,215.7,163.6,237.6,167.5,258.7C171.4,280,175.5,302,175.5,345.3C175.5,388.6,171.4,410.6,167.5,431.9C163.6,453,159.5,474.9,159.5,517.9C159.5,560.9,163.6,582.8,167.5,603.9C171.4,625.2,175.5,647.2,175.5,690.5C175.5,733.8,171.4,755.8,167.5,777.1C163.6,798.2,159.5,820.1,159.5,863.1C159.5,906.1,163.6,928,167.5,949.1C171.4,970.4,175.5,992.4,175.5,1035.7C175.5,1079,171.4,1101,167.5,1122.3C163.6,1143.4,159.5,1165.3,159.5,1208.3C159.5,1251.3,163.6,1273.2,167.5,1294.3C171.4,1315.6,175.5,1337.6,175.5,1380.9C175.5,1424.2,171.4,1446.2,167.5,1467.5C163.6,1488.6,159.5,1510.5,159.5,1553.5C159.5,1596.5,163.6,1618.4,167.5,1639.5C171.4,1660.8,175.5,1682.8,175.5,1726.1Z" transform="translate(-166,-863.100075)" opacity="0.37" filter="url(#erUPoH6FDgu6-filter)" fill="rgb(255,255,255)" stroke="none" stroke-width="1" data-id-fill="fill__ffffff" data-color-fill="#ffffff"></path></g><g id="erUPoH6FDgu7_to" transform="translate(29.999882,1191.680884)"><path id="erUPoH6FDgu7" d="M175.5,1726.1L172.5,1726.1C172.5,1683.1,168.4,1661.2,164.5,1640.1C160.6,1618.8,156.5,1596.8,156.5,1553.5C156.5,1510.2,160.6,1488.2,164.5,1466.9C168.4,1445.8,172.5,1423.9,172.5,1380.9C172.5,1337.9,168.4,1316,164.5,1294.9C160.6,1273.6,156.5,1251.6,156.5,1208.3C156.5,1165,160.6,1143,164.5,1121.7C168.4,1100.6,172.5,1078.7,172.5,1035.7C172.5,992.7,168.4,970.8,164.5,949.7C160.6,928.4,156.5,906.4,156.5,863.1C156.5,819.8,160.6,797.8,164.5,776.5C168.4,755.4,172.5,733.5,172.5,690.5C172.5,647.5,168.4,625.6,164.5,604.5C160.6,583.2,156.5,561.2,156.5,517.9C156.5,474.6,160.6,452.6,164.5,431.3C168.4,410.2,172.5,388.3,172.5,345.3C172.5,302.3,168.4,280.4,164.5,259.3C160.6,238,156.5,216,156.5,172.7C156.5,129.4,160.6,107.4,164.5,86.1C168.4,65,172.5,43.1,172.5,0.1L175.5,0.1C175.5,43.4,171.4,65.4,167.5,86.7C163.6,107.8,159.5,129.7,159.5,172.7C159.5,215.7,163.6,237.6,167.5,258.7C171.4,280,175.5,302,175.5,345.3C175.5,388.6,171.4,410.6,167.5,431.9C163.6,453,159.5,474.9,159.5,517.9C159.5,560.9,163.6,582.8,167.5,603.9C171.4,625.2,175.5,647.2,175.5,690.5C175.5,733.8,171.4,755.8,167.5,777.1C163.6,798.2,159.5,820.1,159.5,863.1C159.5,906.1,163.6,928,167.5,949.1C171.4,970.4,175.5,992.4,175.5,1035.7C175.5,1079,171.4,1101,167.5,1122.3C163.6,1143.4,159.5,1165.3,159.5,1208.3C159.5,1251.3,163.6,1273.2,167.5,1294.3C171.4,1315.6,175.5,1337.6,175.5,1380.9C175.5,1424.2,171.4,1446.2,167.5,1467.5C163.6,1488.6,159.5,1510.5,159.5,1553.5C159.5,1596.5,163.6,1618.4,167.5,1639.5C171.4,1660.8,175.5,1682.8,175.5,1726.1Z" transform="scale(-1,1) translate(-166,-863.100075)" opacity="0.32" filter="url(#erUPoH6FDgu7-filter)" fill="rgb(255,255,255)" stroke="none" stroke-width="1" data-id-fill="fill__ffffff" data-color-fill="#ffffff"></path></g></g><mask id="erUPoH6FDgu8" mask-type="luminance"><g id="erUPoH6FDgu9" transform="matrix(0.694415 0 0 0.694415 210.890064 61.226254)"><path id="erUPoH6FDgu10" d="M131.6,745.3L131.6,745.3C97.1,560.1,-2.8,541.8,0.1,439.1C4.8,270.9,106.247529,235.691718,131.6,0L131.6,0L131.6,0C144.1,256.1,246.4,315.8,244.1,447.1C242,567.6,139.1,570.1,131.6,745.3L131.6,745.3Z" filter="url(#erUPoH6FDgu10-filter)" fill="rgb(255,255,255)" stroke="none" stroke-width="1" data-id-fill="fill__ffffff" data-color-fill="#ffffff"></path></g></mask></g></svg>