<svg id="Layer_1" data-name="Layer 1" xmlns="http://www.w3.org/2000/svg" viewBox="0 0 612 279.66"><defs><style>.cls-1{fill:#fff;}</style></defs><title>casumo_white</title><path class="cls-1" d="M217.2,123.73c0,1.9-1.1,2.4-1.1,5.9,0,5.4,3.2,10.8,14,10.8,7,0,12.4-3.2,12.4-9.2,0-7.8-8.1-10.5-15.9-15.1-7.8-4.3-15.6-10.5-15.6-25,0-17,15.3-27.2,36.6-27.2,8.6,0,14.8,1.3,21.3,5.7,4.6-10,15.9-17,28.5-17,19.6,0,28.3,12.4,28.3,22.9,0,14.5-15.9,39.3-15.9,52.7,0,3,2.4,4.6,4.8,4.8,14.5,0,30.1-37.7,30.9-64.3a4.21,4.21,0,0,1,3.5-4.3,22.12,22.12,0,0,1,4.8-.5c8.1,0,16.7,4.6,16.7,16.1-.3,21-14.8,39.6-14.8,49.8,0,2.7,2.4,5.4,6.7,5.4,15.1,0,26.9-35.5,26.9-63.5,0-3,3-5.1,10-5.1,9.2,0,15.6,5.4,15.1,19.4.8-1.1,12.6-22.1,31.2-22.1,12.1,0,17.2,7.5,17.2,17.2a31.74,31.74,0,0,1,28.5-17.2c12.1,0,18.6,7.3,18.6,19.1,0,18.6-17,38.8-17,48.2,0,3,2.2,4,4.6,4,6.2,0,15.3-5.7,18.6-14.5,2.4-6.7,10-26.1,25.3-26.1,5.4,0,6.5,2.2,6.5,4.3,0,4.6-4.8,5.9-4.8,22.1,0,12.1,3.8,17.5,9.7,17.5,8.3,0,21.3-17.5,21.3-39.6,0-9.4-5.4-18.3-18.8-18.3-10,0-12.6,3-16.7,3a3.88,3.88,0,0,1-4-4c0-6.2,15.6-15.6,33.6-15.6,26.1,0,33.4,22.9,33.4,36.1,0,33.6-28.3,60.3-52.7,60.3-15.6,0-23.7-7.5-28-15.6h0c-7.3,7.8-20.5,15.6-35.3,15.6-13.5,0-21.3-6.2-21.3-18.3,0-15.6,16.1-40.6,16.1-48.2,0-1.9-.3-3-2.2-3-14.3,0-32.3,37.4-35.3,61.9,0,1.1-1.1,7.3-8.6,7.3-8.3,0-16.7-5.1-16.7-16.7,0-15.9,17-42.5,17-49.8,0-1.6-.5-2.7-2.4-2.7-8.3,0-17.5,13.2-24,29.1-4.6,10.8-8.1,22.9-9.2,32.8a8.3,8.3,0,0,1-8.6,7.3c-8.6,0-13.5-4.6-15.9-10.5-6.2,5.4-13.7,10.5-22.1,10.5-15.3,0-21-7.3-21.5-15.3,0,0-8.3,15.3-28.8,15.3-10,0-19.6-8.1-19.6-25.6,0-19.4,11-33.9,15.3-51.4,1.3-5.9-3.5-9.4-9.2-9.4-7,0-10.5,4.8-10.5,12.6,0,8.3-4.8,15.1-15.9,15.1a3.88,3.88,0,0,1-4-4c0-1.1.3-2.2.3-5.1,0-7-5.7-11-12.6-11-6.5,0-9.4,3.2-9.4,8.1,0,8.3,8.6,11.3,17,15.3,8.1,4,15.9,9.2,15.9,21.5,0,21.5-18.8,33.4-42,33.4-11.8,0-20.5-2.7-25.6-8.3a31.3,31.3,0,0,1-21.3,8.3c-17.2,0-17.8-14.8-17.8-14.8s-8.1,14.8-32.3,14.8c-19.9,0-24.2-15.6-24.2-15.6-10,8.9-24.8,15.6-45.2,15.6-33.4,0-50.6-20.5-50.6-51.9,0-33.6,29.1-88.5,74.5-88.5,24.5,0,36.9,14.3,36.9,30.4,0,14.8-11.6,30.9-30.9,30.9C80.7,80.53,78,77,78,74.63c0-4.6,11.6-7.5,11.6-20.5,0-6.7-4.3-11.6-10.2-11.6-16.7,0-39,33.6-39,61.1,0,22.1,10,33.9,29.6,33.9,11.8,0,28.3-8.6,32.6-21,6.5-18.8,21.5-52.7,63.5-52.7,21,0,28.3,11.8,28.3,17.2a4.09,4.09,0,0,1-4,4c-2.9,0-7-3.5-19.4-3.5-28.5,0-40.9,23.1-40.9,40.1,0,10,3.5,14.5,9.7,14.5,12.1,0,14-10.8,18.8-26.4,2.7-8.6,8.9-15.3,18.8-15.3,9.7,0,9.7,4.3,9.7,5.1a13.86,13.86,0,0,1-1.6,5.1,56,56,0,0,0-5.1,21c0,4,1.6,10.5,8.9,10.5,10,0,10.2-16.7,24-16.7A4.23,4.23,0,0,1,217.2,123.73Z"/><path class="cls-1" d="M266,236.06l12-1.82c2.69-.38,3.46-1.73,3.46-3.36,0-3.94-2.69-7.1-8.83-7.1-5.86,0-9.12,3.74-9.6,8.45l-10.18-2.3c.86-8.06,8.16-15.26,19.68-15.26,14.4,0,19.87,8.16,19.87,17.47v23.23a42.41,42.41,0,0,0,.58,7.49H282.6a26,26,0,0,1-.48-6c-2.21,3.55-6.82,7.39-14.4,7.39-9.79,0-15.84-6.72-15.84-14.11C251.88,241.82,258,237.21,266,236.06Zm15.46,7.39v-2.11l-12.19,1.82c-3.46.58-6.24,2.5-6.24,6.34,0,3.17,2.4,6,6.82,6C276.07,255.54,281.45,252.57,281.45,243.45Z"/><path class="cls-1" d="M337.13,239.42c0,9.41,6,14.69,13.05,14.69a11.8,11.8,0,0,0,11.71-8.64l9.79,3.55c-2.21,7.3-9.22,15.26-21.5,15.26-13.73,0-24.19-10.65-24.19-24.86,0-14.4,10.46-24.77,23.9-24.77,12.58,0,19.49,7.87,21.41,15.36l-10,3.65c-1.06-4.13-4.22-8.74-11.33-8.74C343.17,224.92,337.13,230,337.13,239.42Z"/><path class="cls-1" d="M392.52,236.06l12-1.82c2.69-.38,3.46-1.73,3.46-3.36,0-3.94-2.69-7.1-8.83-7.1-5.86,0-9.12,3.74-9.6,8.45l-10.17-2.3c.86-8.06,8.16-15.26,19.68-15.26,14.4,0,19.87,8.16,19.87,17.47v23.23a42.3,42.3,0,0,0,.58,7.49H409.12a25.93,25.93,0,0,1-.48-6c-2.21,3.55-6.82,7.39-14.4,7.39-9.79,0-15.84-6.72-15.84-14.11C378.41,241.82,384.55,237.21,392.52,236.06ZM408,243.45v-2.11l-12.19,1.82c-3.46.58-6.24,2.5-6.24,6.34,0,3.17,2.4,6,6.82,6C402.6,255.54,408,252.57,408,243.45Z"/><path class="cls-1" d="M437.93,247.48c.38,4.22,3.55,8,9.5,8,4.61,0,7-2.5,7-5.37,0-2.5-1.73-4.42-5.47-5.18l-6.91-1.54c-8.26-1.82-12.58-7.2-12.58-13.63,0-8.16,7.49-15.07,17.18-15.07,13.06,0,17.28,8.45,18,13.05l-9.41,2.69c-.38-2.69-2.4-7-8.64-7-3.94,0-6.72,2.5-6.72,5.38,0,2.5,1.82,4.32,4.7,4.9l7.1,1.44c8.83,1.92,13.44,7.3,13.44,14.21,0,7.1-5.76,15-17.66,15-13.54,0-18.72-8.83-19.29-14.11Z"/><path class="cls-1" d="M481.7,192.38a7.29,7.29,0,0,1,7.3,7.3,7.25,7.25,0,1,1-7.3-7.3Zm-5.47,70.46V216.09h11v46.75Z"/><path class="cls-1" d="M512.8,262.84H501.67V216.09h10.85v6.24c3.07-5.38,8.64-7.58,13.82-7.58,11.42,0,16.9,8.26,16.9,18.53v29.57H532.1V235.19c0-5.76-2.59-10.37-9.6-10.37-6.33,0-9.7,4.9-9.7,11Z"/><path class="cls-1" d="M601.6,239.42c0,14.4-10.27,24.86-24.29,24.86s-24.19-10.46-24.19-24.86,10.27-24.77,24.19-24.77S601.6,225.11,601.6,239.42Zm-11.23,0c0-9.7-6.14-14.69-13.05-14.69s-13.05,5-13.05,14.69,6.24,14.88,13.05,14.88S590.37,249.21,590.37,239.42Z"/></svg>