<?xml version="1.0" encoding="utf-8"?>
<!-- Generator: Adobe Illustrator 22.0.1, SVG Export Plug-In . SVG Version: 6.00 Build 0)  -->
<svg version="1.1" id="Lager_1" xmlns="http://www.w3.org/2000/svg" xmlns:xlink="http://www.w3.org/1999/xlink" x="0px" y="0px"
	 viewBox="0 0 508.7 529.7" enable-background="new 0 0 508.7 529.7" xml:space="preserve">
<g>
	<path fill="#A8163F" d="M491.1,310.5c-6.4-10.7-14.8-20-24.5-27.3c12.7-12.3,21.9-27.9,26.4-45.5c6.4-25.1,2.6-51.2-10.6-73.4
		c-12.5-21.1-32.7-36.3-55.8-43.2c4.9-23,1.7-47.9-11.3-69.6c-17.3-29.1-49.1-47.3-83-47.4c-17.4,0-34.6,4.7-49.6,13.6
		c-21.8,13-37.4,33.5-44,58c-7.2-1.7-14.6-2.8-22.1-2.8c-17.4,0-34.6,4.7-49.6,13.6c-21.8,13-37.4,33.5-44,58
		c-7.2-1.7-14.6-2.8-22.1-2.8c-17.4,0-34.6,4.7-49.6,13.6c-22.2,13.2-38,34.3-44.4,59.4c-6.4,25.1-2.6,51.1,10.6,73.3
		c12.5,21.1,32.7,36.3,55.8,43.2c-4.9,23-1.6,47.8,11.3,69.6c17.3,29.1,49.1,47.3,83,47.4c9.9,0,19.6-1.6,28.9-4.5
		c1.8,11.9,5.8,23.7,12.4,34.7c17.3,29.1,49.1,47.3,83,47.4c17.4,0,34.6-4.7,49.6-13.6c21.8-13,37.3-33.5,43.9-58
		c7.2,1.7,14.6,2.8,22.1,2.8c17.5,0,34.6-4.7,49.6-13.6c22.3-13.2,38-34.3,44.4-59.3C508.1,358.8,504.3,332.8,491.1,310.5"/>
	<g>
		<g>
			<path fill="#FFFFFF" d="M191,141h3.7l4.9,13l4.8-13h3.7v15.7h-2.2v-13.6h0l-5.2,13.6h-2.2l-5.2-13.6h0v13.6H191V141z"/>
			<path fill="#FFFFFF" d="M217.1,145c3.5,0,5.8,2.5,5.8,6c0,3.3-2.4,6-5.8,6c-3.5,0-5.8-2.7-5.8-6C211.2,147.5,213.6,145,217.1,145
				z M217.1,155.3c2.5,0,3.6-2.2,3.6-4.3c0-2.2-1.3-4.3-3.6-4.3c-2.3,0-3.6,2.1-3.6,4.3C213.5,153,214.6,155.3,217.1,155.3z"/>
			<path fill="#FFFFFF" d="M225.7,139.9h2.1v7h0c0.7-1.1,1.8-1.8,3.8-1.8c3.3,0,4.9,2.7,4.9,5.8c0,3.1-1.5,6.2-4.9,6.2
				c-2,0-3.3-1-3.9-1.9h0v1.6h-2V139.9z M231.2,146.7c-2.3,0-3.4,2.2-3.4,4.3c0,1.9,1,4.3,3.4,4.3c2.3,0,3.2-2.5,3.2-4.3
				C234.4,148.9,233.5,146.7,231.2,146.7z"/>
			<path fill="#FFFFFF" d="M242,142.7h-2.4v-2.4h2.4V142.7z M239.7,145.3h2.1v11.5h-2.1V145.3z"/>
			<path fill="#FFFFFF" d="M246,139.9h2.1v16.8H246V139.9z"/>
			<path fill="#FFFFFF" d="M252.5,146.1c1.1-0.6,2.3-1.1,3.8-1.1c3.3,0,4.6,1.6,4.6,4.7v4.7c0,1.3,0,1.9,0.1,2.2h-2v-1.5h0
				c-0.5,0.7-1.6,1.8-3.5,1.8c-2.5,0-4.2-1.1-4.2-3.6c0-2.9,3.1-3.8,5.3-3.8c0.8,0,1.4,0,2.2,0c0-2-0.7-3-2.8-3
				c-1.2,0-2.5,0.4-3.3,1.2L252.5,146.1z M258.8,151.3c-0.4,0-0.9,0-1.3,0c-1.1,0-4,0.2-4,2.2c0,1.2,1.2,1.9,2.1,1.9
				c2.1,0,3.2-1.3,3.2-3V151.3z"/>
			<path fill="#FFFFFF" d="M264.4,139.9h2.1v7h0c0.7-1.1,1.8-1.8,3.8-1.8c3.3,0,4.9,2.7,4.9,5.8c0,3.1-1.5,6.2-4.9,6.2
				c-2,0-3.3-1-3.9-1.9h0v1.6h-2V139.9z M269.9,146.7c-2.3,0-3.4,2.2-3.4,4.3c0,1.9,1,4.3,3.4,4.3c2.3,0,3.2-2.5,3.2-4.3
				C273.1,148.9,272.2,146.7,269.9,146.7z"/>
			<path fill="#FFFFFF" d="M283.2,145c3.5,0,5.8,2.5,5.8,6c0,3.3-2.4,6-5.8,6c-3.5,0-5.8-2.7-5.8-6C277.4,147.5,279.7,145,283.2,145
				z M283.2,155.3c2.5,0,3.6-2.2,3.6-4.3c0-2.2-1.3-4.3-3.6-4.3c-2.3,0-3.6,2.1-3.6,4.3C279.6,153,280.7,155.3,283.2,155.3z"/>
			<path fill="#FFFFFF" d="M291.9,145.3h2v1.8h0c0.6-1.3,2.2-2.1,3.8-2.1c3,0,4.3,1.8,4.3,4.9v6.8h-2.1v-5.9c0-2.7-0.6-4-2.4-4.1
				c-2.4,0-3.5,1.9-3.5,4.7v5.3h-2.1V145.3z"/>
			<path fill="#FFFFFF" d="M305.6,145.3h2v1.8h0c0.6-1.3,2.2-2.1,3.8-2.1c3,0,4.3,1.8,4.3,4.9v6.8h-2.1v-5.9c0-2.7-0.6-4-2.4-4.1
				c-2.4,0-3.5,1.9-3.5,4.7v5.3h-2.1V145.3z"/>
			<path fill="#FFFFFF" d="M328.1,156.2c-0.8,0.3-1.7,0.7-3.6,0.7c-4.1,0-5.9-2.5-5.9-6.2c0-3.4,2.1-5.8,5.4-5.8
				c3.8,0,5.1,2.8,5.1,6.5h-8.2c0,2.3,1.8,3.8,3.8,3.8c1.4,0,3-0.7,3.5-1.1V156.2z M326.8,149.9c0-1.8-1-3.2-2.9-3.2
				c-2.1,0-2.9,1.7-3.1,3.2H326.8z"/>
			<path fill="#FFFFFF" d="M331.8,145.3h2v1.7h0c0.8-1.3,2-1.9,3.6-1.9c1.3,0,2.7,0.7,3.3,2.2c0.8-1.6,2.5-2.2,3.5-2.2
				c2.9,0,4,1.9,4,4.4v7.3h-2.1v-6.8c0-1.4-0.3-3.2-2-3.2c-2.2,0-3,2.1-3,4.2v5.8H339v-6.8c0-1.4-0.3-3.2-2-3.2c-2.2,0-3,2.1-3,4.2
				v5.8h-2.1V145.3z"/>
			<path fill="#FFFFFF" d="M352.3,146.1c1.1-0.6,2.3-1.1,3.8-1.1c3.3,0,4.6,1.6,4.6,4.7v4.7c0,1.3,0,1.9,0.1,2.2h-2v-1.5h0
				c-0.5,0.7-1.6,1.8-3.5,1.8c-2.5,0-4.2-1.1-4.2-3.6c0-2.9,3.1-3.8,5.3-3.8c0.8,0,1.4,0,2.2,0c0-2-0.7-3-2.8-3
				c-1.2,0-2.5,0.4-3.3,1.2L352.3,146.1z M358.6,151.3c-0.4,0-0.9,0-1.3,0c-1.1,0-4,0.2-4,2.2c0,1.2,1.2,1.9,2.1,1.9
				c2.1,0,3.2-1.3,3.2-3V151.3z"/>
			<path fill="#FFFFFF" d="M364.3,145.3h2v1.8h0c0.6-1.3,2.2-2.1,3.8-2.1c3,0,4.3,1.8,4.3,4.9v6.8h-2.1v-5.9c0-2.7-0.6-4-2.4-4.1
				c-2.4,0-3.5,1.9-3.5,4.7v5.3h-2.1V145.3z"/>
			<path fill="#FFFFFF" d="M388.2,156.2c0,3.5-1.8,5.5-5.9,5.5c-1.2,0-2.3-0.2-4.1-0.8l0.2-2c1.6,0.7,2.6,1,4.1,1
				c2.2,0,3.5-1.5,3.5-3.9v-1.1h0c-0.9,1.2-2.4,1.8-3.8,1.8c-3.3,0-4.9-2.7-4.9-5.6c0-2.9,1.7-6.1,5.1-6.1c2,0,3.1,0.7,3.8,2h0v-1.7
				h2V156.2z M386,151.1c0-2.4-1.1-4.4-3.3-4.4c-2.1,0-3.2,2.3-3.2,4.3c0,2.2,1.2,4,3.2,4S386,153.3,386,151.1z"/>
			<path fill="#FFFFFF" d="M184.1,169.8h7.7v23.3h12v5.7h-19.7V169.8z"/>
			<path fill="#FFFFFF" d="M207.6,169.8h7.7v29h-7.7V169.8z"/>
			<path fill="#FFFFFF" d="M226.1,175.5h-7.2v-5.7h22v5.7h-7.2v23.3h-7.7V175.5z"/>
			<path fill="#FFFFFF" d="M244,169.8h20.5v5.5h-12.7v6h12v5.5h-12v6.6h13.2v5.5H244V169.8z"/>
			<path fill="#FFFFFF" d="M269.8,169.8h9.9l9.8,19.7h0.1l-0.1-19.7h7.1v29h-9.6L276.7,179h-0.1l0.2,19.8h-7.1V169.8z"/>
			<path fill="#FFFFFF" d="M313.8,193.3c5.9-5.1,12.7-10.7,12.7-14.6c0-2.6-1.8-3.7-4.1-3.7c-2.5,0-5.8,1-7.6,2l-0.3-6
				c4.2-1.5,6.9-1.7,8.6-1.7c6.5,0,11.1,2.7,11.1,8.5c0,5.7-6.1,11.4-8.9,13.7l-2.1,1.8h11.5v5.5h-21V193.3z"/>
			<path fill="#FFFFFF" d="M367,198c-4.9,1.2-8.6,1.3-11.2,1.3c-7.7,0-16.7-3.9-16.7-14.9c0-10.9,7.7-15.1,18.3-15.1
				c1.9,0,5.9,0.2,8.8,1.3l-0.6,6.3c-2.4-1.4-5.2-1.9-7.1-1.9c-6.3,0-11.4,2.6-11.4,9.4c0,5.7,4,9.2,9.7,9.2c1,0,2-0.2,2.7-0.5v-5.7
				H355v-5.5h12V198z"/>
			<path fill="#FFFFFF" d="M372.3,169.8h13.4c5.4,0,9.4,2.4,9.4,7.4c0,3.7-1.9,5.7-5.1,6.8v0.1c3.9,0.8,5.9,2.9,5.9,6.4
				c0,6.9-6.1,8.4-11.3,8.4h-12.2V169.8z M380.1,181.3h2.2c2.5,0,5.2-0.6,5.2-3.1c0-2.7-2.5-2.9-5.1-2.9h-2.2V181.3z M380.1,193.3
				h2.3c2.8,0,5.8-0.4,5.8-3.4c0-3.2-3-3.5-5.7-3.5h-2.4V193.3z"/>
		</g>
	</g>
	<g>
		<g>
			<path fill="#FFFFFF" d="M116.5,348.3h1.7l-4.7,14.3h-1.7L116.5,348.3z"/>
			<path fill="#FFFFFF" d="M119.3,352.3h1.7v1.5h0c0.7-1.2,1.7-1.7,3.2-1.7c1.2,0,2.3,0.6,2.9,2c0.7-1.4,2.2-2,3.1-2
				c2.6,0,3.5,1.7,3.5,3.9v6.5h-1.9v-6c0-1.2-0.3-2.8-1.8-2.8c-1.9,0-2.7,1.9-2.7,3.7v5.1h-1.9v-6c0-1.2-0.3-2.8-1.8-2.8
				c-1.9,0-2.7,1.9-2.7,3.7v5.1h-1.9V352.3z"/>
			<path fill="#FFFFFF" d="M137.4,353c0.9-0.6,2-0.9,3.3-0.9c2.9,0,4.1,1.4,4.1,4.2v4.2c0,1.1,0,1.7,0.1,2h-1.7V361h0
				c-0.4,0.6-1.4,1.5-3.1,1.5c-2.2,0-3.7-0.9-3.7-3.1c0-2.5,2.8-3.3,4.7-3.3c0.7,0,1.2,0,2,0c0-1.7-0.6-2.6-2.5-2.6
				c-1,0-2.2,0.4-2.9,1L137.4,353z M142.9,357.5c-0.4,0-0.8,0-1.2,0c-1,0-3.5,0.2-3.5,1.9c0,1.1,1,1.6,1.9,1.6
				c1.8,0,2.8-1.1,2.8-2.7V357.5z M142.9,349.2c0,1.1-0.9,2-2,2s-2-0.9-2-2c0-1.1,0.9-2,2-2C141.9,347.2,142.9,348.1,142.9,349.2z
				 M139.6,349.2c0,0.7,0.6,1.2,1.2,1.2c0.6,0,1.2-0.6,1.2-1.2c0-0.7-0.6-1.2-1.2-1.2C140.2,348,139.6,348.5,139.6,349.2z"/>
			<path fill="#FFFFFF" d="M147.9,352.3h1.8v1.6h0c0.6-1.1,1.9-1.8,3.3-1.8c2.6,0,3.8,1.6,3.8,4.3v6H155v-5.2c0-2.4-0.5-3.5-2.1-3.6
				c-2.1,0-3.1,1.7-3.1,4.2v4.7h-1.9V352.3z"/>
			<path fill="#FFFFFF" d="M167.8,350h-2.1v-2.1h2.1V350z M165.8,352.3h1.9v10.1h-1.9V352.3z"/>
			<path fill="#FFFFFF" d="M181.8,359.2h-6.4v-1.6l5.6-9h2.8v9h1.7v1.6h-1.7v3.1h-2V359.2z M181.8,350.2L181.8,350.2l-4.4,7.4h4.4
				V350.2z"/>
			<path fill="#FFFFFF" d="M193,352.3h1.7v1.5h0c0.7-1.2,1.7-1.7,3.2-1.7c1.2,0,2.3,0.6,2.9,2c0.7-1.4,2.2-2,3.1-2
				c2.6,0,3.5,1.7,3.5,3.9v6.5h-1.9v-6c0-1.2-0.3-2.8-1.8-2.8c-1.9,0-2.7,1.9-2.7,3.7v5.1h-1.9v-6c0-1.2-0.3-2.8-1.8-2.8
				c-1.9,0-2.7,1.9-2.7,3.7v5.1H193V352.3z"/>
			<path fill="#FFFFFF" d="M211.1,353c0.9-0.6,2-0.9,3.3-0.9c2.9,0,4.1,1.4,4.1,4.2v4.2c0,1.1,0,1.7,0.1,2h-1.7V361h0
				c-0.4,0.6-1.4,1.5-3.1,1.5c-2.2,0-3.7-0.9-3.7-3.1c0-2.5,2.8-3.3,4.7-3.3c0.7,0,1.2,0,2,0c0-1.7-0.6-2.6-2.5-2.6
				c-1,0-2.2,0.4-2.9,1L211.1,353z M216.7,357.5c-0.4,0-0.8,0-1.2,0c-1,0-3.5,0.2-3.5,1.9c0,1.1,1,1.6,1.9,1.6
				c1.8,0,2.8-1.1,2.8-2.7V357.5z M216.6,349.2c0,1.1-0.9,2-2,2s-2-0.9-2-2c0-1.1,0.9-2,2-2C215.7,347.2,216.6,348.1,216.6,349.2z
				 M213.4,349.2c0,0.7,0.6,1.2,1.2,1.2c0.6,0,1.2-0.6,1.2-1.2c0-0.7-0.6-1.2-1.2-1.2C213.9,348,213.4,348.5,213.4,349.2z"/>
			<path fill="#FFFFFF" d="M221.7,352.3h1.8v1.6h0c0.6-1.1,1.9-1.8,3.3-1.8c2.6,0,3.8,1.6,3.8,4.3v6h-1.9v-5.2
				c0-2.4-0.5-3.5-2.1-3.6c-2.1,0-3.1,1.7-3.1,4.2v4.7h-1.9V352.3z"/>
			<path fill="#FFFFFF" d="M234.2,353c0.9-0.6,2-0.9,3.3-0.9c2.9,0,4.1,1.4,4.1,4.2v4.2c0,1.1,0,1.7,0.1,2H240V361h0
				c-0.4,0.6-1.4,1.5-3.1,1.5c-2.2,0-3.7-0.9-3.7-3.1c0-2.5,2.8-3.3,4.7-3.3c0.7,0,1.2,0,2,0c0-1.7-0.6-2.6-2.5-2.6
				c-1,0-2.2,0.4-2.9,1L234.2,353z M239.8,357.5c-0.4,0-0.8,0-1.2,0c-1,0-3.5,0.2-3.5,1.9c0,1.1,1,1.6,1.9,1.6
				c1.8,0,2.8-1.1,2.8-2.7V357.5z"/>
			<path fill="#FFFFFF" d="M251.9,360.9L251.9,360.9c-0.5,0.8-1.7,1.7-3.5,1.7c-3,0-4.3-2.7-4.3-5.5c0-2.7,1.4-5.1,4.4-5.1
				c1.8,0,2.8,0.7,3.3,1.6h0v-6.1h1.9v14.8h-1.8V360.9z M248.9,361.1c2.1,0,3-2.1,3-3.8c0-1.9-1-3.8-3-3.8c-2,0-2.8,1.9-2.8,3.7
				C246,358.8,246.9,361.1,248.9,361.1z"/>
			<path fill="#FFFFFF" d="M264.6,361.9c-0.7,0.3-1.5,0.7-3.2,0.7c-3.6,0-5.2-2.2-5.2-5.5c0-3,1.9-5.1,4.7-5.1
				c3.4,0,4.5,2.5,4.5,5.7h-7.2c0,2,1.6,3.4,3.3,3.4c1.2,0,2.7-0.6,3.1-1V361.9z M263.4,356.3c0-1.5-0.9-2.8-2.5-2.8
				c-1.8,0-2.6,1.5-2.7,2.8H263.4z"/>
			<path fill="#FFFFFF" d="M267.9,352.3h1.7v1.6h0c0.5-1,1.6-1.8,2.6-1.8c0.6,0,0.8,0.1,1.2,0.1v1.7c-0.3-0.1-0.7-0.2-1-0.2
				c-1.7,0-2.8,1.6-2.8,4.1v4.6h-1.9V352.3z"/>
			<path fill="#FFFFFF" d="M273.8,360.1h2.2l-1.7,4.8h-1.8L273.8,360.1z"/>
			<path fill="#FFFFFF" d="M291.9,360.9L291.9,360.9c-0.5,0.8-1.7,1.7-3.5,1.7c-3,0-4.3-2.7-4.3-5.5c0-2.7,1.4-5.1,4.4-5.1
				c1.8,0,2.8,0.7,3.3,1.6h0v-6.1h1.9v14.8h-1.8V360.9z M288.9,361.1c2.1,0,3-2.1,3-3.8c0-1.9-1-3.8-3-3.8c-2,0-2.8,1.9-2.8,3.7
				C286,358.8,286.9,361.1,288.9,361.1z"/>
			<path fill="#FFFFFF" d="M297.3,353c0.9-0.6,2-0.9,3.3-0.9c2.9,0,4.1,1.4,4.1,4.2v4.2c0,1.1,0,1.7,0.1,2H303V361h0
				c-0.4,0.6-1.4,1.5-3.1,1.5c-2.2,0-3.7-0.9-3.7-3.1c0-2.5,2.8-3.3,4.7-3.3c0.7,0,1.2,0,2,0c0-1.7-0.6-2.6-2.5-2.6
				c-1,0-2.2,0.4-2.9,1L297.3,353z M302.9,357.5c-0.4,0-0.8,0-1.2,0c-1,0-3.5,0.2-3.5,1.9c0,1.1,1,1.6,1.9,1.6
				c1.8,0,2.8-1.1,2.8-2.7V357.5z M298.2,348.7h1.9v2h-1.9V348.7z M301.5,348.7h1.9v2h-1.9V348.7z"/>
			<path fill="#FFFFFF" d="M307.9,352.3h1.7v1.6h0c0.5-1,1.6-1.8,2.6-1.8c0.6,0,0.8,0.1,1.2,0.1v1.7c-0.3-0.1-0.7-0.2-1-0.2
				c-1.7,0-2.8,1.6-2.8,4.1v4.6h-1.9V352.3z"/>
			<path fill="#FFFFFF" d="M323.3,361.9c-0.7,0.3-1.5,0.7-3.2,0.7c-3.6,0-5.2-2.2-5.2-5.5c0-3,1.9-5.1,4.7-5.1
				c3.4,0,4.5,2.5,4.5,5.7h-7.2c0,2,1.6,3.4,3.3,3.4c1.2,0,2.7-0.6,3.1-1V361.9z M322.1,356.3c0-1.5-0.9-2.8-2.5-2.8
				c-1.8,0-2.6,1.5-2.7,2.8H322.1z"/>
			<path fill="#FFFFFF" d="M327.8,353.8h-2.4v-1.5h2.4v-0.9c0-2.5,0.6-4.1,3.4-4.1c0.5,0,0.9,0.1,1.2,0.1l-0.1,1.5
				c-0.2-0.1-0.6-0.1-0.9-0.1c-1.6,0-1.8,1-1.8,2.4v1.1h2.7v1.5h-2.7v8.6h-1.9V353.8z"/>
			<path fill="#FFFFFF" d="M339.6,353.8H337v5.5c0,1.2,0.7,1.8,1.6,1.8c0.6,0,1-0.2,1.3-0.4v1.6c-0.4,0.1-1,0.3-1.6,0.3
				c-1.9,0-3.1-0.9-3.1-2.9v-5.9h-2.3v-1.5h2.3v-2.3l1.9-0.6v2.9h2.7V353.8z"/>
			<path fill="#FFFFFF" d="M349.7,361.9c-0.7,0.3-1.5,0.7-3.2,0.7c-3.6,0-5.2-2.2-5.2-5.5c0-3,1.9-5.1,4.7-5.1
				c3.4,0,4.5,2.5,4.5,5.7h-7.2c0,2,1.6,3.4,3.3,3.4c1.2,0,2.7-0.6,3.1-1V361.9z M348.5,356.3c0-1.5-0.9-2.8-2.5-2.8
				c-1.8,0-2.6,1.5-2.7,2.8H348.5z"/>
			<path fill="#FFFFFF" d="M353,352.3h1.7v1.6h0c0.5-1,1.6-1.8,2.6-1.8c0.6,0,0.8,0.1,1.2,0.1v1.7c-0.3-0.1-0.7-0.2-1-0.2
				c-1.7,0-2.8,1.6-2.8,4.1v4.6H353V352.3z"/>
			<path fill="#FFFFFF" d="M366.4,360.4c0.7,0.4,1.6,0.6,2.5,0.6c2.6,0,3.8-2.4,3.9-5l0,0c-0.9,0.9-1.9,1.3-3,1.3
				c-2.7,0-4.2-1.9-4.2-4.4c0-2.8,1.9-4.6,4.4-4.6c3.9,0,4.7,3.5,4.7,6.6c0,3.7-1.2,7.7-5.6,7.7c-0.9,0-2.4-0.2-2.8-0.4L366.4,360.4
				z M369.9,355.6c1.6,0,2.6-1.2,2.6-2.8c0-1.3-0.8-2.9-2.4-2.9c-1.7,0-2.5,1.4-2.5,2.9C367.6,354.1,368.3,355.6,369.9,355.6z"/>
			<path fill="#FFFFFF" d="M377.4,360.4c0.7,0.4,1.6,0.6,2.5,0.6c2.6,0,3.8-2.4,3.9-5l0,0c-0.9,0.9-1.9,1.3-3,1.3
				c-2.7,0-4.2-1.9-4.2-4.4c0-2.8,1.9-4.6,4.4-4.6c3.9,0,4.7,3.5,4.7,6.6c0,3.7-1.2,7.7-5.6,7.7c-0.9,0-2.4-0.2-2.8-0.4L377.4,360.4
				z M380.9,355.6c1.6,0,2.6-1.2,2.6-2.8c0-1.3-0.8-2.9-2.4-2.9c-1.7,0-2.5,1.4-2.5,2.9C378.6,354.1,379.3,355.6,380.9,355.6z"/>
			<path fill="#FFFFFF" d="M388.2,347.5h1.9v8.8l4.1-4.1h2.5l-4.7,4.5l5.3,5.6h-2.7l-4.5-5.2v5.2h-1.9V347.5z"/>
			<path fill="#FFFFFF" d="M399.2,352.3h1.7v1.6h0c0.5-1,1.6-1.8,2.6-1.8c0.6,0,0.8,0.1,1.2,0.1v1.7c-0.3-0.1-0.7-0.2-1-0.2
				c-1.7,0-2.8,1.6-2.8,4.1v4.6h-1.9V352.3z"/>
			<path fill="#FFFFFF" d="M409.6,348.3h1.7l-4.7,14.3h-1.7L409.6,348.3z"/>
			<path fill="#FFFFFF" d="M412.4,352.3h1.7v1.5h0c0.7-1.2,1.7-1.7,3.2-1.7c1.2,0,2.3,0.6,2.9,2c0.7-1.4,2.2-2,3.1-2
				c2.6,0,3.5,1.7,3.5,3.9v6.5H425v-6c0-1.2-0.3-2.8-1.8-2.8c-1.9,0-2.7,1.9-2.7,3.7v5.1h-1.9v-6c0-1.2-0.3-2.8-1.8-2.8
				c-1.9,0-2.7,1.9-2.7,3.7v5.1h-1.9V352.3z"/>
			<path fill="#FFFFFF" d="M430.5,353c0.9-0.6,2-0.9,3.3-0.9c2.9,0,4.1,1.4,4.1,4.2v4.2c0,1.1,0,1.7,0.1,2h-1.7V361h0
				c-0.4,0.6-1.4,1.5-3.1,1.5c-2.2,0-3.7-0.9-3.7-3.1c0-2.5,2.8-3.3,4.7-3.3c0.7,0,1.2,0,2,0c0-1.7-0.6-2.6-2.5-2.6
				c-1,0-2.2,0.4-2.9,1L430.5,353z M436,357.5c-0.4,0-0.8,0-1.2,0c-1,0-3.5,0.2-3.5,1.9c0,1.1,1,1.6,1.9,1.6c1.8,0,2.8-1.1,2.8-2.7
				V357.5z M435.9,349.2c0,1.1-0.9,2-2,2s-2-0.9-2-2c0-1.1,0.9-2,2-2C435,347.2,435.9,348.1,435.9,349.2z M432.7,349.2
				c0,0.7,0.6,1.2,1.2,1.2c0.6,0,1.2-0.6,1.2-1.2c0-0.7-0.6-1.2-1.2-1.2C433.3,348,432.7,348.5,432.7,349.2z"/>
			<path fill="#FFFFFF" d="M441,352.3h1.8v1.6h0c0.6-1.1,1.9-1.8,3.3-1.8c2.6,0,3.8,1.6,3.8,4.3v6h-1.9v-5.2c0-2.4-0.5-3.5-2.1-3.6
				c-2.1,0-3.1,1.7-3.1,4.2v4.7H441V352.3z"/>
		</g>
	</g>
	<g>
		<path fill="#FAD143" d="M160.5,308.6h-48.8v-23.1l43.8-65.2h32.2v68.6h15.5v19.7h-15.5v20.8h-27.2V308.6z M162.4,242.8h-0.3
			l-29.7,46.1h30V242.8z"/>
		<path fill="#FAD143" d="M214.4,304.8c4.7,3.1,12.3,5.8,23,5.8c19.4,0,25.3-12.8,25.5-32h-0.3c-5.2,7.3-12.7,11.1-23.6,11.1
			c-20,0-32.7-14.8-32.7-34.4c0-20.2,16.9-36.9,40.9-36.9c31.1,0,41.9,24.4,41.9,51.7c0,33.4-12,61.1-48.1,61.1
			c-11.1,0-20-1.7-28.3-5L214.4,304.8z M247.4,237.2c-9.1,0-13.9,7-13.9,15.5c0,9.1,3.8,17.3,13.9,17.3c9.5,0,14.2-7.7,14.2-16.1
			C261.6,245,256.8,237.2,247.4,237.2z"/>
		<path fill="#FAD143" d="M304.3,212.2h28.1v70h0.3l23.4-34.2H387l-28.3,37.4l30.6,44.1h-34.1l-22.5-40.3h-0.3v40.3h-28.1V212.2z"/>
		<path fill="#FAD143" d="M448.5,270.5c-3.1-0.9-6.3-0.9-9.5-0.9c-13.1,0-20.5,9.5-20.5,25.5v34.4h-28.1v-81.4H416v15h0.3
			c4.8-10.3,11.9-16.9,24.1-16.9c3.3,0,6.7,0.5,9.5,0.9L448.5,270.5z"/>
	</g>
</g>
</svg>
