<?xml version="1.0" encoding="utf-8"?>
<!-- Generator: Adobe Illustrator 22.0.1, SVG Export Plug-In . SVG Version: 6.00 Build 0)  -->
<svg version="1.1" id="Lager_1" xmlns="http://www.w3.org/2000/svg" xmlns:xlink="http://www.w3.org/1999/xlink" x="0px" y="0px"
	 viewBox="0 0 177.4 183.1" enable-background="new 0 0 177.4 183.1" xml:space="preserve">
<g>
	<g>
		<path fill="#FAD143" d="M171.3,107.2c-2.2-3.7-5.2-6.9-8.5-9.4c4.4-4.3,7.7-9.7,9.2-15.7c2.2-8.7,0.9-17.7-3.7-25.4
			c-4.4-7.3-11.4-12.5-19.5-14.9c1.7-8,0.6-16.6-4-24.1c-6.1-10.1-17.2-16.3-29-16.3c-6.1,0-12.1,1.6-17.3,4.7
			c-7.7,4.5-13.1,11.6-15.4,20.1c-2.5-0.6-5.1-0.9-7.7-0.9c-6.1,0-12.1,1.6-17.3,4.7c-7.6,4.5-13,11.6-15.3,20.1
			c-2.5-0.6-5.1-0.9-7.7-0.9c-6.1,0-12.1,1.6-17.3,4.7C10,58.4,4.5,65.8,2.3,74.4S1.4,92.1,6.1,99.8c4.4,7.3,11.4,12.6,19.5,14.9
			c-1.7,8-0.6,16.5,4,24.1c6.1,10.1,17.2,16.3,29,16.3c3.5,0,6.8-0.6,10.1-1.6c0.7,4.1,2.1,8.2,4.4,12c6.1,10.1,17.2,16.3,29,16.3
			c6.1,0,12.1-1.6,17.3-4.7c7.6-4.5,13-11.6,15.3-20.1c2.5,0.6,5.1,0.9,7.7,0.9c6.1,0,12.1-1.6,17.3-4.7
			c7.8-4.6,13.2-11.9,15.5-20.6C177.3,123.9,175.9,114.9,171.3,107.2"/>
		<g>
			<path fill="#A8163F" d="M35.6,81.1h6.8v-6.8h4.5v6.8h6.8v4.5h-6.8v6.8h-4.5v-6.8h-6.8V81.1z"/>
			<path fill="#A8163F" d="M61.4,90.7c5.1-4.4,11-9.2,11-12.6c0-2.2-1.5-3.2-3.5-3.2c-2.2,0-5,0.8-6.6,1.7L62,71.5
				c3.6-1.3,6-1.5,7.4-1.5c5.6,0,9.6,2.4,9.6,7.3c0,4.9-5.3,9.8-7.6,11.8l-1.8,1.5h9.9v4.7H61.4V90.7z"/>
			<path fill="#A8163F" d="M84,70.5h16.3V75H89.7v4.2c0.9-0.1,1.5-0.1,2-0.1c5.1,0,9.6,2.2,9.6,7.7c0,7-5.4,9.2-11,9.2
				c-2.5,0-4.7-0.4-6.7-0.9l0.1-5.4c1.9,0.9,4,1.4,6.1,1.4c2.4,0,5.1-0.8,5.1-4c0-2.8-2.9-3.7-5.6-3.7c-1.8,0-3.7,0.1-5.4,0.6
				L84,70.5z"/>
			<path fill="#A8163F" d="M127.8,94.8c-4.2,1.1-7.4,1.1-9.7,1.1c-6.7,0-14.4-3.4-14.4-12.8c0-9.4,6.6-13,15.8-13
				c1.6,0,5.1,0.2,7.6,1.1l-0.5,5.4c-2.1-1.2-4.5-1.6-6.1-1.6c-5.4,0-9.9,2.3-9.9,8.1c0,4.9,3.5,7.9,8.4,7.9c0.9,0,1.8-0.1,2.4-0.4
				v-4.9h-3.9v-4.7h10.4V94.8z"/>
			<path fill="#A8163F" d="M131.7,70.5h11.5c4.7,0,8.1,2,8.1,6.3c0,3.2-1.6,4.9-4.4,5.8v0.1c3.3,0.7,5.1,2.5,5.1,5.5
				c0,6-5.3,7.2-9.7,7.2h-10.5V70.5z M138.4,80.4h1.9c2.2,0,4.4-0.5,4.4-2.7c0-2.3-2.2-2.5-4.4-2.5h-1.9V80.4z M138.4,90.8h2
				c2.4,0,5-0.4,5-2.9c0-2.7-2.6-3-4.9-3h-2V90.8z"/>
		</g>
	</g>
	<g>
		<path fill="#A8163F" d="M48.9,111.6c0.2,1.4,1.3,2,3,2c1,0,2.1-0.2,3.1-0.8v2.5c-1.1,0.5-2.4,0.7-3.8,0.7c-3.4,0-6-2-6-5.4
			c0-3.4,2.3-5.4,5.5-5.4c3.8,0,5.2,2.7,5.2,5.8v0.7H48.9z M52.8,109.6c0-1.2-0.6-2.1-2-2.1c-1.3,0-1.9,1-2,2.1H52.8z"/>
		<path fill="#A8163F" d="M60.4,110.5l-3.2-5h4.2l1.5,3.1l1.6-3.1h3.9l-3.2,5l3.4,5.3h-4.3l-1.7-3.2l-1.7,3.2h-4L60.4,110.5z"/>
		<path fill="#A8163F" d="M69,105.4H71v-2.3l3.5-1.1v3.4H77v2.5h-2.5v3.8c0,1.2,0.3,1.9,1.4,1.9c0.4,0,0.7-0.1,1.1-0.1l0.1,2.3
			c-0.7,0.1-1.3,0.2-2.2,0.2c-3.2,0-3.9-1.4-3.9-3.8v-4.2h-2V105.4z"/>
		<path fill="#A8163F" d="M85.9,108.3c-0.4-0.1-0.8-0.1-1.2-0.1c-1.7,0-2.6,1.2-2.6,3.2v4.3h-3.5v-10.3h3.2v1.9h0
			c0.6-1.3,1.5-2.1,3-2.1c0.4,0,0.8,0.1,1.2,0.1L85.9,108.3z"/>
		<path fill="#A8163F" d="M93.7,115.7c0-0.6-0.1-1.1-0.1-1.6h0c-0.8,1.3-1.8,1.9-3.3,1.9c-2,0-3.8-1-3.8-3.2c0-3.1,3.4-3.5,5.3-3.5
			c0.6,0,1.2,0.1,1.7,0.1c0-1.4-1.1-1.8-2.3-1.8c-1.1,0-2.3,0.2-3.3,0.8l-0.1-2.4c1.3-0.5,2.6-0.7,4.1-0.7c2.6,0,4.9,1.1,4.9,4.3
			v3.8c0,0.8,0,1.6,0.2,2.4H93.7z M91.3,113.6c1.3,0,2.2-1.2,2.2-2.4c-0.5,0-1-0.1-1.5-0.1c-1.2,0-2.1,0.4-2.1,1.4
			C89.8,113.2,90.5,113.6,91.3,113.6z"/>
		<path fill="#A8163F" d="M105.2,112.9c0.8,0.4,2.1,0.7,3.3,0.7c0.7,0,1.4-0.1,1.4-0.8c0-1.7-5-0.5-5-4.2c0-2.4,2.3-3.3,4.4-3.3
			c1.2,0,2.5,0.1,3.6,0.6l-0.3,2.5c-0.8-0.5-1.9-0.7-2.8-0.7c-0.8,0-1.6,0.1-1.6,0.7c0,1.6,5.3,0.3,5.3,4.2c0,2.7-2.5,3.4-4.8,3.4
			c-1.6,0-2.7-0.2-3.7-0.5L105.2,112.9z"/>
		<path fill="#A8163F" d="M126.2,115.7H123v-1.9h0c-0.7,1.5-2.1,2.1-3.7,2.1c-2.8,0-3.9-2-3.9-4.1v-6.4h3.5v5c0,1.9,0.7,2.6,1.6,2.6
			c1.5,0,2.2-1,2.2-3.2v-4.3h3.5V115.7z"/>
		<path fill="#A8163F" d="M135.8,108.3c-0.4-0.1-0.8-0.1-1.2-0.1c-1.7,0-2.6,1.2-2.6,3.2v4.3h-3.5v-10.3h3.2v1.9h0
			c0.6-1.3,1.5-2.1,3-2.1c0.4,0,0.8,0.1,1.2,0.1L135.8,108.3z"/>
		<path fill="#A8163F" d="M138.4,107.9h-2.1v-2.5h2.1v-0.6c0-3.1,1.4-4.1,4.3-4.1c0.8,0,1.4,0.1,1.8,0.2l-0.2,2.4
			c-0.3-0.1-0.6-0.2-1.1-0.2c-0.9,0-1.3,0.6-1.3,1.6v0.6h2.5v2.5H142v7.8h-3.5V107.9z"/>
	</g>
</g>
</svg>
