<?xml version="1.0" encoding="utf-8"?>
<!-- Generator: Adobe Illustrator 19.2.1, SVG Export Plug-In . SVG Version: 6.00 Build 0)  -->
<svg version="1.1" id="Layer_1" xmlns="http://www.w3.org/2000/svg" xmlns:xlink="http://www.w3.org/1999/xlink" x="0px" y="0px"
	 viewBox="0 0 148.8 60.3" style="enable-background:new 0 0 148.8 60.3;" xml:space="preserve">
<style type="text/css">
	.st0{clip-path:url(#SVGID_2_);fill:#FFFFFF;}
	.st1{clip-path:url(#SVGID_4_);fill:#FFFFFF;}
	.st2{clip-path:url(#SVGID_6_);fill:#FFFFFF;}
	.st3{clip-path:url(#SVGID_8_);fill:#FFFFFF;}
	.st4{clip-path:url(#SVGID_10_);fill:#FFFFFF;}
	.st5{clip-path:url(#SVGID_12_);fill:#FFFFFF;}
</style>
<g>
	<defs>
		<rect id="SVGID_1_" width="148.8" height="60.3"/>
	</defs>
	<clipPath id="SVGID_2_">
		<use xlink:href="#SVGID_1_"  style="overflow:visible;"/>
	</clipPath>
	<path class="st0" d="M52,16.7c0.1-0.1,0.2-0.1,0.3-0.1c0.1,0,0.1,0.1,0.2,0.1c0,0.1,0,0.1,0,0.2c0,0.1-0.1,0.2-0.2,0.2
		c-0.3,0.2-0.6,0.4-0.8,0.6c-0.3,0.2-0.6,0.4-0.8,0.7c-0.3,0.2-0.5,0.5-0.6,0.8c-0.2,0.3-0.3,0.6-0.4,0.9c0,0.2,0,0.3,0.1,0.5
		c0.1,0.1,0.2,0.2,0.3,0.2c0.1,0,0.3,0.1,0.5,0c0.2,0,0.4-0.1,0.5-0.1c0.2-0.1,0.3-0.1,0.5-0.2c0.2-0.1,0.3-0.2,0.5-0.3
		c0.1-0.1,0.2-0.1,0.3-0.2c0.1-0.1,0.2-0.1,0.3-0.1c0.3,0,0.5,0.1,0.5,0.4c-0.2,0.3-0.4,0.6-0.6,0.9c-0.2,0.3-0.4,0.7-0.7,1
		c-0.2,0.4-0.4,0.7-0.6,1.1c-0.2,0.4-0.3,0.7-0.3,1c0,0.2,0,0.4-0.1,0.6c0,0.2,0,0.4,0.1,0.6c0,0.2,0.1,0.3,0.2,0.5
		c0.1,0.2,0.2,0.3,0.3,0.4c0.2,0.2,0.4,0.3,0.7,0.3c0.2,0,0.5,0,0.7-0.1c0.2-0.1,0.5-0.2,0.7-0.4c0.2-0.2,0.5-0.4,0.7-0.6
		c0.2-0.2,0.4-0.4,0.6-0.7c0.2-0.2,0.3-0.4,0.5-0.6c0.1-0.1,0.1-0.1,0.2-0.1c0.1,0,0.1,0,0.2,0c0,0,0.1,0.1,0.1,0.1
		c0,0.1,0,0.1-0.1,0.2c-0.2,0.3-0.5,0.7-0.7,1c-0.3,0.3-0.6,0.6-0.9,0.9c-0.3,0.3-0.6,0.5-0.9,0.7c-0.3,0.2-0.6,0.3-1,0.4
		c-0.3,0-0.6,0-1-0.2c-0.3-0.2-0.6-0.4-0.9-0.9c-0.1-0.2-0.2-0.4-0.3-0.6C50,25.8,50,25.6,50,25.4c0-0.6,0-1.2,0.2-1.8
		c0.2-0.6,0.5-1.2,0.8-1.8c0,0,0,0,0,0c0,0,0,0,0,0c-0.2,0.1-0.5,0.1-0.7,0.1c-0.2,0-0.5,0-0.7-0.1c-0.4-0.1-0.7-0.3-0.8-0.6
		c-0.1-0.3-0.1-0.6,0-1c0.1-0.4,0.3-0.7,0.5-1.1c0.3-0.4,0.5-0.7,0.8-1c0.3-0.3,0.6-0.5,0.9-0.8C51.3,17.2,51.6,16.9,52,16.7"/>
	<path class="st0" d="M55.8,20.8c0.1,0.1,0.2,0.2,0.2,0.4c0.1,0.1,0.1,0.3,0.2,0.4c0-0.3,0.1-0.6,0.2-1c0.1-0.3,0.2-0.7,0.3-1
		c0.1-0.1,0.1-0.2,0.2-0.3c0.1-0.1,0.2-0.1,0.3-0.1c0.1,0,0.2,0,0.3,0c0.1,0,0.2,0,0.3,0.1c0.1,0,0.1,0.1,0.2,0.2
		c0.1,0.2,0.2,0.5,0.2,0.7c0.1,0.3,0.1,0.5,0.2,0.7c0.1,0.2,0.2,0.5,0.2,0.7c0.1,0.2,0.2,0.5,0.4,0.7c0.1,0,0.2,0,0.3,0
		c0.3-0.2,0.5-0.4,0.8-0.6c0.1-0.1,0.1-0.1,0.2-0.1c0.1,0,0.1,0,0.2,0c0,0,0.1,0.1,0.1,0.2c0,0.1,0,0.1-0.1,0.2
		c-0.2,0.1-0.3,0.3-0.4,0.4c-0.1,0.1-0.3,0.3-0.4,0.4c-0.1,0.1-0.3,0.2-0.5,0.2c-0.2,0-0.4,0-0.6-0.1c-0.2-0.1-0.3-0.2-0.4-0.3
		c-0.1-0.2-0.2-0.3-0.3-0.5c-0.1-0.2-0.2-0.4-0.2-0.6c-0.1-0.2-0.1-0.4-0.2-0.5c-0.1,0.3-0.2,0.7-0.2,1c0,0.3-0.1,0.7-0.1,1
		c0,0.2,0,0.4,0,0.6c0,0.2,0,0.4-0.1,0.6c-0.1,0.2-0.3,0.3-0.4,0.3c-0.2,0-0.3,0-0.4-0.2c-0.1-0.2-0.1-0.3-0.2-0.5
		c-0.1-0.2-0.1-0.4-0.1-0.6s-0.1-0.4-0.1-0.6c0-0.2,0-0.4-0.1-0.6c0,0,0,0,0,0c0-0.1-0.1-0.3-0.1-0.4c-0.1-0.1-0.1-0.3-0.2-0.4
		c0-0.1,0-0.1,0-0.2c0-0.1,0.1-0.1,0.1-0.1c0.1,0,0.1,0,0.2,0C55.6,20.7,55.7,20.7,55.8,20.8C55.7,20.8,55.7,20.8,55.8,20.8
		C55.8,20.8,55.8,20.8,55.8,20.8"/>
	<path class="st0" d="M61.3,18.7c-0.1,0.1-0.2,0.3-0.3,0.4c-0.1,0.1-0.2,0.2-0.4,0.3c0,0.1,0,0.1,0,0.2c0,0.1,0,0.1,0,0.2
		c0,0.1,0,0.1,0,0.2c0.1-0.3,0.2-0.5,0.3-0.7c0.1-0.2,0.3-0.5,0.5-0.7c0.1-0.1,0.2-0.2,0.4-0.3c0.2-0.1,0.3-0.1,0.5-0.1
		c0.2,0,0.3,0,0.4,0.1c0.1,0.1,0.2,0.2,0.3,0.3c0.1,0.3,0.1,0.6,0,0.9c-0.1,0.3-0.2,0.6-0.3,0.9c-0.1,0.2-0.2,0.3-0.3,0.5
		c0.2-0.1,0.3-0.2,0.5-0.4c0.2-0.1,0.4-0.3,0.6-0.4c0.2-0.1,0.4-0.2,0.5-0.3c0.2-0.1,0.3-0.2,0.3-0.2c0.2-0.1,0.3,0,0.4,0.1
		c0.1,0.1,0,0.2-0.1,0.3c-0.2,0.1-0.4,0.2-0.6,0.4c-0.3,0.2-0.5,0.4-0.8,0.6c-0.3,0.2-0.6,0.4-0.8,0.5c-0.3,0.2-0.5,0.2-0.6,0.3
		c-0.1,0-0.2,0-0.3-0.1c-0.1,0-0.1-0.1-0.1-0.2c0-0.2,0.1-0.4,0.2-0.6c0.1-0.2,0.2-0.5,0.3-0.7c0.1-0.2,0.2-0.5,0.2-0.7
		c0.1-0.2,0-0.4-0.1-0.5c-0.1,0-0.1,0.1-0.2,0.1c0,0.1-0.1,0.1-0.1,0.2c-0.2,0.3-0.4,0.7-0.5,1.1c-0.1,0.4-0.1,0.8-0.2,1.1
		c0,0.2,0,0.3,0,0.5c0,0.1,0,0.3-0.1,0.4c-0.1,0.2-0.3,0.2-0.5,0.2c-0.2,0-0.3-0.1-0.4-0.3c-0.3-0.7-0.5-1.4-0.7-2.1
		c-0.2-0.7-0.3-1.5-0.4-2.2c-0.1-0.7-0.1-1.4-0.1-2.1c0-0.7,0.1-1.3,0.3-1.9c0.1-0.3,0.2-0.6,0.4-1c0.2-0.3,0.4-0.6,0.7-0.8
		c0.3-0.2,0.5-0.4,0.9-0.5c0.3-0.1,0.6-0.1,1,0c0.2,0.1,0.5,0.2,0.7,0.4c0.2,0.2,0.4,0.4,0.5,0.6c0.1,0.2,0.2,0.4,0.3,0.6
		c0.1,0.2,0.1,0.4,0,0.5c0.1,0.4,0,0.8-0.2,1.2c-0.2,0.4-0.4,0.9-0.7,1.3c-0.3,0.4-0.6,0.9-0.9,1.3C61.8,18,61.5,18.3,61.3,18.7
		 M60.3,15.5c0,0.3,0,0.6,0,0.9c0,0.3,0,0.5,0,0.8c0,0.3,0,0.5,0.1,0.8c0,0.3,0.1,0.6,0.1,0.9c0.1-0.1,0.1-0.2,0.2-0.2
		c0.1-0.1,0.1-0.2,0.2-0.2c0.3-0.4,0.5-0.7,0.8-1.1c0.2-0.4,0.5-0.7,0.7-1.1c0.2-0.4,0.3-0.7,0.5-1.1c0.1-0.4,0.2-0.8,0.2-1.2
		c0-0.1,0-0.3-0.1-0.4c0-0.1-0.1-0.3-0.2-0.4c-0.1-0.1-0.2-0.2-0.3-0.3c-0.1-0.1-0.3-0.1-0.4-0.2c-0.2,0-0.4,0-0.6,0.2
		c-0.2,0.1-0.3,0.3-0.4,0.5c-0.1,0.2-0.2,0.4-0.3,0.6c-0.1,0.2-0.1,0.5-0.2,0.7c0,0.2-0.1,0.4-0.1,0.6
		C60.4,15.3,60.4,15.4,60.3,15.5"/>
	<path class="st0" d="M66.9,16.8c-0.1,0.2-0.1,0.5-0.2,0.7c-0.1,0.2-0.2,0.5-0.3,0.7c-0.1,0.2-0.3,0.4-0.4,0.6
		c-0.2,0.2-0.3,0.3-0.6,0.5c0,0.1,0.1,0.3,0.1,0.4c0.1,0.1,0.1,0.2,0.2,0.3c0.1,0.1,0.2,0.1,0.3,0.1c0.1,0,0.3-0.1,0.4-0.2
		c0.1,0,0.1-0.1,0.2-0.2c0.1-0.1,0.2-0.2,0.3-0.4c0.1-0.1,0.2-0.3,0.3-0.4c0.1-0.2,0.2-0.3,0.2-0.4c0-0.1,0.1-0.1,0.1-0.1
		c0.1,0,0.1,0,0.2,0c0.1,0,0.1,0.1,0.1,0.2c0,0.1,0,0.1,0,0.2c0,0.1-0.1,0.2-0.2,0.4c-0.1,0.2-0.2,0.3-0.3,0.5
		c-0.1,0.2-0.2,0.3-0.4,0.5c-0.1,0.1-0.2,0.2-0.3,0.3c0,0,0,0-0.1,0.1c0,0-0.1,0.1-0.2,0.1c-0.1,0-0.1,0.1-0.2,0.1
		c-0.1,0-0.1,0.1-0.2,0.1c-0.2,0.1-0.4,0.1-0.6,0.1c-0.2,0-0.3-0.1-0.5-0.1c-0.1-0.1-0.3-0.2-0.4-0.3c-0.1-0.1-0.2-0.3-0.3-0.4
		c0-0.1,0-0.1-0.1-0.1c0,0,0-0.1-0.1-0.2c-0.1,0-0.1-0.1-0.1-0.1c0-0.1,0-0.1,0-0.2c0-0.1-0.1-0.2-0.1-0.4c0-0.1,0-0.3,0-0.4
		c0-0.2,0-0.5,0.1-0.8c0-0.3,0.1-0.7,0.2-1c0.1-0.3,0.3-0.6,0.5-0.9c0.2-0.3,0.5-0.4,0.9-0.5c0.2,0,0.4,0,0.5,0.1
		c0.1,0.1,0.2,0.2,0.3,0.4c0.1,0.2,0.1,0.3,0.1,0.5C67,16.5,67,16.7,66.9,16.8 M65.9,16.5c-0.1,0.1-0.2,0.3-0.3,0.4
		c-0.1,0.2-0.1,0.4-0.2,0.6c-0.1,0.2-0.1,0.4-0.1,0.6c0,0.2,0,0.4,0,0.6c0.1-0.1,0.1-0.2,0.2-0.3c0.1-0.1,0.1-0.3,0.2-0.4
		c0-0.1,0.1-0.2,0.1-0.3c0-0.1,0.1-0.2,0.1-0.4c0-0.1,0.1-0.3,0.1-0.4C66,16.7,66,16.6,65.9,16.5"/>
	<path class="st0" d="M70.9,12c0,0.4-0.1,0.8-0.2,1.3c-0.1,0.5-0.3,1-0.4,1.6c-0.2,0.5-0.4,1-0.6,1.5c-0.2,0.5-0.5,0.9-0.8,1.2
		c0,0.1,0.1,0.3,0.1,0.4c0,0.1,0.1,0.2,0.2,0.4c0.1,0.1,0.1,0.2,0.2,0.3c0.1,0.1,0.2,0.1,0.3,0.2c0.5-0.2,0.9-0.4,1.3-0.8
		c0.4-0.3,0.7-0.7,1-1.1c0.1-0.1,0.1-0.1,0.2-0.1c0.1,0,0.1,0,0.2,0c0.1,0,0.1,0.1,0.1,0.1c0,0.1,0,0.1,0,0.2
		c-0.1,0.2-0.3,0.5-0.5,0.7c-0.2,0.2-0.4,0.5-0.6,0.7c-0.2,0.2-0.5,0.4-0.7,0.6c-0.3,0.2-0.5,0.3-0.8,0.3c-0.3,0-0.5,0-0.8-0.1
		c-0.2-0.1-0.5-0.3-0.7-0.7c-0.2-0.3-0.3-0.5-0.4-0.9c-0.1-0.3-0.2-0.6-0.2-0.9c0-0.3-0.1-0.6-0.1-0.9c0-0.4,0-0.7,0-1.1
		c0-0.4,0.1-0.8,0.1-1.2c0.1-0.4,0.2-0.8,0.3-1.2c0.1-0.4,0.3-0.7,0.6-1.1c0.2-0.3,0.5-0.6,0.8-0.8c0.2-0.2,0.5-0.2,0.7-0.2
		c0.2,0,0.4,0.1,0.5,0.2c0.1,0.1,0.2,0.3,0.2,0.5c0,0.2,0.1,0.4,0.1,0.6C70.9,11.7,70.9,11.9,70.9,12 M68.9,13.4
		c-0.2,0.6-0.3,1.2-0.3,1.7c0,0.6,0,1.1,0.1,1.7c0.1-0.2,0.2-0.5,0.3-0.7c0.1-0.2,0.1-0.5,0.2-0.7c0.1-0.2,0.2-0.5,0.2-0.9
		c0.1-0.3,0.2-0.7,0.2-1.1c0.1-0.4,0.1-0.7,0.2-1.1c0-0.3,0-0.7,0-0.9c0,0.1-0.1,0.1-0.1,0.2c0,0.1-0.1,0.1-0.1,0.2
		c-0.2,0.2-0.3,0.5-0.4,0.8C69.1,12.8,69,13.1,68.9,13.4"/>
</g>
<g>
	<defs>
		<rect id="SVGID_3_" x="1.2" y="9.3" width="146.5" height="44.7"/>
	</defs>
	<clipPath id="SVGID_4_">
		<use xlink:href="#SVGID_3_"  style="overflow:visible;"/>
	</clipPath>
	<path class="st1" d="M72.8,16.7c0-0.3,0-0.7,0-1c0-0.3,0-0.6,0.1-1c-0.2,0.1-0.4,0.1-0.6,0.2c-0.2,0.1-0.3,0.1-0.4,0.2
		c0,0-0.1,0-0.2,0.1c-0.1,0-0.1,0-0.2,0c0,0-0.1,0-0.1,0c0,0-0.1-0.1-0.1-0.1c0-0.2,0-0.3,0.3-0.5c0.2-0.2,0.5-0.3,0.8-0.5
		c0.2-0.2,0.3-0.3,0.4-0.4c0.1-0.1,0.2-0.3,0.2-0.4c0.1-0.1,0.1-0.3,0.1-0.4c0-0.2,0.1-0.3,0.1-0.5c0-0.1,0-0.3,0.1-0.5
		c0-0.2,0.1-0.5,0.2-0.7c0.1-0.2,0.2-0.4,0.3-0.6c0.1-0.2,0.3-0.2,0.6-0.2c0.1,0,0.2,0.1,0.2,0.2c0,0.1,0,0.3,0,0.5
		c0,0.2-0.1,0.6-0.2,1c-0.1,0.4-0.2,0.9-0.2,1.6c0.1,0,0.2,0,0.3-0.1c0.1,0,0.2,0,0.3,0c0.2,0,0.5,0,0.7,0c0.2,0,0.4,0,0.7,0
		c0.1,0,0.2,0,0.2,0.1c0.1,0,0.1,0.1,0.1,0.1c0,0.1,0,0.1,0,0.2c0,0.1-0.1,0.1-0.2,0.1c-0.1,0-0.3,0.1-0.5,0.1
		c-0.2,0.1-0.4,0.1-0.7,0.2c-0.2,0.1-0.5,0.1-0.7,0.2c-0.2,0.1-0.3,0.1-0.4,0.1c0,0.3-0.1,0.7-0.1,1c0,0.4-0.1,0.7-0.1,1
		c0,0.3,0,0.7,0,1c0,0.3,0.1,0.6,0.2,0.9c0,0,0.1,0,0.2-0.1c0.1-0.1,0.3-0.2,0.4-0.4c0.2-0.2,0.4-0.4,0.6-0.7
		c0.2-0.3,0.4-0.6,0.7-0.9c0.1-0.1,0.1-0.1,0.2-0.1c0.1,0,0.1,0,0.2,0.1c0,0,0.1,0.1,0.1,0.2c0,0.1,0,0.1-0.1,0.2
		c-0.2,0.3-0.4,0.7-0.6,1c-0.2,0.4-0.5,0.7-0.7,0.9c-0.3,0.3-0.5,0.5-0.8,0.6c-0.2,0.1-0.5,0.1-0.7,0c-0.2-0.1-0.4-0.3-0.5-0.5
		c-0.1-0.2-0.2-0.4-0.2-0.6c0-0.2-0.1-0.5-0.1-0.7C72.8,17.1,72.8,16.9,72.8,16.7"/>
	<path class="st1" d="M85.9,12.7c-0.4,0.4-0.8,0.8-1.3,1.1c-0.5,0.3-0.9,0.6-1.4,1c0,0.1-0.1,0.3-0.1,0.4c0.2-0.2,0.4-0.3,0.6-0.4
		c0.2-0.1,0.5-0.2,0.7-0.2c0.2,0,0.4,0.1,0.6,0.2c0.2,0.1,0.3,0.4,0.5,0.7c0.1,0.2,0.1,0.4,0.1,0.6c0,0.2-0.1,0.5-0.2,0.7
		c-0.1,0.2-0.2,0.5-0.3,0.7c-0.1,0.2-0.3,0.4-0.5,0.6c0.2,0,0.4,0,0.5,0c0.2,0,0.3,0,0.5,0c0.2,0,0.3,0.1,0.3,0.2
		c0,0.1,0,0.2-0.2,0.3c-0.6,0.1-1.3,0.1-1.9,0.1c-0.1,0-0.2,0.1-0.2,0.1c-0.1,0-0.2,0-0.2,0.1c-0.2,0-0.3,0-0.5,0
		c-0.1,0-0.3,0-0.5-0.1c-0.1,0.2-0.2,0.3-0.3,0.4c-0.4,0.2-0.6,0.1-0.8-0.3c-0.1,0-0.1-0.1-0.1-0.4c0-0.3,0.1-0.7,0.2-1.2
		c0.1-0.5,0.2-1,0.4-1.7c0.2-0.6,0.3-1.2,0.5-1.9c0.2-0.6,0.5-1.2,0.7-1.8c0.3-0.6,0.6-1.1,0.9-1.5c0.2-0.2,0.3-0.4,0.6-0.6
		c0.2-0.2,0.4-0.3,0.7-0.4c0.2-0.1,0.4-0.1,0.7-0.1c0.2,0,0.4,0.1,0.6,0.2c0.2,0.1,0.3,0.2,0.4,0.4c0.1,0.2,0.1,0.3,0.1,0.5
		c-0.1,0.4-0.2,0.9-0.4,1.2C86.5,12,86.3,12.4,85.9,12.7 M84.5,15.4c0,0-0.1,0-0.2,0.1c-0.1,0.1-0.2,0.2-0.4,0.4
		c-0.1,0.2-0.3,0.4-0.4,0.6c-0.1,0.2-0.3,0.4-0.4,0.6c-0.1,0.2-0.2,0.4-0.3,0.5c-0.1,0.2-0.1,0.3-0.1,0.3c0.2,0,0.4,0,0.7,0
		c0.3-0.1,0.6-0.4,0.9-0.9c0-0.1,0.1-0.2,0.2-0.4c0.1-0.2,0.1-0.3,0.2-0.5c0-0.2,0-0.3,0-0.5C84.7,15.6,84.6,15.5,84.5,15.4
		 M82.8,17.7C82.8,17.7,82.8,17.7,82.8,17.7C82.9,17.7,82.9,17.7,82.8,17.7C82.8,17.7,82.8,17.7,82.8,17.7
		C82.8,17.7,82.8,17.7,82.8,17.7 M85.9,10.2c-0.3,0.2-0.6,0.4-0.9,0.6c-0.2,0.3-0.5,0.6-0.6,0.9c-0.2,0.3-0.4,0.7-0.5,1.1
		c-0.1,0.4-0.3,0.7-0.4,1.1c0.3-0.2,0.6-0.5,0.9-0.7c0.3-0.2,0.6-0.5,0.8-0.8c0.2-0.2,0.3-0.3,0.4-0.5c0.1-0.2,0.2-0.3,0.2-0.5
		c0.1-0.1,0.1-0.3,0.1-0.5c0-0.2,0.1-0.3,0.1-0.5c0,0,0-0.1,0-0.1c0,0,0-0.1,0-0.1c0,0,0-0.1,0-0.1C86,10.2,85.9,10.2,85.9,10.2"/>
</g>
<g>
	<defs>
		<rect id="SVGID_5_" width="148.8" height="60.3"/>
	</defs>
	<clipPath id="SVGID_6_">
		<use xlink:href="#SVGID_5_"  style="overflow:visible;"/>
	</clipPath>
	<path class="st2" d="M87,15.7c0.2-0.2,0.3-0.2,0.4-0.2c0.1,0,0.1,0.1,0.1,0.3c-0.1,0.3-0.2,0.7-0.4,1c-0.1,0.3-0.2,0.6-0.3,0.8
		c-0.1,0.2-0.1,0.4-0.1,0.6c0,0.2,0,0.2,0.1,0.3c0,0,0,0,0,0c0.1,0.1,0.3,0.1,0.4,0.1c0.2,0,0.4,0,0.6,0c0.2,0,0.4-0.1,0.6-0.2
		c0.2-0.1,0.4-0.1,0.6-0.2c0.1,0,0.2,0,0.2,0c0.1,0,0.1,0.1,0.1,0.1c0,0,0,0.1,0,0.2c0,0.1,0,0.1-0.1,0.2c-0.7,0.3-1.3,0.5-1.8,0.6
		c-0.5,0.1-0.8,0.1-1.1,0c-0.3-0.1-0.4-0.2-0.5-0.5c-0.1-0.2-0.1-0.5-0.1-0.8c0.1-0.5,0.3-1,0.5-1.3C86.5,16.4,86.7,16,87,15.7
		 M88.5,13.2c0,0.1,0.1,0.2,0,0.2c0,0.1-0.1,0.1-0.1,0.2c-0.1,0-0.1,0.1-0.2,0.1c-0.1,0-0.2,0-0.3-0.1c-0.1-0.1-0.1-0.2-0.1-0.2
		c0-0.1,0-0.1,0.1-0.2s0.2-0.1,0.3-0.1C88.3,13.1,88.4,13.1,88.5,13.2"/>
	<path class="st2" d="M94.2,13.5c-0.2,0.3-0.4,0.7-0.7,1.1c-0.3,0.4-0.6,0.8-1,1.2c-0.4,0.4-0.7,0.8-1.1,1.1
		c-0.4,0.3-0.8,0.6-1.2,0.8c0,0.1,0,0.3,0,0.4c0,0.1,0,0.3,0,0.4c0,0.1,0.1,0.2,0.1,0.4c0.1,0.1,0.1,0.2,0.2,0.3c0.5,0,1,0,1.5-0.2
		c0.5-0.1,0.9-0.3,1.3-0.6c0.1,0,0.1,0,0.2,0c0.1,0,0.1,0.1,0.2,0.1c0,0,0.1,0.1,0.1,0.2c0,0.1,0,0.1-0.1,0.2
		c-0.2,0.1-0.4,0.3-0.7,0.4c-0.3,0.1-0.6,0.3-0.9,0.4c-0.3,0.1-0.6,0.2-0.9,0.2c-0.3,0-0.6,0-0.8,0c-0.3-0.1-0.5-0.2-0.7-0.4
		c-0.2-0.2-0.3-0.5-0.4-0.9c0-0.3-0.1-0.6,0-1c0-0.3,0.1-0.7,0.2-0.9c0.1-0.3,0.1-0.6,0.3-0.9c0.1-0.3,0.3-0.7,0.4-1
		c0.2-0.4,0.4-0.7,0.6-1.1c0.2-0.3,0.5-0.7,0.8-1c0.3-0.3,0.6-0.5,0.9-0.7c0.3-0.2,0.7-0.3,1.1-0.4c0.3-0.1,0.5,0,0.7,0.1
		c0.2,0.1,0.3,0.2,0.4,0.4c0.1,0.2,0.1,0.4,0,0.5c0,0.2-0.1,0.4-0.2,0.5C94.3,13.2,94.2,13.4,94.2,13.5 M91.8,13.9
		c-0.4,0.5-0.7,0.9-1,1.4c-0.3,0.5-0.4,1-0.6,1.6c0.2-0.2,0.4-0.3,0.5-0.5c0.2-0.2,0.3-0.4,0.5-0.6c0.2-0.2,0.4-0.4,0.6-0.7
		c0.2-0.3,0.4-0.6,0.6-0.9c0.2-0.3,0.4-0.6,0.6-0.9c0.2-0.3,0.3-0.6,0.3-0.8c-0.1,0-0.1,0.1-0.2,0.1c-0.1,0-0.1,0.1-0.2,0.1
		c-0.2,0.2-0.5,0.3-0.6,0.5C92.2,13.5,92,13.7,91.8,13.9"/>
	<path class="st2" d="M98.3,14.8c-0.2,0.3-0.5,0.6-0.8,1c-0.3,0.4-0.7,0.8-1.1,1.1c-0.4,0.4-0.8,0.7-1.2,1c-0.4,0.3-0.8,0.5-1.2,0.7
		c0,0.1-0.1,0.3-0.1,0.4c0,0.1,0,0.3,0,0.4c0,0.1,0,0.3,0.1,0.4c0,0.1,0.1,0.2,0.2,0.3c0.5,0.1,1,0.1,1.5,0c0.5-0.1,0.9-0.2,1.3-0.5
		c0.1,0,0.2,0,0.2,0c0.1,0,0.1,0.1,0.2,0.1c0,0,0.1,0.1,0.1,0.2c0,0.1,0,0.1-0.1,0.2c-0.2,0.1-0.5,0.2-0.8,0.4
		c-0.3,0.1-0.6,0.2-0.9,0.3c-0.3,0.1-0.6,0.1-0.9,0.1c-0.3,0-0.6,0-0.8-0.1c-0.2-0.1-0.5-0.2-0.6-0.5c-0.2-0.2-0.3-0.5-0.3-0.9
		c0-0.3,0-0.6,0.1-1c0.1-0.3,0.1-0.7,0.2-0.9c0.1-0.3,0.2-0.5,0.3-0.9c0.1-0.3,0.3-0.7,0.5-1c0.2-0.3,0.4-0.7,0.7-1
		c0.3-0.3,0.5-0.6,0.8-0.9c0.3-0.3,0.6-0.5,1-0.7c0.3-0.2,0.7-0.3,1.1-0.3c0.3,0,0.5,0,0.7,0.2c0.2,0.1,0.3,0.3,0.4,0.4
		c0,0.2,0,0.4,0,0.5c0,0.2-0.1,0.4-0.2,0.5C98.5,14.6,98.4,14.7,98.3,14.8 M95.9,15.1c-0.4,0.4-0.8,0.9-1.1,1.4
		c-0.3,0.5-0.5,1-0.7,1.6c0.2-0.1,0.4-0.3,0.6-0.5c0.2-0.2,0.3-0.4,0.5-0.5c0.2-0.2,0.4-0.4,0.6-0.7c0.2-0.3,0.5-0.5,0.7-0.8
		c0.2-0.3,0.4-0.6,0.6-0.9c0.2-0.3,0.3-0.6,0.4-0.8c-0.1,0-0.1,0.1-0.2,0.1c-0.1,0-0.1,0.1-0.2,0.1c-0.3,0.1-0.5,0.3-0.7,0.5
		C96.3,14.7,96.1,14.9,95.9,15.1"/>
	<path class="st2" d="M97.8,18.5c0.2-0.1,0.4-0.1,0.5-0.1c0.1,0.1,0.1,0.2,0.1,0.3c-0.2,0.3-0.4,0.6-0.6,0.9
		c-0.2,0.3-0.3,0.5-0.4,0.8c-0.1,0.2-0.2,0.4-0.2,0.6c0,0.2,0,0.3,0.1,0.3c0,0,0,0,0,0c0.1,0.1,0.2,0.1,0.4,0.2
		c0.2,0,0.4,0.1,0.6,0.1c0.2,0,0.4,0,0.6,0c0.2,0,0.4-0.1,0.6-0.1c0.1,0,0.2,0,0.2,0.1c0.1,0,0.1,0.1,0.1,0.1s0,0.1,0,0.2
		c0,0.1-0.1,0.1-0.1,0.1c-0.8,0.2-1.4,0.2-1.9,0.2c-0.5,0-0.8-0.1-1.1-0.2c-0.2-0.1-0.4-0.3-0.4-0.6c0-0.2,0-0.5,0.1-0.8
		c0.2-0.5,0.4-0.9,0.7-1.2C97.2,19.1,97.5,18.8,97.8,18.5 M99.9,16.4c0,0.1,0,0.2,0,0.2c0,0.1-0.1,0.1-0.2,0.2c-0.1,0-0.1,0-0.2,0
		c-0.1,0-0.2-0.1-0.2-0.2c-0.1-0.1-0.1-0.2-0.1-0.3c0-0.1,0.1-0.1,0.2-0.2c0.1,0,0.2,0,0.3,0C99.7,16.3,99.8,16.3,99.9,16.4"/>
	<path class="st2" d="M101.1,19.9c0.3,0,0.5,0,0.8,0.1c0.2,0.1,0.4,0.3,0.4,0.5c0.1,0,0.1,0,0.1-0.1c0,0,0.1-0.1,0.1-0.1
		c0.1-0.1,0.2-0.1,0.3-0.1c0.1,0,0.2,0,0.3,0.1c0.1,0.1,0.2,0.1,0.2,0.2c0,0.1,0.1,0.2,0,0.3c-0.1,0.3-0.3,0.5-0.4,0.8
		c-0.2,0.2-0.3,0.5-0.4,0.8c0,0,0,0,0,0c0.1,0,0.1,0,0.2,0c0.1,0,0.3-0.1,0.5-0.1c0.2,0,0.4,0,0.6,0.1c0.2,0,0.3,0.1,0.3,0.2
		c0,0.1-0.1,0.1-0.2,0.2c-0.1,0.1-0.2,0.1-0.3,0.1c-0.1,0-0.2,0-0.4,0.1c-0.2,0-0.3,0.1-0.5,0.1c-0.2,0-0.3,0.1-0.5,0.1
		c-0.1,0.3-0.2,0.6-0.4,1c-0.1,0.3-0.2,0.6-0.4,0.9c-0.1,0.3-0.3,0.6-0.5,0.9c-0.2,0.3-0.4,0.6-0.6,0.9c-0.2,0.2-0.3,0.4-0.6,0.5
		c-0.2,0.2-0.5,0.3-0.7,0.4c-0.3,0.1-0.5,0.1-0.8,0.1c-0.3,0-0.5-0.2-0.8-0.4c-0.2-0.2-0.4-0.4-0.4-0.5c-0.1-0.2-0.1-0.4-0.1-0.6
		c0-0.2,0.1-0.4,0.2-0.6c0.1-0.2,0.2-0.4,0.3-0.6c0.1-0.2,0.4-0.5,0.6-0.7c0.3-0.2,0.5-0.5,0.9-0.7c0.3-0.2,0.6-0.4,1-0.6
		c0.3-0.2,0.6-0.3,0.9-0.4c0.1,0,0.2-0.1,0.3-0.1c0-0.1,0.1-0.3,0.2-0.4c0.1-0.1,0.1-0.3,0.2-0.4c0.1-0.1,0.1-0.2,0.2-0.4
		c-0.5,0.1-1,0.3-1.5,0.4c-0.5,0.1-1,0.2-1.5,0.1c-0.1,0-0.2-0.1-0.3-0.1c-0.1-0.1-0.1-0.1-0.1-0.3c0-0.2,0.1-0.4,0.3-0.6
		c0.2-0.2,0.4-0.4,0.7-0.6c0.3-0.2,0.6-0.3,0.9-0.4C100.6,20,100.9,19.9,101.1,19.9 M99.5,21.4c0.1,0,0.3-0.1,0.4-0.1
		c0.2,0,0.4-0.1,0.6-0.1c0.2-0.1,0.4-0.1,0.6-0.2c0.2-0.1,0.4-0.1,0.6-0.2c0,0,0-0.1,0-0.1c0-0.1,0-0.1,0-0.1c0,0,0-0.1-0.1-0.1
		c-0.2,0-0.4,0-0.6,0c-0.2,0.1-0.4,0.1-0.6,0.2c-0.2,0.1-0.4,0.2-0.5,0.3C99.8,21.1,99.7,21.3,99.5,21.4 M100.1,25.6
		c0.2-0.3,0.3-0.6,0.4-0.9c0.1-0.3,0.3-0.6,0.4-0.9c-0.4,0.2-0.8,0.4-1.1,0.7c-0.3,0.3-0.7,0.5-1,0.8c0,0-0.1,0.1-0.3,0.3
		c-0.1,0.1-0.3,0.3-0.4,0.5c-0.1,0.2-0.2,0.3-0.2,0.5c0,0.2,0,0.3,0.2,0.4c0.2,0.1,0.5,0.2,0.7,0.1c0.2-0.1,0.4-0.2,0.5-0.3
		c0.2-0.2,0.3-0.3,0.4-0.5C99.9,25.9,100,25.7,100.1,25.6"/>
</g>
<g>
	<defs>
		<rect id="SVGID_7_" x="1.2" y="9.3" width="146.5" height="44.7"/>
	</defs>
	<clipPath id="SVGID_8_">
		<use xlink:href="#SVGID_7_"  style="overflow:visible;"/>
	</clipPath>
	<path class="st3" d="M104.4,23c0.2-0.3,0.4-0.5,0.6-0.8c0.2-0.3,0.4-0.5,0.6-0.7c-0.2-0.1-0.4-0.2-0.6-0.2
		c-0.2-0.1-0.3-0.1-0.4-0.1c-0.1,0-0.1,0-0.2,0c-0.1,0-0.1,0-0.1-0.1c0,0-0.1-0.1-0.1-0.1c0,0,0-0.1,0-0.1c0.1-0.2,0.2-0.2,0.5-0.2
		c0.3,0,0.6,0,0.9,0.1c0.2,0,0.4-0.1,0.6-0.1c0.2,0,0.3-0.1,0.4-0.2c0.1-0.1,0.2-0.2,0.4-0.3c0.1-0.1,0.3-0.2,0.4-0.4
		c0.1-0.1,0.2-0.2,0.4-0.3c0.2-0.2,0.3-0.3,0.5-0.4c0.2-0.1,0.4-0.2,0.6-0.3c0.2,0,0.4,0,0.6,0.2c0.1,0.1,0.1,0.2,0.1,0.2
		c0,0.1-0.1,0.2-0.3,0.4c-0.2,0.2-0.4,0.4-0.7,0.6c-0.3,0.3-0.7,0.6-1.1,1.1c0.1,0.1,0.2,0.1,0.3,0.2c0.1,0.1,0.2,0.1,0.3,0.2
		c0.2,0.1,0.4,0.3,0.6,0.4c0.2,0.1,0.3,0.3,0.6,0.4c0.1,0.1,0.1,0.1,0.2,0.2c0,0.1,0,0.1,0,0.2c0,0.1-0.1,0.1-0.1,0.1
		c-0.1,0-0.1,0-0.2,0c-0.1,0-0.3-0.1-0.5-0.2c-0.2-0.1-0.4-0.2-0.7-0.3c-0.2-0.1-0.5-0.2-0.7-0.3c-0.2-0.1-0.3-0.1-0.4-0.1
		c-0.2,0.2-0.5,0.5-0.7,0.7c-0.2,0.3-0.5,0.5-0.7,0.8c-0.2,0.3-0.4,0.6-0.5,0.8c-0.2,0.3-0.3,0.6-0.4,0.8c0,0.1,0.1,0.1,0.2,0.1
		c0.1,0,0.3,0,0.6,0c0.2,0,0.5-0.1,0.9-0.2c0.3-0.1,0.7-0.2,1.1-0.3c0.1,0,0.2,0,0.2,0.1c0.1,0,0.1,0.1,0.1,0.2c0,0.1,0,0.1,0,0.2
		c0,0.1-0.1,0.1-0.2,0.1c-0.3,0.2-0.7,0.3-1.1,0.4c-0.4,0.1-0.8,0.2-1.2,0.3c-0.4,0.1-0.7,0.1-1,0c-0.3-0.1-0.5-0.2-0.5-0.4
		c-0.1-0.2-0.1-0.5-0.1-0.7c0-0.2,0.1-0.5,0.2-0.7c0.1-0.2,0.2-0.4,0.3-0.6C104.1,23.4,104.2,23.2,104.4,23"/>
	<path class="st3" d="M25.4,42.9c-0.3-0.5-0.7-1-1.2-1.4c0.6-0.6,1.1-1.4,1.3-2.3c0.3-1.2,0.1-2.5-0.5-3.7c-0.6-1-1.6-1.8-2.8-2.1
		c0.2-1.1,0.1-2.4-0.6-3.5c-0.9-1.4-2.4-2.3-4.1-2.3c-0.9,0-1.7,0.2-2.5,0.7c-1.1,0.6-1.9,1.7-2.2,2.9c-0.4-0.1-0.7-0.1-1.1-0.1
		c-0.9,0-1.7,0.2-2.5,0.7c-1.1,0.6-1.9,1.7-2.2,2.9c-0.4-0.1-0.7-0.1-1.1-0.1c-0.9,0-1.7,0.2-2.5,0.7c-1.1,0.7-1.9,1.7-2.2,3
		c-0.3,1.2-0.1,2.5,0.5,3.6c0.6,1,1.6,1.8,2.8,2.1c-0.2,1.1-0.1,2.4,0.6,3.5c0.9,1.4,2.4,2.3,4.1,2.3c0.5,0,1-0.1,1.4-0.2
		c0.1,0.6,0.3,1.2,0.6,1.7c0.9,1.4,2.4,2.3,4.1,2.3c0.9,0,1.7-0.2,2.5-0.7c1.1-0.6,1.9-1.7,2.2-2.9c0.4,0.1,0.7,0.1,1.1,0.1
		c0.9,0,1.7-0.2,2.5-0.7c1.1-0.7,1.9-1.7,2.2-3C26.2,45.3,26.1,44,25.4,42.9 M3.9,40.6c-0.7-1.2-0.3-2.6,0.8-3.3
		c1.2-0.7,2.6-0.3,3.3,0.8c0.7,1.1,0.3,2.6-0.8,3.3C6.1,42.2,4.6,41.8,3.9,40.6 M10.6,47.1c-1.2,0.7-2.6,0.3-3.3-0.8
		c-0.7-1.1-0.3-2.6,0.8-3.3c1.2-0.7,2.6-0.3,3.3,0.8C12.1,44.9,11.7,46.4,10.6,47.1 M9.6,37.2c-0.7-1.2-0.3-2.6,0.8-3.3
		c1.2-0.7,2.6-0.3,3.3,0.8c0.7,1.1,0.3,2.6-0.8,3.3C11.8,38.7,10.3,38.4,9.6,37.2 M13.8,39.5c1.1-0.7,2.6-0.3,3.3,0.8
		c0.7,1.2,0.3,2.6-0.8,3.3c-1.2,0.7-2.6,0.3-3.3-0.8C12.3,41.7,12.7,40.2,13.8,39.5 M16.8,50.9c-1.2,0.7-2.6,0.3-3.3-0.8
		c-0.7-1.2-0.3-2.6,0.8-3.3c1.2-0.7,2.6-0.3,3.3,0.8C18.3,48.7,17.9,50.2,16.8,50.9 M15.4,33.8c-0.7-1.2-0.3-2.6,0.8-3.3
		c1.2-0.7,2.6-0.3,3.3,0.8c0.7,1.1,0.3,2.6-0.8,3.3C17.6,35.3,16.1,34.9,15.4,33.8 M19.6,36c1.1-0.7,2.6-0.3,3.3,0.8
		c0.7,1.2,0.3,2.6-0.8,3.3c-1.1,0.7-2.6,0.3-3.3-0.8C18,38.2,18.4,36.7,19.6,36 M22.5,47.5c-1.1,0.7-2.6,0.3-3.3-0.8
		c-0.7-1.2-0.3-2.6,0.8-3.3c1.1-0.7,2.6-0.3,3.3,0.8C24,45.3,23.7,46.8,22.5,47.5"/>
</g>
<g>
	<defs>
		<rect id="SVGID_9_" width="148.8" height="60.3"/>
	</defs>
	<clipPath id="SVGID_10_">
		<use xlink:href="#SVGID_9_"  style="overflow:visible;"/>
	</clipPath>
	<path class="st4" d="M43.2,52.8c-0.2,0-0.4-0.1-0.6-0.2c-0.2-0.2-0.2-0.3-0.2-0.6v-8.5c0-0.5-0.1-0.9-0.2-1.3
		c-0.2-0.3-0.4-0.5-0.7-0.5c-0.6,0-1.2,0.1-1.8,0.4h0c-0.2,0.1-0.4,0.2-0.5,0.2c-0.1,0.1-0.3,0.1-0.4,0.2V52c0,0.2-0.1,0.4-0.2,0.6
		c-0.2,0.2-0.3,0.2-0.6,0.2h-4.6c-0.2,0-0.4-0.1-0.5-0.2c-0.2-0.2-0.2-0.3-0.2-0.6V28.7c0-0.2,0.1-0.4,0.2-0.6
		c0.2-0.2,0.3-0.2,0.5-0.2H38c0.2,0,0.4,0.1,0.6,0.2c0.2,0.2,0.2,0.3,0.2,0.6v9.2c0.7-0.4,1.4-0.7,2.1-1c0.7-0.2,1.5-0.3,2.4-0.3
		c1.8,0,3.1,0.5,3.9,1.5c0.9,1,1.3,2.5,1.3,4.4V52c0,0.2-0.1,0.4-0.2,0.6c-0.2,0.2-0.3,0.2-0.6,0.2H43.2z"/>
	<path class="st4" d="M62.6,52c-0.1-0.1-0.2-0.2-0.3-0.3c-0.8,0.4-1.7,0.7-2.6,1c-0.9,0.3-1.8,0.4-2.8,0.4c-1.9,0-3.3-0.4-4.2-1.3
		c-1-0.9-1.5-2.1-1.5-3.5c0-1.6,0.7-2.9,2.2-3.9c0.7-0.5,1.6-0.9,2.5-1.1c0.9-0.3,1.9-0.4,3.1-0.3l2.2,0.1c0-0.6-0.2-1-0.6-1.2
		c-0.4-0.3-0.8-0.4-1.5-0.4c-0.5,0-0.9,0-1.3,0.1c-0.4,0.1-0.9,0.2-1.3,0.4c-0.4,0.2-0.8,0.3-1.1,0.5c-0.3,0.1-0.7,0.3-1,0.4
		c-0.2,0.1-0.4,0.1-0.6,0c-0.2-0.1-0.4-0.2-0.5-0.4l-1-2.3c-0.1-0.1-0.1-0.3,0-0.5c0-0.2,0.1-0.3,0.2-0.4c0.2-0.2,0.5-0.4,0.9-0.6
		c0.4-0.2,1-0.5,1.6-0.7c0.7-0.2,1.4-0.4,2.1-0.6c0.7-0.1,1.5-0.2,2.3-0.2c1.3,0,2.5,0.1,3.4,0.4c1,0.2,1.8,0.6,2.4,1.1
		c0.6,0.5,1.1,1.2,1.4,2c0.3,0.8,0.5,1.8,0.5,3V49l0.2,0.2l0.2,0.1l0.3,0.3c0.1,0.1,0.2,0.2,0.3,0.4c0.1,0.1,0.1,0.3,0,0.5
		c0,0.2-0.1,0.3-0.3,0.4c0,0-2.4,2-2.6,2.1c-0.1,0.1-0.2,0.1-0.3,0.1c-0.8,0-1.5-0.3-2.1-0.8C62.8,52.1,62.7,52,62.6,52 M60.9,48.4
		c0.1-0.1,0.3-0.1,0.4-0.2v-1.3h-0.1c-2.7,0-4.1,0.4-4.1,1.3c0,0.4,0.5,0.7,1.4,0.7c0.7,0,1.3-0.1,1.9-0.3
		C60.6,48.5,60.8,48.4,60.9,48.4"/>
	<path class="st4" d="M76.7,27.9c0.2,0,0.3,0.1,0.5,0.2c0.1,0.2,0.2,0.3,0.2,0.6V52c0,0.2-0.1,0.4-0.2,0.6c-0.1,0.2-0.3,0.2-0.5,0.2
		h-5.1c-0.2,0-0.4-0.1-0.5-0.2c-0.1-0.2-0.2-0.3-0.2-0.6V28.7c0-0.2,0.1-0.4,0.2-0.6c0.1-0.2,0.3-0.2,0.5-0.2H76.7z"/>
	<path class="st4" d="M86.5,27.9c0.2,0,0.3,0.1,0.5,0.2c0.1,0.2,0.2,0.3,0.2,0.6V52c0,0.2-0.1,0.4-0.2,0.6c-0.1,0.2-0.3,0.2-0.5,0.2
		h-5.1c-0.2,0-0.4-0.1-0.5-0.2c-0.1-0.2-0.2-0.3-0.2-0.6V28.7c0-0.2,0.1-0.4,0.2-0.6c0.1-0.2,0.3-0.2,0.5-0.2H86.5z"/>
	<path class="st4" d="M104.4,50.9c-1.5,1.4-3.6,2.1-6.2,2.1c-2.6,0-4.7-0.7-6.2-2.1c-1.6-1.4-2.3-3.4-2.3-5.9c0-2.5,0.8-4.5,2.3-5.9
		c1.6-1.4,3.6-2.1,6.2-2.1c2.6,0,4.6,0.7,6.2,2.1c1.6,1.4,2.3,3.4,2.3,5.9C106.7,47.5,106,49.5,104.4,50.9 M100.3,42.7
		c-0.5-0.6-1.2-0.8-2.1-0.8c-0.9,0-1.6,0.3-2.1,0.8c-0.5,0.6-0.7,1.3-0.7,2.3c0,1,0.2,1.8,0.7,2.3c0.5,0.6,1.2,0.8,2.1,0.8
		c0.9,0,1.6-0.3,2.1-0.8c0.5-0.6,0.8-1.3,0.8-2.3C101.1,44.1,100.8,43.3,100.3,42.7"/>
	<path class="st4" d="M120,52.8c-0.2,0-0.4-0.1-0.6-0.2c-0.2-0.2-0.2-0.3-0.2-0.6v-8.3c0-0.5-0.1-0.9-0.2-1.3
		c-0.2-0.3-0.4-0.5-0.7-0.5c-0.3,0-0.6,0-0.9,0.1c-0.3,0.1-0.6,0.2-0.9,0.3h0c-0.2,0.1-0.4,0.2-0.5,0.2c-0.1,0.1-0.3,0.1-0.4,0.2V52
		c0,0.2-0.1,0.4-0.2,0.6c-0.2,0.2-0.3,0.2-0.6,0.2h-4.6c-0.2,0-0.4-0.1-0.5-0.2c-0.2-0.2-0.2-0.3-0.2-0.6V38.1
		c0-0.2,0.1-0.4,0.2-0.5c0.2-0.2,0.3-0.2,0.5-0.2h3.3c0.1,0,0.2,0,0.3,0.1c0.1,0.1,0.2,0.2,0.3,0.2l0.6,1c0.7-0.5,1.6-1,2.5-1.3
		c0.9-0.3,1.8-0.5,2.8-0.5c1.8,0,3.1,0.5,3.9,1.5c0.9,1,1.3,2.4,1.3,4.3V52c0,0.2-0.1,0.4-0.2,0.6c-0.2,0.2-0.3,0.2-0.6,0.2H120z"/>
</g>
<g>
	<defs>
		<rect id="SVGID_11_" x="1.2" y="9.3" width="146.5" height="44.7"/>
	</defs>
	<clipPath id="SVGID_12_">
		<use xlink:href="#SVGID_11_"  style="overflow:visible;"/>
	</clipPath>
	<path class="st5" d="M129.6,50.8c0,0.1,0,0.3,0,0.6c0,0.1-0.2,0.3-0.5,0.6c-0.3,0.3-0.5,0.4-0.7,0.4c-0.2,0-0.3,0-0.4,0
		c-0.1,0-0.2-0.1-0.2-0.2c-0.1-0.1-0.1-0.2-0.1-0.3c0-0.1,0-0.3,0-0.5c0-0.3,0-0.6,0-0.7c0-0.3,0.4-0.4,1.2-0.5l0.2,0
		c0.2,0,0.3,0.1,0.5,0.3C129.6,50.6,129.6,50.7,129.6,50.8"/>
	<path class="st5" d="M140.1,48.1c0,0.1,0,0.1-0.1,0.2c-0.1,0.1-0.1,0.2-0.2,0.3c-0.1,0.1-0.2,0.3-0.4,0.4c-0.1,0.1-0.3,0.3-0.5,0.4
		c-0.5,0.4-1,0.8-1.5,1.1c-0.5,0.4-1.1,0.8-1.6,1.2c-0.4,0.3-0.9,0.6-1.2,0.8c-0.4,0.3-0.7,0.5-1,0.6c-0.2,0.1-0.4,0.2-0.5,0.3
		c-0.1,0.1-0.3,0.1-0.4,0.2c-0.1,0.1-0.2,0.1-0.3,0.1c-0.1,0-0.2,0-0.3,0c-0.1,0-0.1,0-0.2,0c-0.1,0-0.1-0.1-0.2-0.1
		c-0.1-0.1-0.1-0.1-0.2-0.2c-0.1-0.1-0.1-0.1-0.1-0.2c0-0.4,0.1-0.7,0.4-0.9c0.1-0.1,0.1-0.1,0.2-0.1c0.1,0,0.1-0.1,0.2-0.1
		c0.1,0,0.2-0.1,0.3-0.1c0.1,0,0.2-0.1,0.4-0.1c0.3-0.1,0.6-0.2,0.9-0.3c0.3-0.1,0.5-0.2,0.6-0.3c0.1-0.1,0.2-0.3,0.3-0.4
		c0-0.2,0.1-0.3,0.1-0.5c0-0.2-0.2-0.6-0.7-1.1c-0.2-0.3-0.4-0.5-0.6-0.7c-0.2-0.2-0.3-0.4-0.4-0.6c-0.1-0.2-0.2-0.4-0.3-0.6
		c-0.1-0.2-0.1-0.5-0.1-0.7c0-0.4,0-0.8,0.1-1.2c0.1-0.2,0.1-0.5,0.3-0.7c0.1-0.2,0.3-0.5,0.4-0.7c0.2-0.2,0.3-0.4,0.5-0.5
		c0.2-0.1,0.3-0.2,0.5-0.2l0,0c0.5,0,0.8,0.3,0.8,0.8c0,0.2-0.1,0.5-0.2,0.7c-0.2,0.2-0.4,0.5-0.6,0.7c-0.1,0.1-0.3,0.2-0.4,0.3
		c-0.1,0.1-0.2,0.2-0.3,0.2c0,0.1,0,0.3,0.1,0.5c0.1,0.2,0.1,0.4,0.2,0.6c0.1,0.2,0.2,0.4,0.4,0.6c0.2,0.2,0.3,0.4,0.5,0.6
		c0.1,0.1,0.2,0.3,0.3,0.4c0.1,0.1,0.2,0.3,0.3,0.5c0.1,0.2,0.2,0.3,0.2,0.5c0.1,0.2,0.1,0.3,0.1,0.5c0,0,0,0,0,0c0,0,0.1,0,0.1,0
		c0,0,0.1,0,0.3-0.1c0.1-0.1,0.3-0.2,0.5-0.3c0.2-0.1,0.4-0.3,0.6-0.4c0.2-0.2,0.4-0.3,0.6-0.5c0.2-0.2,0.4-0.3,0.6-0.4
		c0.2-0.1,0.4-0.3,0.5-0.3c0.2-0.1,0.3-0.2,0.4-0.3c0.1-0.1,0.2-0.1,0.3-0.1c0.1,0,0.2,0,0.2,0.1C140.1,48,140.1,48,140.1,48.1"/>
	<path class="st5" d="M147.7,47.2c0,0.2-0.1,0.4-0.2,0.7c-0.1,0.2-0.3,0.5-0.6,0.8c-0.3,0.4-0.6,0.7-1,1c-0.4,0.3-0.7,0.6-1.1,0.8
		c-0.4,0.2-0.8,0.4-1.2,0.6c-0.4,0.1-0.8,0.2-1.2,0.3c-0.9,0.1-1.6-0.2-2.1-0.7c-0.5-0.5-0.8-1.4-0.9-2.5c0-0.4,0-0.7,0-1.1
		c0-0.4,0.1-0.7,0.2-1.1c0.1-0.4,0.2-0.7,0.4-1.1c0.2-0.3,0.4-0.7,0.6-1c0.1-0.2,0.3-0.4,0.5-0.6c0.2-0.2,0.4-0.4,0.6-0.5
		c0.2-0.2,0.5-0.3,0.7-0.4c0.3-0.1,0.6-0.2,0.9-0.2c0.2,0,0.4,0,0.6,0.1c0.2,0.1,0.4,0.2,0.5,0.3c0.1,0.1,0.2,0.3,0.3,0.4
		c0.1,0.2,0.1,0.3,0.1,0.5c0,0.3-0.1,0.7-0.2,1.1c-0.2,0.4-0.4,0.7-0.7,1.1c-0.3,0.4-0.7,0.8-1.2,1.2c-0.5,0.4-1,0.8-1.5,1.2
		c-0.1,0.1-0.2,0.1-0.2,0.2c-0.1,0.1-0.1,0.1-0.1,0.2c0,0.2,0,0.4,0.1,0.5c0.1,0.2,0.2,0.4,0.3,0.5c0.1,0.2,0.3,0.3,0.5,0.4
		c0.2,0.1,0.5,0.1,0.8,0.1c0.4,0,0.8-0.1,1.2-0.3c0.4-0.2,0.8-0.4,1.2-0.6c0.4-0.3,0.8-0.5,1.1-0.9c0.4-0.3,0.7-0.7,1-1.1
		c0.2-0.2,0.3-0.3,0.4-0.3c0.1,0,0.1,0,0.1,0.1C147.7,46.9,147.7,47.1,147.7,47.2 M143.5,43.8c0-0.1,0-0.1-0.1-0.2
		c0,0-0.1-0.1-0.1-0.1c-0.1,0-0.1-0.1-0.2-0.1c-0.1,0-0.1,0-0.1,0c-0.3,0-0.5,0.1-0.8,0.3c-0.3,0.2-0.5,0.5-0.7,0.8
		c-0.2,0.3-0.4,0.7-0.5,1.2c-0.1,0.5-0.2,0.9-0.3,1.5c0.1-0.1,0.2-0.1,0.3-0.2c0.1-0.1,0.3-0.2,0.4-0.3c0.1-0.1,0.3-0.3,0.4-0.4
		c0.1-0.1,0.3-0.2,0.4-0.4c0.3-0.2,0.5-0.5,0.6-0.6c0.2-0.2,0.3-0.4,0.4-0.5c0.1-0.2,0.2-0.3,0.2-0.4
		C143.5,44.1,143.5,44,143.5,43.8"/>
</g>
</svg>
