<svg xmlns="http://www.w3.org/2000/svg" xmlns:xlink="http://www.w3.org/1999/xlink" id="boe_canvas__item_1649162289296__svg" viewBox="0 0 1000 1000" shape-rendering="geometricPrecision" text-rendering="geometricPrecision" preserveAspectRatio="none" style="width: 465px; height: 465px;"><style>#edQsEhtMD8F2_tr {animation: edQsEhtMD8F2_tr__tr 10000ms linear infinite normal forwards}@keyframes edQsEhtMD8F2_tr__tr { 0% {transform: translate(69.056041px,823.120282px) rotate(0deg)} 10% {transform: translate(69.056041px,823.120282px) rotate(1.747548deg)} 20% {transform: translate(69.056041px,823.120282px) rotate(0deg)} 34% {transform: translate(69.056041px,823.120282px) rotate(-1.764257deg)} 50% {transform: translate(69.056041px,823.120282px) rotate(0deg)} 65% {transform: translate(69.056041px,823.120282px) rotate(1.492168deg)} 79% {transform: translate(69.056041px,823.120282px) rotate(-0.210105deg)} 100% {transform: translate(69.056041px,823.120282px) rotate(0.93593deg)}} #edQsEhtMD8F5_tr {animation: edQsEhtMD8F5_tr__tr 10000ms linear infinite normal forwards}@keyframes edQsEhtMD8F5_tr__tr { 0% {transform: translate(693.527271px,418.991766px) rotate(2.897378deg)} 10% {transform: translate(693.527271px,418.991766px) rotate(-0.860047deg)} 15% {transform: translate(693.527271px,418.991766px) rotate(0.549495deg)} 20% {transform: translate(693.527271px,418.991766px) rotate(1.455266deg)} 34% {transform: translate(693.527271px,418.991766px) rotate(6.816626deg)} 50% {transform: translate(693.527271px,418.991766px) rotate(1.333005deg)} 65% {transform: translate(693.527271px,418.991766px) rotate(-2.565707deg)} 79% {transform: translate(693.527271px,418.991766px) rotate(3.046546deg)} 88% {transform: translate(693.527271px,418.991766px) rotate(3.250202deg)} 100% {transform: translate(693.527271px,418.991766px) rotate(-0.238368deg)}} #edQsEhtMD8F16_tr {animation: edQsEhtMD8F16_tr__tr 10000ms linear infinite normal forwards}@keyframes edQsEhtMD8F16_tr__tr { 0% {transform: translate(101.87px,170.144851px) rotate(0deg)} 10% {transform: translate(101.87px,170.144851px) rotate(-3.971188deg)} 20% {transform: translate(101.87px,170.144851px) rotate(0.545913deg)} 30% {transform: translate(101.87px,170.144851px) rotate(3.904024deg)} 40% {transform: translate(101.87px,170.144851px) rotate(-3.246362deg)} 50% {transform: translate(101.87px,170.144851px) rotate(-5.682439deg)} 65% {transform: translate(101.87px,170.144851px) rotate(4.923126deg)} 75% {transform: translate(101.87px,170.144851px) rotate(-3.457597deg)} 85% {transform: translate(101.87px,170.144851px) rotate(1.516971deg)} 100% {transform: translate(101.87px,170.144851px) rotate(-7.612817deg)}} #edQsEhtMD8F23_tr {animation: edQsEhtMD8F23_tr__tr 10000ms linear infinite normal forwards}@keyframes edQsEhtMD8F23_tr__tr { 0% {transform: translate(173.51px,187.21px) rotate(0deg)} 10% {transform: translate(173.51px,187.21px) rotate(-8.910889deg)} 15% {transform: translate(173.51px,187.21px) rotate(3.579347deg)} 20% {transform: translate(173.51px,187.21px) rotate(-8.910889deg)} 30% {transform: translate(173.51px,187.21px) rotate(-24.435605deg)} 40% {transform: translate(173.51px,187.21px) rotate(1.52854deg)} 50% {transform: translate(173.51px,187.21px) rotate(-6.290303deg)} 65% {transform: translate(173.51px,187.21px) rotate(-23.066424deg)} 80% {transform: translate(173.51px,187.21px) rotate(4.742189deg)} 100% {transform: translate(173.51px,187.21px) rotate(-11.743498deg)}} #edQsEhtMD8F41_tr {animation: edQsEhtMD8F41_tr__tr 10000ms linear infinite normal forwards}@keyframes edQsEhtMD8F41_tr__tr { 0% {transform: translate(291.52px,429.846781px) rotate(0deg)} 8% {transform: translate(291.52px,429.846781px) rotate(-2.784568deg)} 20% {transform: translate(291.52px,429.846781px) rotate(0deg)} 30% {transform: translate(291.52px,429.846781px) rotate(7.141489deg)} 40% {transform: translate(291.52px,429.846781px) rotate(1.612182deg)} 50% {transform: translate(291.52px,429.846781px) rotate(-4.396556deg)} 65% {transform: translate(291.52px,429.846781px) rotate(7.644249deg)} 75% {transform: translate(291.52px,429.846781px) rotate(-1.277799deg)} 90% {transform: translate(291.52px,429.846781px) rotate(7.718798deg)} 100% {transform: translate(291.52px,429.846781px) rotate(-4.075425deg)}} #edQsEhtMD8F45_tr {animation: edQsEhtMD8F45_tr__tr 10000ms linear infinite normal forwards}@keyframes edQsEhtMD8F45_tr__tr { 0% {transform: translate(199.323584px,488.60556px) rotate(0deg)} 10% {transform: translate(199.323584px,488.60556px) rotate(9.254348deg)} 20% {transform: translate(199.323584px,488.60556px) rotate(-6.98648deg)} 30% {transform: translate(199.323584px,488.60556px) rotate(6.7281deg)} 40% {transform: translate(199.323584px,488.60556px) rotate(17.510861deg)} 50% {transform: translate(199.323584px,488.60556px) rotate(6.384243deg)} 60% {transform: translate(199.323584px,488.60556px) rotate(20.58127deg)} 71% {transform: translate(199.323584px,488.60556px) rotate(-0.614725deg)} 86% {transform: translate(199.323584px,488.60556px) rotate(2.53826deg)} 100% {transform: translate(199.323584px,488.60556px) rotate(-8.238559deg)}} #edQsEhtMD8F51_tr {animation: edQsEhtMD8F51_tr__tr 10000ms linear infinite normal forwards}@keyframes edQsEhtMD8F51_tr__tr { 0% {transform: translate(57.24px,263.73754px) rotate(0deg)} 8% {transform: translate(57.24px,263.73754px) rotate(9.79968deg)} 20% {transform: translate(57.24px,263.73754px) rotate(0deg)} 30% {transform: translate(57.24px,263.73754px) rotate(-19.438724deg)} 40% {transform: translate(57.24px,263.73754px) rotate(-8.208821deg)} 50% {transform: translate(57.24px,263.73754px) rotate(0deg)} 65% {transform: translate(57.24px,263.73754px) rotate(16.532268deg)} 80% {transform: translate(57.24px,263.73754px) rotate(-11.753195deg)} 90% {transform: translate(57.24px,263.73754px) rotate(-0.668935deg)} 100% {transform: translate(57.24px,263.73754px) rotate(-11.178338deg)}}</style><g id="edQsEhtMD8F2_tr" transform="translate(69.056041,823.120282) rotate(0)"><g transform="scale(0.316105,0.316105) translate(-848.185008,-507.434987)"><g><polygon points="45.74,1014.87 0,938.52 869.14,417.77 1107.86,608.1 1241.64,237.46 1651.78,0 1696.37,77.02 1314.33,298.22 1149.44,755.07 861.93,525.84 45.74,1014.87" transform="translate(664.571258-592.585178)" fill="#e5251f" data-id-fill="fill__e5251f" data-color-fill="#e5251f"></polygon></g></g></g><g id="edQsEhtMD8F5_tr" transform="translate(693.527271,418.991766) rotate(2.897378)"><g transform="scale(0.475511,0.475511) translate(-472.075012,-346.274994)"><g><polygon points="300.13,262.16 197.09,238.49 0,361.95 39.68,425.3 300.13,262.16" fill="#008fcd" data-id-fill="fill__008fcd" data-color-fill="#008fcd"></polygon><polygon points="62.85,436.49 132.41,429.54 204.09,543.99 168.97,601.12 62.85,436.49" fill="#003951" data-id-fill="fill__003951" data-color-fill="#003951"></polygon><polygon points="427.85,466.06 404.19,569.09 207.09,692.55 167.41,629.2 427.85,466.06" fill="#008fcd" data-id-fill="fill__008fcd" data-color-fill="#008fcd"></polygon><polygon points="686.87,161.16 616.36,48.61 780.26,24.3 944.15,0 850.76,136.86 757.37,273.71 686.87,161.16" fill="#008fcd" data-id-fill="fill__008fcd" data-color-fill="#008fcd"></polygon><rect width="612.35" height="265.62" rx="0" ry="0" transform="matrix(.847493-.530807 0.530807 0.847493 97.405021 373.680324)" fill="#036a93" data-id-fill="fill__036a93" data-color-fill="#036a93"></rect><circle r="85.37" transform="translate(548.37 247.91)" fill="#008fcd" data-id-fill="fill__008fcd" data-color-fill="#008fcd"></circle><circle r="63.56" transform="translate(548.37 247.91)" fill="#003951" data-id-fill="fill__003951" data-color-fill="#003951"></circle></g></g></g><g transform="matrix(.429974 0 0 0.429974 563.85077 142.299197)"><g><g id="edQsEhtMD8F16_tr" transform="translate(101.87,170.144851) rotate(0)"><g transform="translate(-99.430858,-171.389466)"><polygon points="41.98,132.94 70.41,191.91 126.17,204.57 125.73,173.47 107.68,139.96 41.98,132.94" fill="#f8c894" data-id-fill="fill__f8c894" data-color-fill="#f8c894"></polygon><path d="M121.18,165l-13.5-25-65.7-7l.1.22c1.76,3.52,26.63,52.01,79.1,31.78Z" fill="#f39d6d" data-id-fill="fill__f39d6d" data-color-fill="#f39d6d"></path><path d="M21,93.15c0,0-19.93-35.82,18.65-57.3c37.37-20.8,66.12-10.2,75.88,25.69s36,77.94-1.75,93.68C82,168.5,51.55,166.41,21,93.15Z" fill="#f8c894" data-id-fill="fill__f8c894" data-color-fill="#f8c894"></path><path d="M38.43,119.33c0,0-9.15-34.41-3.58-60.63c0,0,43.29-22.23,86.93-4c0,0-9.15-50.57-50.62-47.16s-57.3,38.36-57.3,38.36C11.927414,50.455636,10.303742,55.136221,9,59.91s-10.6,7.3-6.15,29.42s27.05,59.25,44.82,55.49c.04,0-4.34-8.64-9.24-25.49Z" fill="#241d1e" data-id-fill="fill__241d1e" data-color-fill="#241d1e"></path><path d="M38.43,119.33c0,0-13.56-10.63-19.57,1s11.5,35.38,28.56,15.89Z" fill="#f8c894" data-id-fill="fill__f8c894" data-color-fill="#f8c894"></path></g></g><circle r="80.54" transform="translate(216.78 420.52)" fill="#241d1e" data-id-fill="fill__241d1e" data-color-fill="#241d1e"></circle><g id="edQsEhtMD8F23_tr" transform="translate(173.51,187.21) rotate(0)"><g transform="translate(-173.509999,-187.209999)"><g transform="translate(.000001 0.000001)"><rect width="54.9" height="187.47" rx="27.45" ry="27.45" transform="matrix(.091154-.995837 0.995837 0.091154 144.618737 215.127334)" fill="#f8f7f7" data-id-fill="fill__f8f7f7" data-color-fill="#f8f7f7"></rect><path d="M365.14,49.43l33.43,19.75v0c-8.921675,27.530335-19.610549,54.456278-32,80.61-10.644585,22.421538-22.519334,44.238092-35.57,65.35-3.755758,6.222314-9.777812,10.746024-16.8,12.62-7.049584,1.824883-14.535855.763129-20.8-2.95v0c-6.268884-3.703299-10.809654-9.745472-12.623179-16.797029s-.751218-14.534735,2.953179-20.802971c12.23-18,24.58-37.08,36.84-57.4c16.76-27.76,31.52-54.68,44.54-80.38Z" fill="#f8f7f7" data-id-fill="fill__f8f7f7" data-color-fill="#f8f7f7"></path></g><g><polygon points="370.83,57.77 379.25,38.55 389.16,0.05 426.86,19.38 401.29,48.09 391.37,69.55 370.83,57.77" fill="#f39d6d" data-id-fill="fill__f39d6d" data-color-fill="#f39d6d"></polygon><rect width="157.68" height="98.42" rx="0" ry="0" transform="matrix(.981124 0.193378-.193378 0.981124 319.739935 17.893246)" fill="#151212" data-id-fill="fill__151212" data-color-fill="#151212"></rect><path d="M418.89,49.11c1.438418-7.715654-.482278-15.67854-5.28-21.89-4.003348-5.398186-10.109523-8.843814-16.8-9.48-12.05-.83-23.44,8.74-25.93,21.8l-11.1-2.12c3.54-18.58,20.15-32.17,37.81-30.95c9.921186.844051,19.013262,5.873788,25,13.83c6.744764,8.765503,9.439395,19.987675,7.41,30.86Z" fill="#151212" data-id-fill="fill__151212" data-color-fill="#151212"></path><polygon points="319.74,17.91 387.57,81.44 474.44,48.41 319.74,17.91" fill="#241d1e" data-id-fill="fill__241d1e" data-color-fill="#241d1e"></polygon><rect width="18.62" height="18.62" rx="0" ry="0" transform="matrix(.981124 0.193378-.193378 0.981124 380.241725 70.485682)" fill="#4f4b4c" data-id-fill="fill__4f4b4c" data-color-fill="#4f4b4c"></rect></g><path d="M389.16,0.05l-1.43,27l21.11,8.45l18-16.1C421.807461,11.780079,414.522025,5.920966,406,2.64c-5.381516-1.989048-11.109501-2.870015-16.84-2.59Z" fill="#f8c894" data-id-fill="fill__f8c894" data-color-fill="#f8c894"></path></g></g><path d="M58.74,199.57l-23.29,33.5c-11.312763,16.277675-10.117861,38.160866,2.9,53.11c22,25.25,53.83,63.43,64.94,84.83c17.6,33.92,30.6,65.31,30.6,65.31l147.38-69.05c0,0-32.4-99.14-47.11-132.53-9.4-21.35-23.74-45.07-32.86-59.41-5.173639-8.12642-14.39228-12.754945-24-12.05L140.93,166Z" fill="#f8f7f7" data-id-fill="fill__f8f7f7" data-color-fill="#f8f7f7"></path><polygon points="138.5,160.8 152.61,187.21 127.08,179.54 138.5,160.8" fill="#c9c9ca" data-id-fill="fill__c9c9ca" data-color-fill="#c9c9ca"></polygon><polygon points="124.71,193.96 138.5,160.8 119.24,155.06 124.71,193.96" fill="#f8f7f7" data-id-fill="fill__f8f7f7" data-color-fill="#f8f7f7"></polygon><polygon points="106.28,182.22 124.71,193.96 101.87,194.47 106.28,182.22" fill="#c9c9ca" data-id-fill="fill__c9c9ca" data-color-fill="#c9c9ca"></polygon><path d="M107.47,188.73c0,0,14.81-.83,25.69-15.1c0,0,6.79,8.74,7.22,27.28l-15.07,8.93c0,0-10.58-1.13-21.69-12.79Z" fill="#eda400" data-id-fill="fill__eda400" data-color-fill="#eda400"></path><polygon points="57.24,180.68 106.28,182.22 112.8,217.81 58.73,199.57 57.24,180.68" fill="#efeeef" data-id-fill="fill__efeeef" data-color-fill="#efeeef"></polygon><path d="M125.22,209.65c0,0,42.64,90.44,66,153.92l28.91,2.81l11.05-24c0,0-45.03-75.38-90.8-141.47Z" fill="#eda400" data-id-fill="fill__eda400" data-color-fill="#eda400"></path><g id="edQsEhtMD8F41_tr" transform="translate(291.52,429.846781) rotate(0)"><g transform="translate(-291.519997,-429.84678)"><path d="M533.46,606.39c0,0,17.06,37.61,19.14,37.12c1.56-.41,56.75-24.27,83.73-36c2.912496-1.254926,4.720878-4.206096,4.516627-7.370864s-2.376981-5.859001-5.426627-6.729136c-13.12-3.67-36.6-6.29-77.63-1.44Z" fill="#782b0f" fill-rule="evenodd" data-id-fill="fill__782b0f" data-color-fill="#782b0f"></path><path d="M483,413.22v0c1.148675,20.000003-14.130316,37.14578-34.13,38.3L286,475.34c-12.48509,1.828392-25.149447-1.848246-34.71449-10.078096s-15.090348-20.203765-15.14551-32.821904v0c-.107588-23.160589,17.927628-42.355684,41.05-43.69L444.7,379.1c9.604166-.55707,19.036046,2.725337,26.219313,9.124634s11.529056,15.390886,12.080687,24.995366Z" fill="#241d1e" data-id-fill="fill__241d1e" data-color-fill="#241d1e"></path><path d="M574.6,588.93l-46.23,23L416.54,434c-4.287676-8.612391-4.976943-18.575709-1.916056-27.696477s9.620986-16.651233,18.236056-20.933523v0c8.614069-4.284227,18.577356-4.970572,27.697526-1.90801s16.649949,9.623094,20.932474,18.23801Z" fill="#241d1e" data-id-fill="fill__241d1e" data-color-fill="#241d1e"></path></g></g><g id="edQsEhtMD8F45_tr" transform="translate(199.323584,488.60556) rotate(0)"><g transform="translate(-199.32358,-488.605559)"><path d="M368.06,717.11c0,0,2.16,41.45,4.56,41.8c1.8.26,69.52.59,102.63.73c7.93,0,11.23-8.83,4.92-13.31-12.19-8.65-35.68-20.52-80.65-32.61Z" fill="#782b0f" fill-rule="evenodd" data-id-fill="fill__782b0f" data-color-fill="#782b0f"></path><path d="M386.76,521v0c-2.58056,9.268836-8.73816,17.132554-17.117686,21.860572s-18.294283,5.93288-27.562314,3.349428L180.26,516.07c-12.396047-2.324744-23.176533-9.906925-29.555385-20.787029s-7.73013-23.990497-3.704615-35.942971v0c7.395551-21.957689,30.682683-34.286687,53-28.06l161.64,45c19.285445,5.412821,30.531846,25.434282,25.12,44.72Z" fill="#241d1e" data-id-fill="fill__241d1e" data-color-fill="#241d1e"></path><path d="M416,716.38l-53.78,7.15-45.68-204.86c-2.637785-19.85959,11.320948-38.098166,31.18-40.74v0c9.53589-1.266596,19.184361,1.306897,26.822762,7.154315s12.641002,14.489747,13.907238,24.025685Z" fill="#241d1e" data-id-fill="fill__241d1e" data-color-fill="#241d1e"></path></g></g><path d="M291.52,387.76L281.8,367l-27.08,12.69L161,423.63l-27.07,12.69c1.633232,7.571508,3.74072,15.032882,6.31,22.34Z" fill="#782b0f" data-id-fill="fill__782b0f" data-color-fill="#782b0f"></path><rect width="52.18" height="30.54" rx="0" ry="0" transform="matrix(.905569-.424199 0.424199 0.905569 218.255761 392.586303)" fill="#e9b903" data-id-fill="fill__e9b903" data-color-fill="#e9b903"></rect><g id="edQsEhtMD8F51_tr" transform="translate(57.24,263.73754) rotate(0)"><g transform="translate(-57.24,-263.737538)"><path d="M151.74,463.1l19.63,7.42l39,7.9c.44.43,9.72,9.65,6.94,21.47-2.38,10.09-12.5,17.62-24.3,17.18L163,493l-22-8.77Z" fill="#f8c894" data-id-fill="fill__f8c894" data-color-fill="#f8c894"></path><rect width="187.47" height="54.9" rx="27.45" ry="27.45" transform="matrix(.193378-.981124 0.981124 0.193378-4.78068 411.974363)" fill="#f8f7f7" data-id-fill="fill__f8f7f7" data-color-fill="#f8f7f7"></rect><path d="M173.51,464.52l-23.1,31.21v0c-26.459371-11.732924-52.135821-25.157361-76.87-40.19-21.200007-12.883413-41.674348-26.924678-61.33-42.06-5.805473-4.368901-9.685352-10.823414-10.82-18-1.087113-7.201853.741123-14.539987,5.08-20.39v0c4.330231-5.854349,10.809162-9.748262,18.010927-10.824776s14.536168.752593,20.389073,5.084776c16.6,14,34.35,28.28,53.29,42.58c25.88,19.53,51.13,37,75.35,52.6Z" fill="#f8f7f7" data-id-fill="fill__f8f7f7" data-color-fill="#f8f7f7"></path></g></g></g></g></svg>