<svg xmlns="http://www.w3.org/2000/svg" xmlns:xlink="http://www.w3.org/1999/xlink" version="1.1" id="boe_canvas__item_1649315057928__svg" x="0px" y="0px" viewBox="0 0 57 57" style="width: 35px; height: 35px;" xml:space="preserve" preserveAspectRatio="none">
<g>
<g>
<path d="M41.75,29.248c-2.824,0-5.122,2.298-5.122,5.123c0,2.823,2.298,5.12,5.122,5.12s5.122-2.297,5.122-5.12    C46.872,31.545,44.574,29.248,41.75,29.248z M41.75,37.491c-1.723,0-3.122-1.399-3.122-3.12c0-1.722,1.399-3.123,3.122-3.123    s3.122,1.401,3.122,3.123C44.872,36.091,43.473,37.491,41.75,37.491z" data-id-fill="fill__000000" data-color-fill="#ffffff" fill="#ffffff" style="fill: rgb(255, 255, 255);"></path>
<path d="M50.33,14.874h-4.58v-3.831c0-3.677-2.992-6.669-6.67-6.669H6.67H6.25C2.804,4.374,0,7.178,0,10.624    c0,0.032,0.006,0.105,0.012,0.164c0,0.003-0.002,0.006-0.002,0.009C0.005,10.88,0,10.961,0,11.044v34.912    c0,3.678,2.992,6.67,6.67,6.67h43.66c3.678,0,6.67-2.992,6.67-6.67V21.543C57,17.866,54.008,14.874,50.33,14.874z M43.75,11.043    v3.831H6.25c-2.3,0-4.149-1.797-4.231-4.098c0.14-2.471,2.174-4.402,4.651-4.402h32.41C41.654,6.374,43.75,8.468,43.75,11.043z     M55,45.955c0,2.575-2.096,4.67-4.67,4.67H6.67c-2.575,0-4.67-2.095-4.67-4.67V15.217c0.055,0.051,0.115,0.097,0.172,0.146    c0.07,0.06,0.139,0.122,0.211,0.179c0.079,0.062,0.162,0.12,0.244,0.178c0.075,0.054,0.149,0.109,0.228,0.159    c0.086,0.056,0.175,0.105,0.264,0.157c0.079,0.046,0.157,0.093,0.238,0.136c0.094,0.048,0.191,0.091,0.287,0.135    c0.082,0.037,0.161,0.077,0.245,0.111c0.101,0.041,0.206,0.074,0.31,0.11c0.083,0.028,0.164,0.06,0.249,0.085    c0.112,0.033,0.228,0.058,0.342,0.085c0.08,0.019,0.158,0.042,0.238,0.058c0.131,0.026,0.266,0.042,0.4,0.059    c0.068,0.009,0.134,0.022,0.203,0.029c0.204,0.02,0.411,0.03,0.62,0.03h38.21c0.036,0.011,0.075,0.003,0.111,0.01    c0.061,0.011,0.117,0.033,0.179,0.033c0.037,0,0.075-0.002,0.112-0.006c0.184-0.021,0.367-0.037,0.558-0.037h4.91    c2.575,0,4.67,2.094,4.67,4.669L55,45.955L55,45.955z" data-id-fill="fill__000000" data-color-fill="#ffffff" fill="#ffffff" style="fill: rgb(255, 255, 255);"></path>
</g>
</g>
<g>
</g>
<g>
</g>
<g>
</g>
<g>
</g>
<g>
</g>
<g>
</g>
<g>
</g>
<g>
</g>
<g>
</g>
<g>
</g>
<g>
</g>
<g>
</g>
<g>
</g>
<g>
</g>
<g>
</g>
</svg>