<svg xmlns="http://www.w3.org/2000/svg" xmlns:xlink="http://www.w3.org/1999/xlink" version="1.1" id="boe_canvas__item_1701183015444__svg" x="0px" y="0px" viewBox="0 0 486.528 486.528" style="width: 15px; height: 15px;" xml:space="preserve" preserveAspectRatio="none">
<g xmlns="http://www.w3.org/2000/svg">
<path d="M471.628,61.227C402.251,21.172,323.474,0,243.813,0C163.666,0,84.595,21.148,15.148,61.157L1.909,68.869L9.76,81.85   l233.641,404.678L484.618,68.727L471.628,61.227z M183.196,322.251l-24.941-43.199c4.621-4.13,10.665-6.528,17.014-6.528   c14.06,0,25.497,11.438,25.497,25.498C200.766,309.313,193.385,318.908,183.196,322.251z M198.338,348.477   c19.114-8.775,32.428-28.084,32.428-50.456c0-30.602-24.896-55.498-55.497-55.498c-11.682,0-22.896,3.72-32.157,10.298   L73.297,131.9c52.249-27.274,110.734-41.637,170.106-41.637c59.409,0,117.883,14.38,170.072,41.687L243.401,426.528   L198.338,348.477z M428.488,105.948c-56.75-29.923-120.414-45.685-185.084-45.685c-64.633,0-128.307,15.744-185.119,45.633   L43.267,79.885C104.914,47.207,173.926,30,243.813,30c69.425,0,138.146,17.225,199.693,49.936L428.488,105.948z" data-id-fill="fill__000000" data-color-fill="#000000"></path>
<path d="M293.389,120.543c-30.602,0-55.498,24.896-55.498,55.498c0,30.602,24.896,55.498,55.498,55.498   s55.498-24.896,55.498-55.498C348.887,145.439,323.99,120.543,293.389,120.543z M293.389,201.539   c-14.06,0-25.498-11.438-25.498-25.498s11.438-25.498,25.498-25.498s25.498,11.438,25.498,25.498S307.448,201.539,293.389,201.539z   " data-id-fill="fill__000000" data-color-fill="#000000"></path>
<rect x="151.978" y="137.11" width="30" height="40" data-id-fill="fill__000000" data-color-fill="#000000"></rect>
<rect x="259.828" y="253.511" width="30" height="40" data-id-fill="fill__000000" data-color-fill="#000000"></rect>
</g>
<g xmlns="http://www.w3.org/2000/svg">
</g>
<g xmlns="http://www.w3.org/2000/svg">
</g>
<g xmlns="http://www.w3.org/2000/svg">
</g>
<g xmlns="http://www.w3.org/2000/svg">
</g>
<g xmlns="http://www.w3.org/2000/svg">
</g>
<g xmlns="http://www.w3.org/2000/svg">
</g>
<g xmlns="http://www.w3.org/2000/svg">
</g>
<g xmlns="http://www.w3.org/2000/svg">
</g>
<g xmlns="http://www.w3.org/2000/svg">
</g>
<g xmlns="http://www.w3.org/2000/svg">
</g>
<g xmlns="http://www.w3.org/2000/svg">
</g>
<g xmlns="http://www.w3.org/2000/svg">
</g>
<g xmlns="http://www.w3.org/2000/svg">
</g>
<g xmlns="http://www.w3.org/2000/svg">
</g>
<g xmlns="http://www.w3.org/2000/svg">
</g>
</svg>