<svg xmlns="http://www.w3.org/2000/svg" xmlns:xlink="http://www.w3.org/1999/xlink" id="boe_canvas__item_1687509747257__svg" viewBox="0 0 1000 1000" shape-rendering="geometricPrecision" text-rendering="geometricPrecision" style="height: 151px; width: 151px;" preserveAspectRatio="none">
<style xmlns="http://www.w3.org/2000/svg">
#eeZHQu6Ozac5_tr {animation: eeZHQu6Ozac5_tr__tr 5500ms linear infinite normal forwards}@keyframes eeZHQu6Ozac5_tr__tr { 0% {transform: translate(333.073535px,262.716547px) rotate(0deg)} 1.818182% {transform: translate(333.073535px,262.716547px) rotate(0deg);animation-timing-function: cubic-bezier(0.42,0,0.58,1)} 9.090909% {transform: translate(333.073535px,262.716547px) rotate(3.501525deg);animation-timing-function: cubic-bezier(0.42,0,0.58,1)} 14.545455% {transform: translate(333.073535px,262.716547px) rotate(0deg);animation-timing-function: cubic-bezier(0.42,0,0.58,1)} 18.181818% {transform: translate(333.073535px,262.716547px) rotate(3.501525deg);animation-timing-function: cubic-bezier(0.42,0,0.58,1)} 21.818182% {transform: translate(333.073535px,262.716547px) rotate(0deg)} 49.090909% {transform: translate(333.073535px,262.716547px) rotate(0deg);animation-timing-function: cubic-bezier(0.42,0,0.58,1)} 56.363636% {transform: translate(333.073535px,262.716547px) rotate(3.501525deg);animation-timing-function: cubic-bezier(0.42,0,0.58,1)} 61.818182% {transform: translate(333.073535px,262.716547px) rotate(0deg);animation-timing-function: cubic-bezier(0.42,0,0.58,1)} 65.454545% {transform: translate(333.073535px,262.716547px) rotate(3.501525deg);animation-timing-function: cubic-bezier(0.42,0,0.58,1)} 69.090909% {transform: translate(333.073535px,262.716547px) rotate(0deg)} 100% {transform: translate(333.073535px,262.716547px) rotate(0deg)}} #eeZHQu6Ozac11_tr {animation: eeZHQu6Ozac11_tr__tr 5500ms linear infinite normal forwards}@keyframes eeZHQu6Ozac11_tr__tr { 0% {transform: translate(646.597536px,390.449989px) rotate(0deg)} 29.090909% {transform: translate(646.597536px,390.449989px) rotate(0deg);animation-timing-function: cubic-bezier(0.42,0,0.58,1)} 36.363636% {transform: translate(646.597536px,390.449989px) rotate(-6.51639deg);animation-timing-function: cubic-bezier(0.42,0,0.58,1)} 43.636364% {transform: translate(646.597536px,390.449989px) rotate(0deg);animation-timing-function: cubic-bezier(0.42,0,0.58,1)} 47.272727% {transform: translate(646.597536px,390.449989px) rotate(-6.51639deg);animation-timing-function: cubic-bezier(0.42,0,0.58,1)} 52.727273% {transform: translate(646.597536px,390.449989px) rotate(0deg)} 72.727273% {transform: translate(646.597536px,390.449989px) rotate(0deg);animation-timing-function: cubic-bezier(0.42,0,0.58,1)} 80% {transform: translate(646.597536px,390.449989px) rotate(-6.51639deg);animation-timing-function: cubic-bezier(0.42,0,0.58,1)} 87.272727% {transform: translate(646.597536px,390.449989px) rotate(0deg);animation-timing-function: cubic-bezier(0.42,0,0.58,1)} 90.909091% {transform: translate(646.597536px,390.449989px) rotate(-6.51639deg);animation-timing-function: cubic-bezier(0.42,0,0.58,1)} 96.363636% {transform: translate(646.597536px,390.449989px) rotate(0deg)} 100% {transform: translate(646.597536px,390.449989px) rotate(0deg)}} #eeZHQu6Ozac16 {animation: eeZHQu6Ozac16__m 5500ms linear infinite normal forwards}@keyframes eeZHQu6Ozac16__m { 0% {d: path('M532.2,810.4L506.6,703.8C511.3,726.3,515.2,745.14552,521,767.54552L521.660676,770.403597L519.854269,771.341403C518.454269,771.741403,517.38918,772.225784,515.98918,772.725784C512.88918,773.725784,511.542071,774.481944,508.442071,775.181944C488.390877,781.076727,467.5,784.9,442.3,789C441.8,789.1,441.3,789.1,440.8,789.1C438,789.1,436.4,787.5,435.8,784.3C425.7,731.1,417,684.4,409.1,641.5L401.1,647.5L400.7,645C399,634.1,400.6,624.5,403.8,615.6C401.9,620.2,400.4,625.2,399.8,630.5L398.9,637.5L396.9,630.8C390.4,609.6,388.4,587.3,386.4,565.8C385.7,558.5,385.1,551,384.2,543.7C380.8,504.6,382.6,475.1,390.1,447.8C398.2,418.5,404.2,388.3,408.4,355.6C411.1,308.3,448.9,301.7,485.5,295.3C495.9,293.5,506.7,291.6,516.5,288.8L519.4,288L518.3,290.8C500,339.4,492.6,391,495.7,448.6L495.7,449.2L495.8,450.6C495.9,452.3,496,454,496.1,455.6L496.2,455.6C496.3,469.5,502,501,506.9,512.8C529.6,469.9,548,392.4,562.7,329.9C566.4,314.4,569.8,299.8,573,287L573.6,284.7L575.4,286.3C596.2,304,619.6,316.8,645.1,324.4C667.8,331.3,681.4,346.5,685.4,369.5C687.6,381.9,689.9,394.5,692.2,406.7C695.2,423.2,698.4,440.2,701.2,456.9C715.6,515.2,682.8,563.8,651.1,610.7C641.7,624.6,632.8,637.8,625,651.3L623.6,653.7L614.3,635.9C615,637.3,615.7,638.6,616.3,639.9C619.9,647.1,622.4,651.8,620.5,654.8C619.5,656.4,617.6,657.2,614.5,657.2C612.1,657.2,608.9,656.7,604.6,655.8C606.1,672.4,607.3,689.2,608.4,705.5C610.7,739.6,613.1,774.8,619,809L619.3,810.8L532.2,810.8Z')} 32.727273% {d: path('M532.2,810.4L506.6,703.8C511.3,726.3,515.2,745.14552,521,767.54552L521.660676,770.403597L519.854269,771.341403C518.454269,771.741403,517.38918,772.225784,515.98918,772.725784C512.88918,773.725784,511.542071,774.481944,508.442071,775.181944C488.390877,781.076727,467.5,784.9,442.3,789C441.8,789.1,441.3,789.1,440.8,789.1C438,789.1,436.4,787.5,435.8,784.3C425.7,731.1,417,684.4,409.1,641.5L401.1,647.5L400.7,645C399,634.1,400.6,624.5,403.8,615.6C401.9,620.2,400.4,625.2,399.8,630.5L398.9,637.5L396.9,630.8C390.4,609.6,388.4,587.3,386.4,565.8C385.7,558.5,385.1,551,384.2,543.7C380.8,504.6,382.6,475.1,390.1,447.8C398.2,418.5,404.2,388.3,408.4,355.6C411.1,308.3,448.9,301.7,485.5,295.3C495.9,293.5,506.7,291.6,516.5,288.8L519.4,288L518.3,290.8C500,339.4,492.6,391,495.7,448.6L495.7,449.2L495.8,450.6C495.9,452.3,496,454,496.1,455.6L496.2,455.6C496.3,469.5,502,501,506.9,512.8C529.6,469.9,548,392.4,562.7,329.9C566.4,314.4,569.8,299.8,573,287L573.6,284.7L575.4,286.3C596.2,304,619.6,316.8,645.1,324.4C667.8,331.3,681.4,346.5,685.4,369.5C687.6,381.9,689.9,394.5,692.2,406.7C695.2,423.2,698.4,440.2,701.2,456.9C715.6,515.2,682.8,563.8,651.1,610.7C641.7,624.6,632.8,637.8,625,651.3L623.6,653.7L614.3,635.9C615,637.3,615.7,638.6,616.3,639.9C619.9,647.1,622.4,651.8,620.5,654.8C619.5,656.4,617.6,657.2,614.5,657.2C612.1,657.2,608.9,656.7,604.6,655.8C606.1,672.4,607.3,689.2,608.4,705.5C610.7,739.6,613.1,774.8,619,809L619.3,810.8L532.2,810.8Z');animation-timing-function: cubic-bezier(0.42,0,0.58,1)} 38.181818% {d: path('M532.2,810.4L506.6,703.8C511.3,726.3,515.2,745.14552,521,767.54552L521.660676,770.403597L519.854269,771.341403C518.454269,771.741403,517.38918,772.225784,515.98918,772.725784C512.88918,773.725784,511.542071,774.481944,508.442071,775.181944C488.390877,781.076727,467.5,784.9,442.3,789C441.8,789.1,441.3,789.1,440.8,789.1C438,789.1,436.4,787.5,435.8,784.3C425.7,731.1,417,684.4,409.1,641.5L401.1,647.5L400.7,645C399,634.1,400.6,624.5,403.8,615.6C401.9,620.2,400.4,625.2,399.8,630.5L398.9,637.5L396.9,630.8C390.4,609.6,394.793257,589.69163,392.793257,568.19163C392.093257,560.89163,396.594027,546.529537,396.9,539.180633C398.9,491.144398,393.660317,476.725513,396.9,448.6C401.1,412.137433,404.2,388.3,408.4,355.6C413.753973,290.8,442.3,290.8,486.888565,288.8C497.432582,288.327053,506.7,291.6,516.5,288.8L519.4,288L518.3,290.8C500,339.4,492.6,391,495.7,448.6L495.7,449.2L495.8,450.6C495.9,452.3,496,454,496.1,455.6L496.2,455.6C496.3,469.5,502,501,506.9,512.8C529.6,469.9,548,392.4,562.7,329.9C566.4,314.4,569.8,299.8,573,287L573.6,284.7L575.4,286.3C596.2,304,625.887826,303.893751,651.1,312.4C680.739592,322.4,680.897885,346.354765,680.897885,369.7C680.897885,395.3,685.4,394.88509,685.4,407.3C685.4,428.596523,685.4,446.267187,685.4,463.200291C685.4,539.180633,682.8,563.8,651.1,610.7C641.7,624.6,632.8,637.8,625,651.3L623.6,653.7L614.3,635.9C615,637.3,615.7,638.6,616.3,639.9C619.9,647.1,622.4,651.8,620.5,654.8C619.5,656.4,617.6,657.2,614.5,657.2C612.1,657.2,608.9,656.7,604.6,655.8C606.1,672.4,607.3,689.2,608.4,705.5C610.7,739.6,613.1,774.8,619,809L619.3,810.8L532.2,810.8Z');animation-timing-function: cubic-bezier(0.42,0,0.58,1)} 41.818182% {d: path('M532.2,810.4L506.6,703.8C511.3,726.3,515.2,745.14552,521,767.54552L521.660676,770.403597L519.854269,771.341403C518.454269,771.741403,517.38918,772.225784,515.98918,772.725784C512.88918,773.725784,511.542071,774.481944,508.442071,775.181944C488.390877,781.076727,467.5,784.9,442.3,789C441.8,789.1,441.3,789.1,440.8,789.1C438,789.1,436.4,787.5,435.8,784.3C425.7,731.1,417,684.4,409.1,641.5L401.1,647.5L400.7,645C399,634.1,400.6,624.5,403.8,615.6C401.9,620.2,400.4,625.2,399.8,630.5L398.9,637.5L396.9,630.8C390.4,609.6,388.4,587.3,386.4,565.8C385.7,558.5,385.1,551,384.2,543.7C380.8,504.6,382.6,475.1,390.1,447.8C398.2,418.5,404.2,388.3,408.4,355.6C411.1,308.3,448.9,301.7,485.5,295.3C495.9,293.5,506.7,291.6,516.5,288.8L519.4,288L518.3,290.8C500,339.4,492.6,391,495.7,448.6L495.7,449.2L495.8,450.6C495.9,452.3,496,454,496.1,455.6L496.2,455.6C496.3,469.5,502,501,506.9,512.8C529.6,469.9,548,392.4,562.7,329.9C566.4,314.4,569.8,299.8,573,287L573.6,284.7L575.4,286.3C596.2,304,619.6,316.8,645.1,324.4C667.8,331.3,681.4,346.5,685.4,369.5C687.6,381.9,689.9,394.5,692.2,406.7C695.2,423.2,698.4,440.2,701.2,456.9C715.6,515.2,682.8,563.8,651.1,610.7C641.7,624.6,632.8,637.8,625,651.3L623.6,653.7L614.3,635.9C615,637.3,615.7,638.6,616.3,639.9C619.9,647.1,622.4,651.8,620.5,654.8C619.5,656.4,617.6,657.2,614.5,657.2C612.1,657.2,608.9,656.7,604.6,655.8C606.1,672.4,607.3,689.2,608.4,705.5C610.7,739.6,613.1,774.8,619,809L619.3,810.8L532.2,810.8Z')} 100% {d: path('M532.2,810.4L506.6,703.8C511.3,726.3,515.2,745.14552,521,767.54552L521.660676,770.403597L519.854269,771.341403C518.454269,771.741403,517.38918,772.225784,515.98918,772.725784C512.88918,773.725784,511.542071,774.481944,508.442071,775.181944C488.390877,781.076727,467.5,784.9,442.3,789C441.8,789.1,441.3,789.1,440.8,789.1C438,789.1,436.4,787.5,435.8,784.3C425.7,731.1,417,684.4,409.1,641.5L401.1,647.5L400.7,645C399,634.1,400.6,624.5,403.8,615.6C401.9,620.2,400.4,625.2,399.8,630.5L398.9,637.5L396.9,630.8C390.4,609.6,388.4,587.3,386.4,565.8C385.7,558.5,385.1,551,384.2,543.7C380.8,504.6,382.6,475.1,390.1,447.8C398.2,418.5,404.2,388.3,408.4,355.6C411.1,308.3,448.9,301.7,485.5,295.3C495.9,293.5,506.7,291.6,516.5,288.8L519.4,288L518.3,290.8C500,339.4,492.6,391,495.7,448.6L495.7,449.2L495.8,450.6C495.9,452.3,496,454,496.1,455.6L496.2,455.6C496.3,469.5,502,501,506.9,512.8C529.6,469.9,548,392.4,562.7,329.9C566.4,314.4,569.8,299.8,573,287L573.6,284.7L575.4,286.3C596.2,304,619.6,316.8,645.1,324.4C667.8,331.3,681.4,346.5,685.4,369.5C687.6,381.9,689.9,394.5,692.2,406.7C695.2,423.2,698.4,440.2,701.2,456.9C715.6,515.2,682.8,563.8,651.1,610.7C641.7,624.6,632.8,637.8,625,651.3L623.6,653.7L614.3,635.9C615,637.3,615.7,638.6,616.3,639.9C619.9,647.1,622.4,651.8,620.5,654.8C619.5,656.4,617.6,657.2,614.5,657.2C612.1,657.2,608.9,656.7,604.6,655.8C606.1,672.4,607.3,689.2,608.4,705.5C610.7,739.6,613.1,774.8,619,809L619.3,810.8L532.2,810.8Z')}} #eeZHQu6Ozac19_tr {animation: eeZHQu6Ozac19_tr__tr 5500ms linear infinite normal forwards}@keyframes eeZHQu6Ozac19_tr__tr { 0% {transform: translate(436.5px,419.899988px) rotate(0deg)} 5.454545% {transform: translate(436.5px,419.899988px) rotate(0deg);animation-timing-function: cubic-bezier(0.42,0,0.58,1)} 9.090909% {transform: translate(436.5px,419.899988px) rotate(2.830772deg);animation-timing-function: cubic-bezier(0.42,0,0.58,1)} 12.727273% {transform: translate(436.5px,419.899988px) rotate(0deg);animation-timing-function: cubic-bezier(0.42,0,0.58,1)} 18.181818% {transform: translate(436.5px,419.899988px) rotate(0deg);animation-timing-function: cubic-bezier(0.42,0,0.58,1)} 21.818182% {transform: translate(436.5px,419.899988px) rotate(2.830772deg);animation-timing-function: cubic-bezier(0.42,0,0.58,1)} 25.454545% {transform: translate(436.5px,419.899988px) rotate(0deg)} 52.727273% {transform: translate(436.5px,419.899988px) rotate(0deg);animation-timing-function: cubic-bezier(0.42,0,0.58,1)} 56.363636% {transform: translate(436.5px,419.899988px) rotate(2.830772deg);animation-timing-function: cubic-bezier(0.42,0,0.58,1)} 60% {transform: translate(436.5px,419.899988px) rotate(0deg);animation-timing-function: cubic-bezier(0.42,0,0.58,1)} 65.454545% {transform: translate(436.5px,419.899988px) rotate(0deg);animation-timing-function: cubic-bezier(0.42,0,0.58,1)} 69.090909% {transform: translate(436.5px,419.899988px) rotate(2.830772deg);animation-timing-function: cubic-bezier(0.42,0,0.58,1)} 72.727273% {transform: translate(436.5px,419.899988px) rotate(0deg)} 100% {transform: translate(436.5px,419.899988px) rotate(0deg)}} #eeZHQu6Ozac22_to {animation: eeZHQu6Ozac22_to__to 5500ms linear infinite normal forwards}@keyframes eeZHQu6Ozac22_to__to { 0% {transform: translate(416.8px,205.193676px)} 10.909091% {transform: translate(416.8px,205.193676px);animation-timing-function: cubic-bezier(0.42,0,0.58,1)} 16.363636% {transform: translate(437.8px,205.193676px)} 58.181818% {transform: translate(416.8px,205.193676px);animation-timing-function: cubic-bezier(0.42,0,0.58,1)} 63.636364% {transform: translate(437.8px,205.193676px)} 100% {transform: translate(437.8px,205.193676px)}} #eeZHQu6Ozac22_ts {animation: eeZHQu6Ozac22_ts__ts 5500ms linear infinite normal forwards}@keyframes eeZHQu6Ozac22_ts__ts { 0% {transform: scale(0,0)} 5.454545% {transform: scale(0,0);animation-timing-function: cubic-bezier(0.42,0,0.58,1)} 10.909091% {transform: scale(1,1);animation-timing-function: cubic-bezier(0.42,0,0.58,1)} 16.363636% {transform: scale(0,0)} 52.727273% {transform: scale(0,0);animation-timing-function: cubic-bezier(0.42,0,0.58,1)} 58.181818% {transform: scale(1,1);animation-timing-function: cubic-bezier(0.42,0,0.58,1)} 63.636364% {transform: scale(0,0)} 100% {transform: scale(0,0)}} #eeZHQu6Ozac23_to {animation: eeZHQu6Ozac23_to__to 5500ms linear infinite normal forwards}@keyframes eeZHQu6Ozac23_to__to { 0% {transform: translate(416.8px,205.193676px)} 20% {transform: translate(416.8px,205.193676px);animation-timing-function: cubic-bezier(0.42,0,0.58,1)} 25.454545% {transform: translate(437.8px,205.193676px)} 65.454545% {transform: translate(416.8px,205.193676px);animation-timing-function: cubic-bezier(0.42,0,0.58,1)} 70.909091% {transform: translate(437.8px,205.193676px)} 100% {transform: translate(437.8px,205.193676px)}} #eeZHQu6Ozac23_ts {animation: eeZHQu6Ozac23_ts__ts 5500ms linear infinite normal forwards}@keyframes eeZHQu6Ozac23_ts__ts { 0% {transform: scale(0,0)} 14.545455% {transform: scale(0,0);animation-timing-function: cubic-bezier(0.42,0,0.58,1)} 20% {transform: scale(1,1);animation-timing-function: cubic-bezier(0.42,0,0.58,1)} 25.454545% {transform: scale(0,0)} 60% {transform: scale(0,0);animation-timing-function: cubic-bezier(0.42,0,0.58,1)} 65.454545% {transform: scale(1,1);animation-timing-function: cubic-bezier(0.42,0,0.58,1)} 70.909091% {transform: scale(0,0)} 100% {transform: scale(0,0)}} #eeZHQu6Ozac24_to {animation: eeZHQu6Ozac24_to__to 5500ms linear infinite normal forwards}@keyframes eeZHQu6Ozac24_to__to { 0% {transform: translate(570.356017px,317.320955px)} 34.545455% {transform: translate(570.356017px,317.320955px);animation-timing-function: cubic-bezier(0.42,0,0.58,1)} 41.818182% {transform: translate(553.356017px,310.320955px)} 80% {transform: translate(570.356017px,317.320955px);animation-timing-function: cubic-bezier(0.42,0,0.58,1)} 87.272727% {transform: translate(553.356017px,310.320955px)} 100% {transform: translate(553.356017px,310.320955px)}} #eeZHQu6Ozac24_ts {animation: eeZHQu6Ozac24_ts__ts 5500ms linear infinite normal forwards}@keyframes eeZHQu6Ozac24_ts__ts { 0% {transform: scale(0,0)} 29.090909% {transform: scale(0,0);animation-timing-function: cubic-bezier(0.42,0,0.58,1)} 34.545455% {transform: scale(1,1);animation-timing-function: cubic-bezier(0.42,0,0.58,1)} 41.818182% {transform: scale(0,0)} 72.727273% {transform: scale(0,0);animation-timing-function: cubic-bezier(0.42,0,0.58,1)} 80% {transform: scale(1,1);animation-timing-function: cubic-bezier(0.42,0,0.58,1)} 87.272727% {transform: scale(0,0)} 100% {transform: scale(0,0)}} #eeZHQu6Ozac25_to {animation: eeZHQu6Ozac25_to__to 5500ms linear infinite normal forwards}@keyframes eeZHQu6Ozac25_to__to { 0% {transform: translate(570.356017px,317.320955px)} 47.272727% {transform: translate(570.356017px,317.320955px);animation-timing-function: cubic-bezier(0.42,0,0.58,1)} 54.545455% {transform: translate(553.356017px,310.320955px)} 89.090909% {transform: translate(570.356017px,317.320955px);animation-timing-function: cubic-bezier(0.42,0,0.58,1)} 96.363636% {transform: translate(553.356017px,310.320955px)} 100% {transform: translate(553.356017px,310.320955px)}} #eeZHQu6Ozac25_ts {animation: eeZHQu6Ozac25_ts__ts 5500ms linear infinite normal forwards}@keyframes eeZHQu6Ozac25_ts__ts { 0% {transform: scale(0,0)} 41.818182% {transform: scale(0,0);animation-timing-function: cubic-bezier(0.42,0,0.58,1)} 47.272727% {transform: scale(1,1);animation-timing-function: cubic-bezier(0.42,0,0.58,1)} 54.545455% {transform: scale(0,0)} 81.818182% {transform: scale(0,0);animation-timing-function: cubic-bezier(0.42,0,0.58,1)} 89.090909% {transform: scale(1,1);animation-timing-function: cubic-bezier(0.42,0,0.58,1)} 96.363636% {transform: scale(0,0)} 100% {transform: scale(0,0)}}
</style>
<circle xmlns="http://www.w3.org/2000/svg" r="387.7" transform="translate(514.739144 500)" fill="#f9d1aa" data-id-fill="fill__f9d1aa" data-color-fill="#f9d1aa"></circle><path xmlns="http://www.w3.org/2000/svg" d="M529.8,318.2c0,0-66.9,179.2-30.6,288.5c0,0,43.4-122.6,40.9-286l4.3-7.2c1.1-1.8,1-4.1-.1-5.9l-3.4-5.1c-1.8-2.7-5.6-3.3-8.1-1.2l-4.7,3.9c-2,1.6-2.6,4.5-1.4,6.8l3.1,6.2Z" transform="translate(112.3 94.049988)" fill="#4b463c" data-id-fill="fill__4b463c" data-color-fill="#4b463c"></path><path xmlns="http://www.w3.org/2000/svg" d="M207.1,190.2c0,0,11.1,107.5,32,144.6l26.7-7.1c0,0-35.2-115.7-46-135.9l1.4-9.6c.2-1.5-.3-3.1-1.5-4.1l-5.7-5.2c-2-1.9-5.2-1.6-6.9.6l-3.7,4.8c-1.1,1.5-1.3,3.5-.4,5.1l4.1,6.8Z" transform="translate(112.3 94.049988)" fill="#4b463c" data-id-fill="fill__4b463c" data-color-fill="#4b463c"></path><g xmlns="http://www.w3.org/2000/svg" id="eeZHQu6Ozac5_tr" transform="translate(333.073535,262.716547) rotate(0)"><g transform="translate(-220.77352,-168.666559)"><path d="M220.7,170.3c-27.5-7.4-51.2-26.9-66.6-40.9l-.4-.4-.1-.5c-.7-5.3,3.6-7.2,6.7-8.6.5-.2,1-.5,1.5-.7c6.8-13.8,7-30.9,6.6-45.9-.1-1.4-.3-2.9-.4-4.5-1.7-18.8-3.7-42.3,7.8-55.5c5.3-6,12.9-9.3,22.9-9.8c9.3-.3,18.7-.5,27.8-.7c6.1-.1,12.4-.2,18.7-.4c2.8-.1,5.6-.2,8.4-.4c3.6-.2,7.3-.5,11-.5.9,0,1.8,0,2.6,0c9.9.4,14.2,7.6,14,14.5-.2,7.6-5.5,15.6-15,15.9l.2,1.2c.8,5.3,1,10.7,1.1,15.9.1,3.3.2,6.6.4,9.9c1.5,17.5-.6,35.6-6.6,57.2v.1.1c-1.2,2.8-1.9,6.8-2.7,11.1-2,10.7-4.5,24.1-15.6,24.1c0,0,0,0,0,0-1.3,0-2.6-.2-4.1-.5-6-1.6-9.3-2.2-11.4-2.2-2.8,0-3,.6-3.4,7.1-.2,3.3-.4,7.7-1.4,13.3l-.3,1.6-1.7-.5Zm-16-53c-.1,2-.2,4-.2,6.1.2-2,.2-4.1.2-6.1Zm-2-15.6c1.3,1.5,1.9,3.4,2.2,5.4.5-3.2-.5-4.5-2.5-5.7l.3.3Zm-3.2-1.8c.8.6,1.7,1,2.6,1.4l.3.1c-.5-.3-1.1-.6-1.8-.9-.3-.2-.7-.4-1.1-.6Zm-2.2-29.7c-3.8,1.2-5.1,5.7-5.5,7.8s-.5,4.4-.2,6.7c0-.8,0-1.6.1-2.4.8-7.6,2.1-10.9,5.6-12.1Z" data-id-fill="fill__000000" data-color-fill="#000000"></path><path d="M264.4,3c.9,0,1.7,0,2.6,0c18.7.8,15.2,27.4-1.4,27.4-.4,0-.9,0-1.4-.1-1.2,0-2.4,0-3.6,0-11.4,0-20.6-1.1-28-1.1-16,0-22.6,5.2-21.5,38.5.5,0,1,0,1.5,0c0-30.6,5.6-36,18.8-36c7.2,0,16.8,1.6,29,1.6c1.4,0,2.8,0,4.3-.1c1.3,8.5.9,17.2,1.5,25.7c1.6,19.3-1.4,38.1-6.6,56.7-4.2,10.2-3.1,34.3-17,34.3-1.1,0-2.4-.2-3.7-.5-5.7-1.5-9.4-2.3-11.8-2.3-6.9,0-3.3,6.5-6.3,21.6-25-6.7-47-23.3-66-40.5-.7-5.1,4.2-6.1,7.7-7.9h.1c7.1-14,7.4-31.4,7-47.2-2.2-26.2-8-66.5,28.8-68.3c15.5-.5,31-.6,46.4-1c6.8-.1,13.2-.8,19.6-.8M205.3,133.4c1-8.9.9-17.4,1.1-25.9c1.6-9.7-8.7-6.5-11.8-14.8-1.3-3.1-1.8-6.8-1.4-10.2c1-10.1,2.9-11.4,8.9-11.4.5,0,1.1,0,1.7,0c0,0,0,0,.1,0c.7,0,1.5-.3,2.5-.5-2.7-1.5-5-2.2-7.1-2.2-13.2,0-12.4,28.5,2.3,34.3c5.2,6.1-1.8,19.5,3.7,30.7M264.4,0v0c-3.7,0-7.5.2-11.1.5-2.7.2-5.6.3-8.3.4-6.2.2-12.5.3-18.6.4-9.1.2-18.5.3-27.8.7-10.4.5-18.4,4-24,10.4-11.9,13.7-9.8,37.5-8.2,56.6.1,1.5.3,3,.4,4.5.4,14.6.2,31.3-6.2,44.7-.3.1-.6.3-1,.4-3.1,1.4-8.4,3.8-7.5,10.2l.1,1.1.8.7c15.6,14.1,39.5,33.8,67.3,41.2l3.1.8.6-3.2c1.1-5.6,1.3-10.2,1.5-13.5.1-2.2.2-5,.7-5.5c0,0,0,0,0,0s.3-.1,1.2-.1c2.4,0,6.7,1,11,2.2c1.6.4,3.1.6,4.5.6c12.3,0,15-14,17.1-25.3.8-4.2,1.5-8.1,2.6-10.8l.1-.2v-.2c6-21.8,8.2-40.1,6.7-57.8-.3-3.2-.3-6.6-.4-9.9-.1-5.1-.3-10.4-1.1-15.7C277,32,282.5,23.9,282.7,16c.2-7.6-4.5-15.5-15.4-16-1,0-1.9,0-2.9,0v0v0Z" fill="#f9d1aa" data-id-fill="fill__f9d1aa" data-color-fill="#f9d1aa"></path></g></g><path xmlns="http://www.w3.org/2000/svg" d="M-0.701716,0L182.13261,-5.519421l-7.634326,199.2-186.1.019421l10.9-193.7Z" transform="translate(222.36739 710.769409)" fill="#f9d1aa" stroke-width="0" data-id-fill="fill__f9d1aa" data-color-fill="#f9d1aa"></path><path xmlns="http://www.w3.org/2000/svg" d="M178.8,810.4l.6-2.1c.1-.2.1-.4.2-.6c4.8-22.5,10.2-45.2,15.5-67.2c7.2-30.5,14.7-61.7,20.7-93.1l-37.3,163h-83.6l.1-1.6c4.4-53.8,7.7-108.7,10.8-161.8l1.2-20.4c.3-5.2,2.5-7.3,7.7-7.4c1.4,0,2.9,0,4.3,0c33,0,66.5-1.6,98.8-3.1c20.3-1,41.2-2,61.8-2.6h1.5v1.5c.1,29.4,0,59.2-.1,87.9-.1,34.6-.2,70.5,0,105.8v1.5h-102.2Z" transform="translate(115.865674 94.269409)" data-id-fill="fill__000000" data-color-fill="#000000"></path><path xmlns="http://www.w3.org/2000/svg" d="M118.3,391c53.1,55.5,108.7,21.3,169.3,3.9.8,68.6-.1,137.1.2,205.7c0,9.1,0,9.3-9.3,9.7-54.3,2.5-108.5,4.6-162.8,6.4-4.3.2-5.9-1-5.6-5.5c5.9-73.3,8.3-146.6,8.2-220.2Z" transform="translate(112.3 94.049988)" data-id-fill="fill__000000" data-color-fill="#000000"></path><g xmlns="http://www.w3.org/2000/svg" id="eeZHQu6Ozac11_tr" transform="translate(646.597536,390.449989) rotate(0)"><g transform="translate(-646.597535,-390.449988)"><path d="M561.7,221.8c14.1-3.8,7.2,10.4,6.7,18c7.4-11.1,6.9-23.9-9.9-20.5-.1-51.3,10.6-34.5-38.1-45-5-1.1-7-4.9-5.7-9.8c2.2-8.7,8.4-12.7,17.2-11.2c13.8,2.3,27.5,4.4,41.3,6.8c44.7,7.7,13.2,59.3.9,83.3-21.4,44.2,19.7,38.4-38.7,53-7-.7-7.4-10.9-10-16.1-1.2-3.5-.9-5.9,3.8-7.3c25.2-7.3,36.7-28.2,32.5-51.2Z" transform="translate(112.3 94.049988)" data-id-fill="fill__000000" data-color-fill="#000000"></path><path d="M556.4,224.5c-1.3-10.9,1.4-22.9,1.3-34.1.3-7.5-1.2-8.6-8.7-9.6-9.2-1.2-18.4-2.6-27.6-4.5-18.4-6-18.3,29-22,39.9-1.1,12.3.4,26.7-1.7,39.1v0c-.2,18.7,25.3,17.4,37.9,12.5c12.6-2.9,35.3-33.8,20.8-43.3Z" transform="translate(112.3 94.049988)" data-id-fill="fill__000000" data-color-fill="#000000"></path></g></g><path xmlns="http://www.w3.org/2000/svg" d="M214.3,344.7c4.7-.6,8.9-1.1,13.1-1.5c5.9-.7,11.9-1.2,17.8-2.1c3.9-.6,6.4.4,6.3,4.5-.1,7.9-.3,15.8-1,23.7-.3,3.1-2.1,4.4-5.6,2.1-4.7-3.1-9.9-5.3-14.8-8.2-7-4-12.5-9.4-15.8-18.5Z" transform="translate(112.3 94.049988)" data-id-fill="fill__000000" data-color-fill="#000000"></path><path xmlns="http://www.w3.org/2000/svg" d="M-32.42089,9.509904l109.2258-11.47897l14.7,157.1h-86.623741L-32.42089,9.509904Z" transform="translate(641.966621 749.319054)" fill="#f9d1aa" stroke-width="0" data-id-fill="fill__f9d1aa" data-color-fill="#f9d1aa"></path><path xmlns="http://www.w3.org/2000/svg" id="eeZHQu6Ozac16" d="M532.2,810.4L506.6,703.8c4.7,22.5,8.6,41.34552,14.4,63.74552l.660676,2.858077-1.806407.937806c-1.4.4-2.465089.884381-3.865089,1.384381-3.1,1-4.447109,1.75616-7.547109,2.45616C488.390877,781.076727,467.5,784.9,442.3,789c-.5.1-1,.1-1.5.1-2.8,0-4.4-1.6-5-4.8-10.1-53.2-18.8-99.9-26.7-142.8l-8,6-.4-2.5c-1.7-10.9-.1-20.5,3.1-29.4-1.9,4.6-3.4,9.6-4,14.9l-.9,7-2-6.7c-6.5-21.2-8.5-43.5-10.5-65-.7-7.3-1.3-14.8-2.2-22.1-3.4-39.1-1.6-68.6,5.9-95.9c8.1-29.3,14.1-59.5,18.3-92.2c2.7-47.3,40.5-53.9,77.1-60.3c10.4-1.8,21.2-3.7,31-6.5l2.9-.8-1.1,2.8C500,339.4,492.6,391,495.7,448.6v.6l.1,1.4c.1,1.7.2,3.4.3,5h.1c.1,13.9,5.8,45.4,10.7,57.2c22.7-42.9,41.1-120.4,55.8-182.9c3.7-15.5,7.1-30.1,10.3-42.9l.6-2.3l1.8,1.6c20.8,17.7,44.2,30.5,69.7,38.1c22.7,6.9,36.3,22.1,40.3,45.1c2.2,12.4,4.5,25,6.8,37.2c3,16.5,6.2,33.5,9,50.2c14.4,58.3-18.4,106.9-50.1,153.8-9.4,13.9-18.3,27.1-26.1,40.6l-1.4,2.4-9.3-17.8c.7,1.4,1.4,2.7,2,4c3.6,7.2,6.1,11.9,4.2,14.9-1,1.6-2.9,2.4-6,2.4-2.4,0-5.6-.5-9.9-1.4c1.5,16.6,2.7,33.4,3.8,49.7c2.3,34.1,4.7,69.3,10.6,103.5l.3,1.8h-87.1Z" transform="translate(113.845731 93.649988)" stroke-width="3" data-id-fill="fill__000000" data-color-fill="#000000"></path><ellipse xmlns="http://www.w3.org/2000/svg" rx="72.225688" ry="77.827597" transform="matrix(1.282298-.234423 0.167356 0.915443 244.325956 325.381938)" fill="#f9d1aa" stroke-width="0" data-id-fill="fill__f9d1aa" data-color-fill="#f9d1aa"></ellipse><path xmlns="http://www.w3.org/2000/svg" d="M354.1,345.4c-16.3-41.9-48.5-75.9-61.9-119.5-17.2-52.8-20.9-42.6-65-62.6-.5,20.8,58.1,199.8,12.3,161.7-23.2-69-51.3-132.8-93.3-193.7-18,26.3-48.8,38.1-75,54.2C-5.4,231,90.8,365.3,138,402.5c49.8,35.2,107.3.2,158.3-13.2c22.4-8.6,67.7-9.2,57.8-43.9Z" transform="translate(112.3 94.049988)" stroke-width="3" stroke-miterlimit="10" data-id-fill="fill__000000" data-color-fill="#000000"></path><g xmlns="http://www.w3.org/2000/svg" id="eeZHQu6Ozac19_tr" transform="translate(436.5,419.899988) rotate(0)"><g transform="translate(-324.2,-325.85)"><path d="M252.3,372.9c-1.1,0-2.5-.5-4.1-1.4l-.1-.1c-11.9-5.7-25-13.1-31.6-24.9l-.6-1.1-1.2.5c-.4.1-.7.3-1.1.5.6-1.1,1.1-2.2,1.6-3.3l.6-1.4c0,0,.1,0,.1,0c1.2,0,1.7-.6,1.8-1c.3-.6.3-1.1-.1-2.1c3,1.3,6.5,2,10.5,2c3.9,0,7.9-.6,11.8-1.2c3.7-.6,7.2-1.1,10.5-1.1c2.6,0,4.7.3,6.5,1l.3.1h.3c.9,0,1.8,0,2.6,0-2.5,1.7-2.6,7.3-2.7,14.6-.3,8.4-.4,18.9-5.1,18.9ZM184,348.7c6.6-5.7,13.6-8.6,20.8-8.6c1.4,0,2.7.1,3.8.3-5.4.1-10.2,2.3-14.8,4.5-3.3,1.5-6.5,3-9.8,3.8Zm-10.7-12.6c4-3,7.5-5.6,7.2-9c0,0,0-.1,0-.1c1.9,1.3,3.8,2.9,5.3,4.4-.3,0-.6-.1-.9-.1-3.1,0-6,1.8-8.5,3.4-1.5,1-3,1.9-4.3,2.3.4-.3.8-.6,1.2-.9Zm103.8.2c.4-.3.7-.6.9-.9c2-2.3,1.7-5.3,1.3-8.7-.5-4.6-1.2-10.4,2.4-18c2.5-5.4,16.9-25.3,21.7-29.1c0,.1-.1.3-.1.5-1.1,4.7-5.4,9.4-9.9,14.4-9,9.9-20.2,22.2-11.2,41.2-1.3,0-4.8.5-5.1.6ZM165.8,318.6c3.1-1.7,7.8-3.4,11-3.4c1.6,0,2.1.4,2.2.6c0,.1.1.1.1.2-.7.1-1.6.3-3.1.6-3,.6-7.1,1.5-10.2,2Zm138.7-39.8v0Z" data-id-fill="fill__000000" data-color-fill="#000000"></path><path d="M162.9,317.3v0v0m18.7,12.3c.2.2.4.3.6.5-.3.1-.6.2-1,.3.2-.2.3-.5.4-.8m68.8,10.2c2.4,0,4.3.3,6,.9l.5.2h.2c-1.2,3-1.2,7.7-1.3,13-.1,6.1-.3,17.5-3.5,17.5-.6,0-1.6-.2-3.4-1.2l-.1-.1-.1-.1c-11.7-5.6-24.6-12.8-30.9-24.3l-1.2-2.2.2-.5c1-.2,1.8-.8,2.3-1.7.1-.2.2-.3.2-.5c2.6.8,5.6,1.2,8.8,1.2c4,0,8.1-.6,12-1.2c3.7-.5,7.1-1,10.3-1m54-62.4c-3.7,0-21.7,25.7-24,30.6-10.1,21.5,11.7,29.6-23,29.9-2.2-.8-4.5-1.1-7-1.1-6.9,0-14.8,2.2-22.3,2.2-6.1,0-11.9-1.5-16.7-7c0,0,.1,0,.1,0s-.1,0-.1,0s0,0,.1,0c4.7,6.4,5.8,8.1,4.5,8.1-1.4,0-5.4-1.7-11.1-1.7-6.6,0-15.5,2.3-25.1,12.1c10.7,0,18.7-8.9,29.1-8.9c1.6,0,3.2.2,5,.7-2.9,6.7-6.8,11.3-15.3,11.5c1.2,1.3,2.4,1.8,3.6,1.8c4.4,0,8.6-6.8,13-8.5c6.7,12.1,19.9,19.7,32.2,25.5c1.9,1.1,3.5,1.6,4.9,1.6c10.8,0,3.2-33.6,9.4-34.1c19.9-3.9,47-5.4,62.5-15.2-13.5,3.3-27,6.7-40.4,10-13.4-27.6,17.6-39.8,21-54.8.5-1.9.3-2.7-.4-2.7v0ZM167,303.5c-3.9,0-7.4,1-9.8,3c2.4-.1,4.7-.2,7.1-.2c9.7,0,18.8,1.8,25.5,10.7-3.9-8.7-14.2-13.5-22.8-13.5v0Zm9.8,10.2c-4.9,0-13.1,3.5-15,6.2-.1.3.4.5,1.3.5c4,0,16.4-3.1,17.4-3.1c0,0,0,0,.1,0c.6-2.7-1.1-3.6-3.8-3.6v0ZM173,322c12.6,5.7,2.5,10-4.4,15.8.8.6,1.6.8,2.5.8c4.1,0,8.7-5.8,13.8-5.8c1.7,0,3.4.6,5.2,2.3-1.4-4.8-11.9-12.7-17.1-13.1v0Zm38.3,10.1c0,0,0,0,0,0s0,0,0,0v0Zm.2,0c0,0,0,0,0,0s0,0,0,0v0Z" fill="#f9d1aa" data-id-fill="fill__f9d1aa" data-color-fill="#f9d1aa"></path></g></g><g xmlns="http://www.w3.org/2000/svg" id="eeZHQu6Ozac22_to" transform="translate(416.8,205.193676)"><g id="eeZHQu6Ozac22_ts" transform="scale(0,0)"><path d="M429.377574,232.415665c-7.25156-10.565677-11.9568-14.665677-2.417187-22.765677s22.79062-8.200001,18.301558-22.900001q-4.489062-14.7-15.884372-21.6" transform="translate(-421.60257,-198.782826)" fill="none" stroke="#000" stroke-width="2" stroke-linecap="round" data-id-stroke="stroke__000" data-color-stroke="#000"></path></g></g><g xmlns="http://www.w3.org/2000/svg" id="eeZHQu6Ozac23_to" transform="translate(416.8,205.193676)"><g id="eeZHQu6Ozac23_ts" transform="scale(0,0)"><path d="M429.377574,232.415665c15.884371-9.364452,1.067863-20.568676,10.607476-28.668676s-6.118415-3.831154-10.607477-18.531154q-4.489062-14.7,17.868493-13.962261" transform="translate(-421.60257,-198.782826)" fill="none" stroke="#000" stroke-width="2" stroke-linecap="round" data-id-stroke="stroke__000" data-color-stroke="#000"></path></g></g><g xmlns="http://www.w3.org/2000/svg" id="eeZHQu6Ozac24_to" transform="translate(570.356017,317.320955)"><g id="eeZHQu6Ozac24_ts" transform="scale(0,0)"><path d="M571.273581,313.349989q12.666428,8.821832,3.352878,14.660916c-9.31355,5.839084-17.882017-5.060333-9.686093-14.660916s14.529138-3.622509,13.03897-15.561255-5.215588-13.538747-5.58813-13.538747" transform="translate(-578.453918,-306.947854)" fill="none" stroke="#3f5787" stroke-width="2" data-id-stroke="stroke__3f5787" data-color-stroke="#3f5787"></path></g></g><g xmlns="http://www.w3.org/2000/svg" id="eeZHQu6Ozac25_to" transform="translate(570.356017,317.320955)"><g id="eeZHQu6Ozac25_ts" transform="scale(0,0)"><path d="M572.391206,332.047826q9.31355-20.249106,0-14.410022c-9.31355,5.839084-17.843498-10.248486-9.647574-19.849069s-1.368315-14.186919,9.647574-4.774648c5.58813,4.774648.372542-8.7641,0-8.7641" transform="translate(-578.453918,-306.947854)" fill="none" stroke="#3f5787" stroke-width="2" data-id-stroke="stroke__3f5787" data-color-stroke="#3f5787"></path></g></g></svg>