<svg xmlns="http://www.w3.org/2000/svg" xmlns:xlink="http://www.w3.org/1999/xlink" version="1.1" id="boe_canvas__item_1687510574019__svg" x="0px" y="0px" viewBox="0 0 31.443 31.443" style="width: 17.8438px; height: 17.8438px;" xml:space="preserve" preserveAspectRatio="none">
<g xmlns="http://www.w3.org/2000/svg">
<path d="M15.723,0C7.054,0,0.002,7.053,0.002,15.722s7.052,15.722,15.721,15.722c8.667,0,15.718-7.053,15.718-15.722   S24.391,0,15.723,0z M5.793,23.839c-1.622-1.897-2.625-4.163-2.923-6.599h3.87c0.104,1.929,0.388,3.754,0.854,5.44   C6.958,23.023,6.354,23.412,5.793,23.839z M6.74,14.202H2.871c0.298-2.434,1.298-4.696,2.92-6.591   c0.549,0.42,1.153,0.808,1.804,1.154C7.127,10.45,6.84,12.275,6.74,14.202z M8.034,25.917c0.198-0.127,0.395-0.247,0.595-0.36   c0.173,0.383,0.354,0.746,0.544,1.096C8.778,26.427,8.398,26.181,8.034,25.917z M8.631,5.881c-0.213-0.116-0.41-0.234-0.598-0.354   c0.364-0.264,0.744-0.508,1.139-0.733C8.982,5.138,8.801,5.503,8.631,5.881z M14.338,28.048c-1.154-0.565-2.225-1.813-3.082-3.597   c0.983-0.297,2.019-0.492,3.082-0.584V28.048z M14.338,20.822c-1.443,0.103-2.824,0.36-4.122,0.771   c-0.374-1.365-0.611-2.827-0.708-4.354h4.83V20.822z M14.338,14.202h-4.83c0.097-1.522,0.334-2.983,0.704-4.354   c1.302,0.409,2.686,0.668,4.126,0.771V14.202z M14.338,7.574c-1.067-0.092-2.099-0.286-3.082-0.583   c0.857-1.785,1.928-3.032,3.082-3.598V7.574z M17.107,3.396c1.15,0.563,2.222,1.811,3.078,3.594   c-0.983,0.295-2.015,0.492-3.078,0.583V3.396z M17.107,28.048v-4.179c1.07,0.092,2.104,0.285,3.082,0.58   C19.332,26.236,18.262,27.484,17.107,28.048z M21.229,21.597c-1.297-0.412-2.682-0.67-4.121-0.772v-3.582h4.83   C21.84,18.767,21.604,20.229,21.229,21.597z M17.107,14.202V10.62c1.443-0.101,2.824-0.361,4.121-0.771   c0.375,1.367,0.611,2.828,0.709,4.353H17.107z M22.273,26.65c0.188-0.343,0.367-0.705,0.541-1.082   c0.209,0.115,0.406,0.232,0.594,0.351C23.044,26.182,22.667,26.427,22.273,26.65z M22.818,5.886   c-0.174-0.381-0.354-0.746-0.545-1.093c0.395,0.226,0.771,0.47,1.139,0.733C23.215,5.653,23.018,5.772,22.818,5.886z M25.646,7.602   c1.627,1.897,2.629,4.164,2.927,6.601h-3.872c-0.1-1.925-0.389-3.752-0.854-5.443C24.484,8.416,25.087,8.028,25.646,7.602z    M25.65,23.834c-0.551-0.424-1.153-0.812-1.801-1.156c0.467-1.686,0.752-3.509,0.852-5.438h3.872   C28.275,19.673,27.273,21.938,25.65,23.834z" data-id-fill="fill__000000" data-color-fill="#ffffff" fill="#ffffff" style="fill: rgb(255, 255, 255);"></path>
</g>
<g xmlns="http://www.w3.org/2000/svg">
</g>
<g xmlns="http://www.w3.org/2000/svg">
</g>
<g xmlns="http://www.w3.org/2000/svg">
</g>
<g xmlns="http://www.w3.org/2000/svg">
</g>
<g xmlns="http://www.w3.org/2000/svg">
</g>
<g xmlns="http://www.w3.org/2000/svg">
</g>
<g xmlns="http://www.w3.org/2000/svg">
</g>
<g xmlns="http://www.w3.org/2000/svg">
</g>
<g xmlns="http://www.w3.org/2000/svg">
</g>
<g xmlns="http://www.w3.org/2000/svg">
</g>
<g xmlns="http://www.w3.org/2000/svg">
</g>
<g xmlns="http://www.w3.org/2000/svg">
</g>
<g xmlns="http://www.w3.org/2000/svg">
</g>
<g xmlns="http://www.w3.org/2000/svg">
</g>
<g xmlns="http://www.w3.org/2000/svg">
</g>
</svg>