<svg xmlns="http://www.w3.org/2000/svg" xmlns:xlink="http://www.w3.org/1999/xlink" id="e075aY2KGHp1" viewBox="0 0 1000 1000" shape-rendering="geometricPrecision" text-rendering="geometricPrecision"><style><![CDATA[#e075aY2KGHp2_to {animation: e075aY2KGHp2_to__to 5000ms linear infinite normal forwards}@keyframes e075aY2KGHp2_to__to { 0% {transform: translate(1022.961764px,-86.991701px)} 20% {transform: translate(-80.619054px,1016.589133px)} 100% {transform: translate(-80.619054px,1016.589133px)}} #e075aY2KGHp3_to {animation: e075aY2KGHp3_to__to 5000ms linear infinite normal forwards}@keyframes e075aY2KGHp3_to__to { 0% {transform: translate(1022.961764px,-86.991701px)} 50% {transform: translate(1022.961764px,-86.991701px)} 70% {transform: translate(-80.619054px,1016.589133px)} 100% {transform: translate(-80.619054px,1016.589133px)}} #e075aY2KGHp4_to {animation: e075aY2KGHp4_to__to 5000ms linear infinite normal forwards}@keyframes e075aY2KGHp4_to__to { 0% {transform: translate(-80.619054px,-181.886378px)} 22% {transform: translate(-80.619054px,-181.886378px)} 42% {transform: translate(1223.53604px,1122.268711px)} 100% {transform: translate(1223.53604px,1122.268711px)}} #e075aY2KGHp5_to {animation: e075aY2KGHp5_to__to 5000ms linear infinite normal forwards}@keyframes e075aY2KGHp5_to__to { 0% {transform: translate(419.286249px,-184.3049px)} 76% {transform: translate(419.286249px,-184.3049px)} 96% {transform: translate(419.286249px,1165.244058px)} 100% {transform: translate(419.286249px,1165.244058px)}}]]></style><g id="e075aY2KGHp2_to" transform="translate(1022.961764,-86.991701)"><path id="e075aY2KGHp2" d="M-47.238519,18.207566L1344.628768,327.736193L1342.605704,366.174387Q-160.530043,167.91422,-160.530043,169.937283Q-160.530043,171.960346,-47.238519,18.207566Z" transform="rotate(26.692118) scale(0.98635,1.043207) translate(-592.049362,-192.190976)" fill="rgb(255,255,255,0.3)" stroke="none" stroke-width="2"/></g><g id="e075aY2KGHp3_to" transform="translate(1022.961764,-86.991701)"><path id="e075aY2KGHp3" d="M-47.238519,18.207566L1344.628768,327.736193L1342.605704,366.174387Q-160.530043,167.91422,-160.530043,169.937283Q-160.530043,171.960346,-47.238519,18.207566Z" transform="rotate(26.692118) scale(1,0.525235) translate(-592.049362,-192.190976)" fill="rgb(255,255,255,0.3)" stroke="none" stroke-width="2"/></g><g id="e075aY2KGHp4_to" transform="translate(-80.619054,-181.886378)"><path id="e075aY2KGHp4" d="M936.249452,-214.451496L-242.29735,976.501062L-195.775766,1016.589133L981.913247,-189.639985L1119.234351,-86.9917L-162.148466,1047.834158Q-127.544111,1112.964376,-124.442672,1106.761498Q-121.341233,1100.55862,1243.291906,-99.698255L1064.010278,-217.552935L936.249452,-214.451496Z" transform="translate(-500.497278,-444.604282)" fill="rgb(255,255,255,0.3)" stroke="none" stroke-width="2"/></g><g id="e075aY2KGHp5_to" transform="translate(419.286249,-184.3049)"><path id="e075aY2KGHp5" d="M-384.963542,-19.060842L1223.53604,-71.785304L1223.53604,-349.548959L-384.963542,-19.060842Z" transform="translate(-419.286249,184.304901)" fill="rgb(255,255,255,0.3)" stroke="none" stroke-width="2"/></g><script xmlns=""/></svg>