<svg xmlns="http://www.w3.org/2000/svg" xmlns:xlink="http://www.w3.org/1999/xlink" id="boe_canvas__item_1658401847120__svg" viewBox="0 0 1000 1000" shape-rendering="geometricPrecision" text-rendering="geometricPrecision" preserveAspectRatio="none" style="width: 133px; height: 133px;"><style xmlns="http://www.w3.org/2000/svg">#eyb86slE91W2_tr {animation: eyb86slE91W2_tr__tr 5000ms linear infinite normal forwards}@keyframes eyb86slE91W2_tr__tr { 0% {transform: translate(500px,500px) rotate(0deg)} 26% {transform: translate(500px,500px) rotate(11.867477deg)} 50% {transform: translate(500px,500px) rotate(-3.03234deg)} 76% {transform: translate(500px,500px) rotate(12.311382deg)} 100% {transform: translate(500px,500px) rotate(0deg)}}</style><g xmlns="http://www.w3.org/2000/svg" id="eyb86slE91W2_tr" transform="translate(500,500) rotate(0)"><g transform="scale(1.815177,1.815177) translate(-210.176374,-181.899994)"><g><path d="M420.16,217.45c0-.14.06-.28.08-.42s0-.28.06-.42s0-.26,0-.39s0-.29,0-.43v-.4-.41c0-.14,0-.27,0-.41s0-.27-.07-.41s0-.27-.08-.4l-.12-.42c0-.13-.07-.25-.11-.37s-.12-.32-.19-.48c-.028952-.088289-.062327-.175065-.1-.26L326.25,5v0v0c-.001668-.033312-.001668-.066688,0-.1-.11-.22-.21-.43-.33-.64L325.71,4c-.1-.16-.19-.32-.3-.47s-.15-.19-.23-.29-.18-.24-.28-.36-.21-.23-.32-.34-.16-.17-.25-.25l-.43-.38-.2-.16-.61-.43h-.07v0c-.24-.15-.48-.28-.73-.41s-.29-.12-.43-.18l-.32-.14-.54-.23-.21-.07c-.18,0-.37-.08-.55-.12L320,0.11h-.47-.35-.83L318,0c-.177429.007243-.354347.023934-.53.05h-.24l-.57.1-.35.1c-.14,0-.29.07-.43.12-.26625.086856-.526766.190394-.78.31v0L5,140.46v0c-.26.12-.52.25-.76.39L4,141l-.44.29c-.142762.098619-.27966.205466-.41.32-.08.07-.16.12-.23.19s-.25.23-.37.35l-.23.22-.32.33-.25.3-.2.28c-.09.13-.19.26-.28.4l-.12.22c-.1.16-.19.33-.28.5s-.05.13-.08.19c-.091977.181303-.172144.36836-.24.56c0,.1-.07.21-.11.32s-.1.3-.14.45c-.078613.269566-.142046.54333-.19.82v0c.004294.026494.004294.053506,0,.08-.04148.248197-.068194.498638-.08.75-.005213.083252-.005213.166748,0,.25c0,.19,0,.38,0,.57v.36c0,.15,0,.3,0,.46s0,.29.07.44s0,.24.07.37.1.35.15.53l.08.26c.07.23.17.46.26.68.005595.033099.005595.066901,0,.1v0v0L94.12,358.87c0,.05,0,.1.08.16.062089.137339.132211.270904.21.4.057353.116573.120773.230062.19.34.07.12.15.24.23.36l.23.33c.09.11.17.22.26.32l.27.31.28.3.3.28.31.26.33.26.33.23c.12.08.24.16.37.23l.33.19.41.2.16.08.18.07.48.18.36.11.45.12.39.09.45.06.38.05h.51.33.66.18c.85293-.100728,1.685698-.329992,2.47-.68L415.39,223.37v0c.253606-.112672.500664-.23954.74-.38l.35-.22.34-.22c.14-.1.26-.2.38-.3.094356-.067819.184521-.141287.27-.22.12-.1.23-.21.34-.32s.18-.17.26-.26.19-.22.29-.33l.25-.3.25-.36.22-.32c.15-.24.28-.48.4-.72l.09-.21q.14-.28.24-.57c0,0,0,0,0,0l.09-.28c.05-.15.1-.31.14-.47s.09-.31.12-.44ZM22.56,159L168.1,183.41L101.69,334.69ZM206,172.68L37.18,144.42L296.71,27.49Zm-22,16.39c.397298-.915549.630841-1.893719.69-2.89l24.1,4c3.359645.554908,6.723658-.963434,8.53-3.85l16.86-27l155.49,57.09L118.31,338.74Zm59.29-44.28L317.35,26.24L396,200.88Z" fill="#ffffed" data-id-fill="fill__ffffed" data-color-fill="#ffffed"></path></g></g></g></svg>