<svg xmlns="http://www.w3.org/2000/svg" xmlns:xlink="http://www.w3.org/1999/xlink" id="boe_canvas__item_1658301592667__svg" viewBox="0 0 1000 1000" shape-rendering="geometricPrecision" text-rendering="geometricPrecision" preserveAspectRatio="none" style="width: 276px; height: 276px;"><style xmlns="http://www.w3.org/2000/svg">#e1EnMOt3lBb6_tr {animation: e1EnMOt3lBb6_tr__tr 5000ms linear infinite normal forwards}@keyframes e1EnMOt3lBb6_tr__tr { 0% {transform: translate(1065.440277px,1571.35px) rotate(0deg)} 6% {transform: translate(1065.440277px,1571.35px) rotate(-16.968821deg)} 10% {transform: translate(1065.440277px,1571.35px) rotate(-12.726616deg)} 14% {transform: translate(1065.440277px,1571.35px) rotate(-8.484411deg)} 20% {transform: translate(1065.440277px,1571.35px) rotate(-18.04553deg)} 26% {transform: translate(1065.440277px,1571.35px) rotate(-12.941124deg)} 52% {transform: translate(1065.440277px,1571.35px) rotate(2.18551deg)} 60% {transform: translate(1065.440277px,1571.35px) rotate(-7.394928deg)} 66% {transform: translate(1065.440277px,1571.35px) rotate(-16.874882deg)} 72% {transform: translate(1065.440277px,1571.35px) rotate(-14.148611deg)} 78% {transform: translate(1065.440277px,1571.35px) rotate(-18.023115deg)} 84% {transform: translate(1065.440277px,1571.35px) rotate(-13.863935deg)} 100% {transform: translate(1065.440277px,1571.35px) rotate(0deg)}}</style><g xmlns="http://www.w3.org/2000/svg" transform="matrix(.818088 0 0 0.818088 43.326542-546.253476)"><g><g><g><g id="e1EnMOt3lBb6_tr" transform="translate(1065.440277,1571.35) rotate(0)"><g transform="translate(-1065.440277,-1571.35)"><path d="M546.65,1204.19c40.24,42.25,98.44,127.72,71.45,165.11s-137.56,23.78-198.18-38.38c-63.05-64.65-70.86-180.46-31.63-205.58c38.13-24.41,119.25,37.79,158.36,78.85Z" fill="#7d452e" data-id-fill="fill__7d452e" data-color-fill="#7d452e"></path><ellipse rx="90" ry="169.06" transform="matrix(.707107-.707107 0.707107 0.707107 504.770837 1246.068257)" fill="#6d3622" data-id-fill="fill__6d3622" data-color-fill="#6d3622"></ellipse><ellipse rx="95.5" ry="169.06" transform="matrix(.707107-.707107 0.707107 0.707107 751.200837 999.643609)" fill="#7d452e" data-id-fill="fill__7d452e" data-color-fill="#7d452e"></ellipse><path d="M1086.84,1529.54l-355-330.19l129.7-129.71L681.2,889.33L447.63,1122.9l-.13.13-.13.13-6.41,6.41.42.42c-29.84,38.62-18.1,103.88,28.74,150.72s112.11,58.58,150.73,28.75l.42.42l68.42-68.41l327,357.65c9.108639,9.965137,21.895634,15.772786,35.393039,16.074953s26.531492-4.927425,36.076961-14.474953v0c9.490596-9.497581,14.711157-22.446073,14.462208-35.870434s-5.946002-26.170392-15.782208-35.309566Z" fill="#7d452e" data-id-fill="fill__7d452e" data-color-fill="#7d452e"></path><path d="M639.08,872.67l-47,47c20.260863,50.448961,49.8471,96.628053,87.21,136.12c54.66,57.58,113.82,87.5,151.73,102.82l47.1-46.8c-106.061152-48.062428-191.021936-133.058755-239.04-239.14Z" fill="#6d3622" data-id-fill="fill__6d3622" data-color-fill="#6d3622"></path><rect width="103" height="47" rx="21.6" ry="21.6" transform="matrix(.707107-.707107 0.707107 0.707107 686.691187 1272.431129)" fill="#6d3622" data-id-fill="fill__6d3622" data-color-fill="#6d3622"></rect><rect width="103" height="24" rx="12" ry="12" transform="matrix(.707107-.707107 0.707107 0.707107 791.338716 1375.658765)" fill="#6d3622" data-id-fill="fill__6d3622" data-color-fill="#6d3622"></rect><path d="M773.16,1158l-23.58,23.58c-86.329874-25.335376-155.226415-90.611854-185.18-175.45l23.08-23.08c26.630601,87.030091,97.220558,153.540825,185.68,174.95Z" fill="#6d3622" data-id-fill="fill__6d3622" data-color-fill="#6d3622"></path><path d="M667.1,1264.06l-23.58,23.58c-32.149692-9.406729-62.341846-24.528211-89.13-44.64-14.122238-10.631149-27.225311-22.552469-39.14-35.61q-9.15-10.08-16.85-20.38c-17.116685-22.738233-30.628469-47.977545-40.06-74.83l23.07-23.07c26.648327,87.022766,97.235664,153.527449,185.69,174.95Z" fill="#6d3622" data-id-fill="fill__6d3622" data-color-fill="#6d3622"></path></g></g><g><path d="M775.58,1649.19h-672v91.81h.09c-.059164.194526-.089487.396676-.09.6c0,14.27,150.43,25.85,336,25.85s336-11.58,336-25.85c-.003895-.203806-.037585-.405947-.1-.6h.1Z" fill="#6d3622" data-id-fill="fill__6d3622" data-color-fill="#6d3622"></path><ellipse rx="336" ry="25.85" transform="translate(439.58 1647.46)" fill="#7c3f2d" data-id-fill="fill__7c3f2d" data-color-fill="#7c3f2d"></ellipse><path d="M687.3,1569.47c0-10.52-110.91-19-247.72-19s-247.73,8.53-247.73,19c.029241.431651.197664.842182.48,1.17h-.48v59.11h.07c2.69,10.34,112.53,18.67,247.66,18.67s245-8.33,247.65-18.67h.07v-59.11h-.48c.288905-.323749.458293-.736632.48-1.17Z" fill="#7d452e" data-id-fill="fill__7d452e" data-color-fill="#7d452e"></path></g></g></g></g></g></svg>