<svg xmlns="http://www.w3.org/2000/svg" xmlns:xlink="http://www.w3.org/1999/xlink" version="1.1" id="boe_canvas__item_1697210591781__svg" x="0px" y="0px" viewBox="0 0 785.1 237.7" enable-background="new 0 0 785.1 237.7" xml:space="preserve" preserveAspectRatio="none" style="width: 140px; height: 43px;">
<path xmlns="http://www.w3.org/2000/svg" fill="#FC7068" d="M675.1,86.5c1.4-4,3-7.9,4.2-11.9c0.8-2.7,0.9-5.9,4.5-6.4c4.7-0.7,9.3-0.8,12.6,3.4  c2.4,2.9,2.6,5.9,0.8,9.4c-9.7,18.9-16.6,38.8-20.6,59.6c-1.2,6.4-1.5,12.9-2.2,19.3c-0.1,1.4,0,3,0.5,4.4c2,6.4,5.9,7.5,10.1,2.4  c4.2-4.9,7.5-10.6,11.5-15.7c7.5-9.6,12.6-20.4,16.7-31.8c1-2.9,3.5-5.2,5.2-7.6c-1.1-6.4-3.1-13.2-3.2-19.9  c-0.3-17.9,11.1-30.4,29-32.8c7.3-1,15.3-0.9,20.6,3.8c8.4,7.4,19.1,13.7,20.2,26.8c0.5,5.6-3,8.8-7.8,6.6c-1.6-0.7-3.1-3-3.6-4.8  c-2-7.3-5.6-13.5-11.6-18.1c-8.2-6.3-23.5-2.5-27.8,7c-3.3,7.4-3.8,15-0.6,22.5c2.1,5.1,4.8,10,7.3,15c1.3,2.7,3.2,3.3,6,2.1  c5.6-2.4,11.3-4.6,16.9-6.9c3.4-1.4,7.5-0.1,9,3.1c1.5,3,0.5,5.4-3.6,7.2c-4.7,2.1-9.5,3.9-14.3,5.7c-3.3,1.2-4.1,3.2-2.5,6.3  c1.9,3.9,3.8,7.8,5.7,11.7c4.4,9.1,5.5,18.8,3.2,28.5c-3.4,14.7-11,22.4-28.3,20.5c-12.1-1.3-21.9-6.9-29.5-16.1  c-5.2-6.3-6.1-13.7-3.2-21.6c-0.9,1.5-1.9,3-2.8,4.5c-1,1.6-1.9,3.3-2.9,4.9c-2.2,3.4-4.3,6.9-6.8,10.1c-1.5,1.8-3.5,3.6-5.6,4.5  c-6.3,2.7-18.4-1.9-20.8-8.3c-1.8-5-2.5-10.4-3.4-15.7c-0.4-2.2-0.2-4.6-1.3-7.4c-2.3,3-4.6,6-6.7,9.2c-3.7,5.3-7,11-11.1,16  c-8.4,10.6-21.2,10.2-29.8-0.5c-0.7-0.8-1.3-1.7-2.2-3c-1.6,3.2-3.2,6-4.3,9c-3.5,9.7-9.6,17.9-16.3,25.6  c-6.2,7.2-14.3,10.9-23.8,10.1c-14.1-1.1-24.8-14.4-23-28.7c2.8-22.9,10.2-44.5,20.7-65c0.7-1.3,1.3-2.6,2.3-4.5  c-1.3,0.3-2,0.2-2.4,0.6c-5.5,4.3-11.1,8.5-16.4,13.2c-6.9,6.1-13.3,12.7-20.3,18.7c-5.3,4.6-8.2,3.8-12.6-1.8  c-5.8-7.3-6.8-15-3-23.5c2.9-6.5,5.4-13.2,8.1-19.8c-0.3-0.2-0.6-0.4-0.9-0.6c-1.2,1.6-2.6,3.1-3.5,4.8c-6.8,12.5-14,24.8-20.1,37.6  c-3.4,7.4-4.7,15.7-7.2,23.6c-2,6.4-4.1,12.9-6.8,19c-3.2,7.1-7.1,7.8-13.5,3.1c-1.1-0.8-2.1-1.6-2.5-1.9  c-5.8,7.7-11.1,15.5-17.1,22.7c-6.2,7.3-15.7,8.5-23.8,3.5c-7.2-4.4-11.5-10.7-11.9-19.6c-1.1-27.3,4-53.9,9.1-80.5  c2.1-10.8,2.2-10.8-7.5-15.8c-3.4-1.7-6.9-3.2-10.4-4.6c-5.3-2.1-9.8-0.6-13.4,3.8c8.9,4.3,15.6,11,21.3,18.6  c2.5,3.3,3.6,7.7,4.6,11.8c0.8,3.1-0.4,6-4.2,6.6c-3.8,0.6-6.2-1-7.1-4.9c-1.7-7.5-5.5-13.8-11.6-18.5c-8.2-6.3-23.5-2.4-27.8,7.1  c-3.2,7.3-3.7,14.7-0.7,22.1c2.2,5.2,4.9,10.2,7.4,15.3c1.3,2.7,3.2,3.3,6,2.1c5.6-2.4,11.3-4.6,16.9-6.9c3.2-1.3,7.2-0.2,8.8,2.8  c1.6,2.9,1,5.4-2.1,6.8c-4.3,2-8.6,3.9-13.1,5.4c-6.5,2.2-7.2,3.4-4,9.5c4.6,8.8,8.9,17.7,8.8,28c-0.1,9.8-2.1,18.7-9.5,25.9  c-5.8,5.7-12.9,5-19.9,4.5c-12.2-0.8-21.8-6.8-29.5-16c-5.9-7.1-6.1-15.7-1.2-23.4c5.9-9.3,13.4-17,22.3-23.4c4.3-3.1,4.5-4,1.9-8.7  c-1.8-3.3-3.7-6.5-5.6-9.8c-8,12.7-15.8,24.9-23.3,37.2c-1.8,3-2.6,6.8-3.6,10.3c-3,9.8-10.6,15.1-20.8,14.5  c-7.2-0.5-12.5-5.3-14.2-12.9c-2.2-9.8-2.5-19.7-0.2-29.4c2.8-12.4,6-24.7,9.3-36.9c1.5-5.5,3.6-10.8,5.3-16.2  c1.4-4.3,3.5-5.4,7.7-4c8.1,2.7,11.2,8.9,8.8,17.7c-3.6,13.5-7.3,26.9-10.5,40.4c-1.5,6-2,12.3-3,18.4c-0.1,0.9-0.4,2-0.1,2.8  c0.8,2.1,1.3,5,2.9,6.1c2.6,1.7,4.4-1.2,5.7-3.2c4.8-7.5,9.5-15.1,14.2-22.8c5.8-9.6,11.7-19.2,17.2-29c1-1.8,0.1-4.6,0.1-6.9  c-0.1-5.6-1.2-11.4-0.2-16.9c2.1-11.9,10-19.1,21.2-23c1.1-0.4,2.3-0.7,3.8-1.2c-2-3.6-0.1-6.1,2.1-8.7c4.5-5.4,8.7-10.9,16.7-10.9  c10.1,0,19.5,2.6,28.3,7.6c1.1,0.6,2.1,1.3,3.1,1.9c4.1,2.4,5.3,2,6.6-2.6c4.5-15.7,8.9-31.5,13.4-47.2c1.1-3.9,3.5-5.6,7.5-5.1  c8.8,1.1,12.5,6.8,10.1,16.1c-3.5,13.6-7.1,27.2-10.6,40.9c-0.4,1.7,0.1,3.5,0.2,5.3c1.9-0.1,3.9,0.1,5.6-0.5  c3.2-1.1,6.2-2.7,9.3-4.1c4.1-1.8,5.9-0.8,6.8,3.6c0.2,0.9,0.2,1.8,0.5,4c1.3-2.9,2.2-4.8,2.9-6.8c1.3-3.6,3.7-5.4,7.6-5.4  c4,0,7.1,1.4,9,5.1c1.9,3.9,1.7,7.8,0.5,11.9c-3.7,12.3-7.3,24.6-10.9,36.9c-0.5,1.6-0.6,3.3-0.9,4.9c0.4,0.2,0.9,0.3,1.3,0.5  c3.6-6.9,7.1-13.8,10.9-20.6c6.6-12,13.3-23.9,23.5-33.3c1.8-1.6,3.2-3.7,4.7-5.6c3.5-4.3,9-5.2,16-2.6c5.2,1.9,7.8,5.7,7.5,11.2  c-0.1,2-0.7,4-1.4,5.9c-3.2,8.2-6.5,16.4-9.7,24.5c-0.6,1.4-0.9,2.9-0.6,4.8c3.5-3.2,7-6.3,10.4-9.6c8.2-7.8,17.3-14.3,27.3-19.6  c3.9-2.1,7.9-3.5,12.4-1.4c8.9,4.1,10.6,9.3,6.7,18.4c-4.4,10.2-8.5,20.5-12.2,31c-4.7,13.2-9,26.6-13.4,40  c-0.5,1.5-0.8,3.2-0.9,4.8c-0.2,3.1,0,6.6,3.3,7.6c2.4,0.7,5.9,0.6,7.9-0.7c4.6-3.2,9.1-6.9,12.8-11.1c7.5-8.7,14.3-18,18.9-28.7  c0.9-2.2,1.3-4.9,1-7.3c-2.3-15.9-0.1-31.3,4.3-46.5c3.5-12.2,8.9-23.6,16.2-33.9c3.5-4.9,7.9-9.4,12.5-13.2  c7.7-6.4,18.6-5.8,25.4,1.6c3.5,3.8,5.9,8.6,8.5,13.2c1.6,2.8,2.6,5.9,3.9,8.9C674,86.3,674.6,86.4,675.1,86.5z M621.3,149.9  c0.4,3.5,0.4,7.1,1.3,10.4c0.6,2.1,2.4,5,4.1,5.4c1.7,0.4,4.5-1.4,6-3c4.7-4.9,9.2-9.9,13.4-15.2c5.2-6.5,10.7-12.9,12.5-21.6  c1.1-5.6,2.4-11.1,4.5-16.4c5-13.2-0.6-24-8-33.9c-6.2-8.2-14.1-6.3-17.7,3.4c-2.5,6.7-5,13.4-7.2,20.2  C624.9,115.7,618.4,131.9,621.3,149.9z M467,103.8c-1,0.4-1.3,0.5-1.5,0.6c-5.9,5.9-12.4,10-21.4,7.9c-3-0.7-4,1.5-4.5,4  c-5.6,24.3-9.3,48.9-11.5,73.7c-0.4,4.9,0.6,9.9,1.3,14.8c0.5,3,2.6,3.3,4.8,1.4c1.6-1.4,3.3-2.8,4.6-4.5  c9.7-12.5,15.6-26.5,15.9-42.5c0-2.8,0.2-5.7,0.3-8.5C456.1,134.5,460.1,119.2,467,103.8z M369.8,202.7c-1.9-6.4-3.6-12.1-5.3-17.8  c-0.8-2.6-2.6-3.1-4.7-1.6c-7,5.1-14.1,10-18.8,17.6c-7.3,11.9-1.4,24.6,12.4,26.4c0.5,0.1,1.1,0.2,1.6,0.2c8.2,1.2,11.5-2.9,13-9.5  C369.3,212.9,369.3,207.5,369.8,202.7z M742.3,161c-1.9-6.5-3.6-12.2-5.3-17.9c-0.8-2.7-2.7-3-4.7-1.5c-7,5.1-14.1,10-18.8,17.6  c-7.3,11.9-1.3,24.6,12.5,26.4c0.7,0.1,1.3,0.2,2,0.2c6.9,0.4,10.9-2,12.4-8.7C741.7,171.7,741.8,166,742.3,161z M721.8,116.5  c-6.5,12.7-12.8,25.1-19,37.5c5.9-6,11.3-12.2,17.5-17.5c9.7-8.3,9.9-8.2,2.7-19C722.7,117.3,722.5,117.2,721.8,116.5z" data-id-fill="fill__fc7068" data-color-fill="#fc7068"></path>
<path xmlns="http://www.w3.org/2000/svg" fill="#FC7068" d="M217,135.7c6-7,11.9-14,17.9-20.9c7.3-8.3,15.4-15.9,26.4-18.9c4.6-1.3,10.1-1.6,14.7-0.5  c12.2,3.1,16.8,12.6,13.2,26.6c-3,11.8-9,22-17.5,30.7c-3.2,3.3-7.1,6-12.2,5.4c-4-0.5-6.9-2.7-8.2-6.4c-1.3-3.6,0.4-8,3.7-10.3  c8.7-6,14.6-14,17.3-24.3c0.4-1.4,0.7-2.9,0.8-4.4c0.4-4.6-2.7-7.5-7.1-5.9c-3.5,1.2-6.9,3.2-9.8,5.5  c-14.5,11.6-25.2,26.4-34.7,42.1c-3.3,5.4-6.6,10.9-9.4,16.6c-2.3,4.7-4.2,9.7-5.6,14.7c-1.6,5.8-8,12.6-13.8,13.5  c-3.6,0.5-6.3-1.3-7.5-4.3c-1.5-3.7-2.3-7.7-2.8-11.7c-0.3-2.3,0.3-4.7,0.5-7.3c-5.3,4-10,7.9-15.1,11.4c-5.7,3.8-12,6.2-19.2,5.2  c-4-0.6-6.9-2.3-9.3-5.7c-7.9-11.2-9.4-23-2.8-35.1c7.1-12.9,14.8-25.5,22.2-38.2c1.5-2.6,3-5.3,5-8.8c-5.8,0.5-9.7,2.4-12.8,5.6  c-11,11.2-21.9,22.5-32.9,33.8c-1.3,1.3-2.9,2.4-4.2,3.8c-2,1.9-4.5,3.7-5.7,6c-3.4,7.1-6.3,14.3-9.2,21.6c-2.4,6-3.5,7.1-7.6,6.7  c-6.4-0.8-9.3-3-9.3-9c-0.1-5.1,0.1-10.5,1.6-15.2c11.2-33.8,22.9-67.4,38.4-99.5c7.4-15.3,15.5-30.1,28-42c5.3-5,11-6.1,16.6-2.8  c3.1,1.9,3.7,5.6,0.8,7.7c-9.7,6.9-14.8,17.1-20,27.2c-3,5.8-5,12.2-7.5,18.4c-4.9,12-9.9,23.9-14.7,36c-2.6,6.6-4.8,13.4-7.2,20.1  c0.3,0.2,0.7,0.5,1,0.7c3-2.6,6-5.2,8.9-8c4.9-4.7,9.2-10,14.5-14.3c4.1-3.3,9-6.1,14-7.8c14.1-4.8,25,5.2,21.8,19.7  c-1,4.7-3.1,9.2-5.2,13.6c-6.3,12.7-13,25.3-19.2,38c-1.4,2.9-2.1,6.4-2.4,9.7c-0.4,5.1,2.8,7.3,7.2,4.7c5-2.9,9.8-6.4,13.9-10.4  c5.5-5.5,11-11.4,15.1-18c4.1-6.6,7-14,9.7-21.3c4.8-12.6,13.1-23,20-34.3c1.5-2.4,3.8-3.4,6.6-2.7c3.9,0.9,7.1,2.7,8.4,6.8  c1.5,4.5,0.1,8.4-2.4,12.3c-4.1,6.4-8,12.9-11.9,19.3c-0.8,1.3-1.2,2.9-1.8,4.4C216.5,135.5,216.7,135.6,217,135.7z" data-id-fill="fill__fc7068" data-color-fill="#fc7068"></path>
<path xmlns="http://www.w3.org/2000/svg" fill="#FC7068" d="M20.3,129.3c1,6.2,1.4,12.2,3,17.9c2.6,9.1,10.6,12,18.9,7.5c13.5-7.2,21.7-18.8,27.9-32.3  c1.3-2.8,2.6-5.7,4-8.4c1.9-3.8,5.1-4.6,8.9-3.7c3.4,0.7,4.8,2.9,3.3,6c-8.2,17-17.4,33.4-33,45.1c-15.3,11.5-29.4,7.3-41.7-4.9  c-7.7-7.6-10.1-17.5-11-27.7C-3.1,89.5,10.2,55,32.6,23.6c4.3-6.1,9.9-11.6,15.7-16.4c10.7-8.8,30.5-9.6,42.3-2.6  c11.6,6.9,18.9,22.9,16.7,37.2c-0.5,3.4-1.5,6.9-2.7,10.1c-1.5,4-4,4.7-8.5,3.5c-4-1.1-4.2-3.8-3.8-7.3C93,41.8,94,35.4,93.8,29  c-0.2-6.9-4.8-12-9.6-16.4c-4-3.7-8.1-3.6-12.7-0.6c-8.4,5.3-14.3,13.1-19.3,21.1C40,52.5,30.2,73.2,25.3,95.8  C22.9,106.9,21.9,118.2,20.3,129.3z" data-id-fill="fill__fc7068" data-color-fill="#fc7068"></path>
<path xmlns="http://www.w3.org/2000/svg" fill="#FC7068" d="M322.2,114.5c-9.4,1.3-15.8-1.6-19.4-7.9c-3.3-5.9-2.8-13.1,1.7-18.6c1.2-1.5,3.1-2.9,4.9-3.2  c16.7-3,23.8,10,21.8,23.3C330.3,113.6,325.4,114.2,322.2,114.5z" data-id-fill="fill__fc7068" data-color-fill="#fc7068"></path>
</svg>