<svg xmlns="http://www.w3.org/2000/svg" xmlns:xlink="http://www.w3.org/1999/xlink" version="1.1" id="boe_canvas__item_1697210549711__svg" x="0px" y="0px" viewBox="0 0 189.7 141" enable-background="new 0 0 189.7 141" xml:space="preserve" preserveAspectRatio="none" style="width: 36px; height: 26px;">
<path xmlns="http://www.w3.org/2000/svg" fill="#FEF2DF" d="M131.7,98.7c-2.7,4-5.1,8.2-8,12c-2.8,3.7-6.3,6.6-11.1,7.5c-2.6,0.5-4.9,0-7.2-1.6  c-7.6-5.5-11-12.8-9.4-22.1C97.9,85,100,75.5,102,66c0.4-2.1,0.8-4.2,1.4-7c-3.6,1.5-5.7,3.6-7,6.3c-4.6,9.4-9,18.9-13.6,28.4  c-0.7,1.5-1.8,2.7-2.5,4.2c-0.7,1.4-1.6,2.9-1.8,4.5c-0.6,4.6-1.1,9.2-1.2,13.9c-0.2,7.8-1.6,9.1-8.5,7.9c-2.7,4-5.1,7.9-7.8,11.6  c-3.4,4.9-9.1,6.7-14.7,4.6c-5.6-2.1-9.4-6-10.5-12.2c-3.2-18.1-2-36.3-0.9-54.5c0.4-7.5,0.6-7.5-6.5-10c-2.2-0.8-4.5-1.5-6.8-2.1  c-3.7-1-6.6,0.2-8.8,3.2c-1,1.4-1.9,2.9-3.1,4.1c-2.1,2.2-4.3,2.2-6.5,0.3c-3.9-3.2-3.9-4.7-1.5-9.2c3.5-6.7,9-9.2,16-8.2  c5.1,0.7,10.1,2.1,15,3.7c3.7,1.2,4.3,1.2,4.8-2.6c1.6-10.8,3.2-21.6,4.8-32.4c0.3-2.2,1.5-3.5,3.7-3.8c5.4-0.8,9.4,2.7,9.1,8.2  c-0.2,4.1-0.9,8.1-1.4,12.2c-0.8,6.1-1.6,12.1-2.2,18.2c-0.1,1,0.3,2.6,0.9,3c0.7,0.4,2.2-0.1,3.1-0.6c2.2-1.1,4.2-2.6,6.3-3.8  c1-0.5,2.1-0.8,3.1-1.1c1.2-8.4,2.3-16.9,3.6-25.5c1.1-7.5,3.7-14.7,7.1-21.5c2.2-4.3,5.9-6.2,10.1-5.2C87.9,0.8,89,3,87.7,4.9  c-5.4,7.9-6.8,17.1-7.5,26.2c-1.1,15.5-1.5,31.1-2.2,46.6c0,0.9,0.1,1.9,0.2,2.8c0.2,0.1,0.5,0.1,0.7,0.2c1.8-3.5,3.7-7,5.5-10.5  c1.9-3.6,3.6-7.4,5.8-10.8c1.5-2.3,3.7-4.3,5.9-5.9c7.9-5.9,16.9-2,18.1,7.8c0.4,3.3,0,6.7-0.4,10c-1.3,9.5-2.8,18.9-4,28.4  c-0.3,2.1,0,4.4,0.6,6.4c0.9,3.5,3.4,4.2,5.8,1.5c2.6-3,5-6.4,6.7-9.9c3.4-7.1,5.8-14.5,6.7-22.6c1.7-14.4,6.8-27.5,17.6-37.9  c6.4-6.2,13.6-7.8,21.8-5.5c11.4,3.2,16,14.3,10.8,24.9c-4.3,8.8-10.7,14.5-20.9,14.8c-2.9,0.1-5.9-1-8.7-1.8  c-1.7-0.5-3.3-1.4-5.5-2.4c-0.5,1.3-1.2,2.5-1.2,3.8c-0.2,6.3-0.4,12.6-0.1,18.8c0.1,2.4,1.2,5,2.3,7.2c2.9,5.5,9.1,6.6,14.5,2.3  c2.8-2.2,5-5.3,6.9-8.4c6.5-10.7,12.6-21.6,19-32.3c0.6-1,1.9-1.5,2.9-2.3c0.3,1.2,1,2.6,0.7,3.6c-0.7,2.3-2,4.5-2.9,6.8  c-2.6,6-5.1,12.1-7.9,18c-1.3,2.7-3.1,5.1-4.7,7.6c-1,1.6-2.5,3-3.2,4.7c-5,12.4-25.3,18.5-37.6,3.6  C132.6,100,132.1,99.3,131.7,98.7z M64.6,61.5c-3.3,3.6-6.7,6.2-11.4,5.7c-2.8-0.3-3.8,1.1-3.9,3.6c-0.5,14.5-1.3,29.1-1.5,43.6  c-0.1,4.8,0.8,9.8,1.9,14.5c0.8,3.6,2.4,3.7,4.7,0.8c6.4-8.1,8.8-17.6,9.2-27.7c0.3-7.9,0.2-15.8,0.4-23.7  C64.1,72.9,64.4,67.5,64.6,61.5z M173.5,43.8c-1.7-7.1-5.9-9.5-13.8-8c-2.7,0.5-4.6,1.8-5.7,4.5c-0.9,2.2-2.3,4.2-3.3,6.3  c-1.4,2.9-2.8,5.7-3.8,8.7c-1.4,4.1-0.5,6.6,3.6,8.1c3.2,1.1,7.3,2.2,10.3,1.2C172.7,60.5,175.5,54.8,173.5,43.8z" data-id-fill="fill__fef2df" data-color-fill="#fef2df"></path>
</svg>