<svg xmlns="http://www.w3.org/2000/svg" xmlns:xlink="http://www.w3.org/1999/xlink" version="1.1" id="boe_canvas__item_1697210569494__svg" x="0px" y="0px" viewBox="0 0 597.3 322.9" enable-background="new 0 0 597.3 322.9" xml:space="preserve" preserveAspectRatio="none" style="width: 93.75px; height: 50.8906px;">
<path xmlns="http://www.w3.org/2000/svg" fill="#FEF2DF" d="M281.5,114.6c2.2-4.5,4.6-9,6.5-13.6c1.3-3.1,1.8-6.8,6.2-7c5.6-0.2,11.1,0.3,14.5,5.7  c2.4,3.8,2.3,7.4-0.3,11.3c-14,21.1-24.8,43.8-32.4,68c-2.3,7.4-3.5,15.1-5.1,22.6c-0.4,1.7-0.4,3.6,0,5.3c1.5,7.8,6,9.7,11.7,4.3  c5.8-5.5,11.1-11.7,16.3-17.9c5.4-6.5,10.5-13.4,15.5-20.3c1.6-2.3,2.7-5.2,3.4-7.9c4.8-19,13.9-35.7,25.8-51.1  c12-15.5,30.5-17.5,46.1-13.7c8.1,2,14.4,8.4,18,16.6c0.9,2,1.7,4.1,3.3,7.7c2.1-4.6,3.8-7.8,5.1-11.1c3.1-7.7,5.5-9.3,12.6-7.8  c6.3,1.3,9.3,5.2,8.9,12.3c-0.1,2.5-0.6,5.1-1.4,7.6c-8.2,24.5-16.5,48.9-24.7,73.3c-2.1,6.1-1.5,6.4,4.9,6.2  c3.2-0.1,6.8,0.6,9.6,2.1c3.5,2,2.8,5.9-1.1,7.1c-4.3,1.3-8.7,2.5-13.2,2.8c-4.3,0.3-6.2,2.1-7.4,6.1c-4.9,17-9.8,34.1-15.3,51  c-2.8,8.6-6.7,16.8-10.5,24.9c-4.6,10-12.3,16.8-22.9,20.2c-1.8,0.6-3.7,1.2-5.5,1.8c-14.2,4.4-25.2,1.2-34-10.8  c-14.5-19.6-15.9-39.2-1.1-59.4c7.3-9.9,16.2-18.2,27.1-23.8c11.3-5.8,23-10.7,34.8-15.6c4-1.6,6.5-3.5,7.6-7.8  c2.5-9.3,5.4-18.5,7.3-28.2c-2.3,2.8-4.9,5.4-6.9,8.4c-7.8,12.2-18.4,20.9-31.8,26.4c-6.9,2.8-13.2,2.4-19.3-1.7  c-9.3-6.2-15.6-14.4-17.3-26c-8,10.9-15.6,21.5-23.4,31.9c-2.7,3.6-5.6,7.1-8.9,10.2c-2,1.9-4.8,3.5-7.4,4.1  c-8.6,1.9-21.2-5.5-23.1-14c-1.3-5.9-1.2-12.1-1.5-18.2c-0.1-2.6,0.2-5.3-0.8-8.4c-3.1,3.4-6.3,6.7-9.3,10.2  c-5,5.7-9.8,11.6-14.9,17.2c-11.7,13.2-22.9,8.4-33.9-2.5c-1.2-1.2-2-2.8-3.1-4.3c-4,4.3-7.8,8.7-11.9,12.7  c-9.5,9.2-27.6,10.3-38.1,2.3c-7.8-5.9-9.5-14.9-10-23.8c-0.8-14.7,2.5-29.1,7.3-42.7c6.7-19.3,15-38.1,22.6-57.1  c1-2.5,1.9-5,3.2-8.4c-1.4,0.8-1.8,1-2.2,1.3c-15.4,16.1-30.8,32.2-46.3,48.2c-3.1,3.2-7,5.6-10.8,8.1c-2.8,1.8-4.1,3.8-3.3,7.2  c0.7,3,1.1,6,1.6,9.1c0.5,4,0.3,8-3.8,10.1c-4,2.2-8,1-11.3-1.7c-8.5-6.8-14.5-15.5-16-26.3c-1.6-11.3-2.1-22.8-3-34.3  c-1.1-15-1.9-30-3-44.9c-0.2-2.6-1.2-5.2-2.8-7.9c-0.6,1.6-1.2,3.1-1.7,4.8C49.5,102.5,42.4,140.3,35,178  c-2.2,11.1-4.7,22.1-7.2,33.1c-0.6,2.6-1.7,5.2-2.8,7.7c-2.8,6.1-5.5,7.7-11.2,7c-6.3-0.9-9.7-4-10.6-10.2c-0.4-2.8-0.6-5.9,0-8.7  c7.9-37.8,15.3-75.6,24-113.2C31.2,76.9,37.3,60.4,43,44c1.3-3.8,4.8-7.2,8-9.9c2.8-2.5,3-3.9,0.6-6.6C40.2,15,29,13.4,14.5,22.1  C10,24.8,3.6,22.6,1.1,17.4C-1.4,12.3,0.4,6.6,5.7,5.1c7.4-2.1,15-3.9,22.6-5c3.6-0.5,7.8,0.4,11.3,1.8c21.3,8.5,36,23,43.3,45.6  c8.5,26.3,13.5,52.8,13.1,80.3c0,2,0,4,0,6c0.4,0.2,0.9,0.3,1.3,0.5c1.3-1.3,2.6-2.5,3.9-3.8c12.8-13.9,25.2-28.1,38.4-41.7  c7.1-7.2,15.4-13.3,23.1-19.8c0.9-0.7,1.9-1.2,2.9-1.8c7.8-4.1,16.5-3.9,21.4,0.5c6.2,5.5,7.8,15.3,4.7,23.7  c-8.2,21.7-16.7,43.3-24,65.3c-4.7,14.2-7.5,29-10.9,43.6c-0.7,3.1-0.5,6.4-0.1,9.6c0.4,3.7,2.9,5.2,6.2,3.4  c10.3-5.4,18.6-13.3,22.9-24.1c1.9-4.7,0.5-10.5,1.1-15.8c3.1-29.8,15.1-55.9,34.4-78.6C226,89.6,232,85,238,81  c9.9-6.6,22.8-4.4,29.9,5.2c3.7,4.9,5.9,11,8.4,16.8c1.5,3.5,2.3,7.4,3.4,11.1C280.2,114.2,280.8,114.4,281.5,114.6z M209.3,182.5  c0,4.2-0.5,8.5,0.2,12.5c0.4,2.6,2.1,6.2,4.1,6.9c2,0.7,5.5-1.1,7.6-2.7c6.2-5.1,12.2-10.6,17.9-16.3c7-7.1,14.4-13.9,17.7-23.9  c2.1-6.6,4.6-13.1,7.7-19.3c7.4-15,2.2-28.6-5.5-41.1c-6.3-10.3-15.7-8.9-21.1,2c-3.8,7.7-7.7,15.2-11.3,23  C218.1,142.4,208.2,160.9,209.3,182.5z M341.4,188.3c-0.3,8.4,4.1,11.5,11.8,8.5c2.4-0.9,4.7-2.1,6.8-3.6  c14.6-10.8,27.8-23.1,38.2-38.1c1.8-2.6,2-4.7,0.5-7.5c-1.4-2.6-2.1-5.7-2.7-8.6c-1.4-6.1-2.4-12.3-3.9-18.4c-1.2-5-4.6-8.1-9.8-8.8  c-5.1-0.7-9.3,1-12,5.5c-4.7,7.7-9.7,15.3-13.8,23.3C348.7,155.5,343.3,171.5,341.4,188.3z M379.4,225.5c-3.5,0.6-5.4,0.7-7.2,1.3  c-19.1,6.2-34.9,17.2-47.2,33.2c-11,14.4-9.8,33.1,3.5,45.6c1.8,1.7,5.3,2.6,7.7,2.2c11.1-1.8,18.7-8.3,22.9-18.7  c2.8-7,5.7-14.1,7.9-21.3C371.3,254.2,375.1,240.5,379.4,225.5z" data-id-fill="fill__fef2df" data-color-fill="#fef2df"></path>
<path xmlns="http://www.w3.org/2000/svg" fill="#FEF2DF" d="M492.2,178.5c-6.9,8.8-14.9,16.6-18.8,27.4c-4.2,11.8-13.9,16.8-26.1,14.9c-8.6-1.3-14.5-7.9-15.6-17.3  c-1.3-11.9-0.3-23.6,3.6-34.9c5-14.3,10.4-28.4,15.9-42.5c2.5-6.3,5.7-12.3,8.5-18.5c2.2-4.9,4.8-5.9,9.6-3.7  c9.3,4.3,12.1,12,8.1,22.2c-6,15.5-12.2,30.9-17.9,46.5c-2.5,6.9-4,14.3-6,21.4c-0.3,0.9-0.7,2-0.5,2.8c0.7,2.8,0.8,6.6,2.6,8  c3.1,2.5,5.7-1,7.5-3.3c8.5-10.7,16.8-21.7,25.2-32.5c7.6-9.8,14.1-20.3,19.8-31.4c5-9.7,11.2-18.9,18-27.5  c7.4-9.5,17.4-16.1,29.4-18.3c4.5-0.8,10-0.7,14.1,1.1c11.5,5.1,21.4,12.7,23.9,25.9c2,10.5,3.1,21.3,3.6,32.1  c0.4,7.1-3.1,11.2-8.3,11.9c-6.6,1-14.9-3.5-16.6-9.2c-1.1-3.5-0.1-6.6,2.6-9.2c11.1-10.8,6.7-33.4-7.5-39.4c-4.6-2-8.4-1-11.9,3.5  c-17.7,23.5-33.2,48-39,77.6c-1.4,7.1-3.6,14-2.1,21.5c2.4,12.4,12.7,16.4,22.4,8.1c6.4-5.5,12.3-11.5,18.5-17.1  c1.3-1.2,3.8-2.8,4.7-2.4c1.5,0.8,3.1,3.2,3,4.8c-0.4,3.9-0.7,8.4-2.9,11.3c-7,9.5-15.1,17.3-28.2,18.2c-7.3,0.5-14.5,1.6-21.4-1.2  c-3.1-1.3-6.3-3.4-8.2-6.1C492.9,209.8,489.8,194.8,492.2,178.5z" data-id-fill="fill__fef2df" data-color-fill="#fef2df"></path>
<path xmlns="http://www.w3.org/2000/svg" fill="#FEF2DF" d="M485.9,100.9c-11.1,0.3-18.1-3.8-21.6-11.8c-3.3-7.5-1.7-16.3,4.5-22.2c1.5-1.5,3.8-2.7,5.8-3  c7.6-0.9,15.2,1.1,19.5,7.2c4.8,6.7,6.5,15.2,3.4,23.5C495.3,100.7,489.9,101,485.9,100.9z" data-id-fill="fill__fef2df" data-color-fill="#fef2df"></path>
</svg>