<svg xmlns="http://www.w3.org/2000/svg" xmlns:xlink="http://www.w3.org/1999/xlink" version="1.1" id="boe_canvas__item_1697210584847__svg" x="0px" y="0px" viewBox="0 0 102.5 100.1" enable-background="new 0 0 102.5 100.1" xml:space="preserve" preserveAspectRatio="none" style="width: 28px; height: 28px;">
<path xmlns="http://www.w3.org/2000/svg" fill="#FEF2DF" d="M58.3,54.4c-3.4,2-7.1,2.7-11.1,2.4c-0.4,0-1,0.5-1.3,1c-2.4,4.3-4.8,8.6-7.2,12.9c-0.2,0.3-0.4,0.6-0.6,0.8  c-5.8,3.5-11.3,7.8-18.8,7.4C8.1,78.3-0.5,68.9,0,57.7c0.4-6.9,3-12.8,7.1-18.2c2.8-3.7,6.7-5.7,11.2-6.9c1.3-0.3,2.8-1.1,3.6-2.1  c2.9-4.1,14.4-5.9,18.9-3c2.4,1.5,4.2,3.5,4.9,6.2c0.9,3.6,1.3,7.3,1.8,10.9c0.2,1,0,2.1,0.1,3.1c0.2,2.7,1.8,3.9,4.3,2.7  c1.9-0.9,3.5-2.5,5-3.7c-0.9-1.1-1.6-1.9-2.2-2.7c-1.8-2.4-0.9-4.9,2.1-5.4c1.4-0.2,3,0,4.5,0.3c2.7,0.5,3,0.5,3.7-2.1  c2.8-9.7,8.4-17.9,13.8-26.2c3.2-5,8.5-8,14-10.2c4.2-1.7,8.8,2,9.7,7.1c0.4,2.7-0.2,5.1-1.5,7.3c-4.6,8-10.8,14.6-18.1,20.1  c-0.7,0.5-1.8,0.6-2.7,1c-1.6,0.7-3.2,1.2-4.6,2.2c-0.7,0.5-0.7,1.8-1.1,2.7c0.8,0.3,1.6,0.8,2.4,0.7c2.2-0.2,4.3-0.7,6.5-1  c0.9-0.1,2.3-0.1,2.8,0.4c0.5,0.6,0.3,2,0,2.8c-0.3,0.9-1,2-1.8,2.4c-2.6,1.3-5.3,2.5-8.2,3.4c-1.7,0.5-2.1,1-1.9,2.6  c1.3,8,1.2,16.1,0.4,24.1c-0.6,5.6-1.5,11-3.7,16.2c-1.2,3-3.1,5.3-5.9,7c-1.4,0.8-2.4,0.8-3.7-0.3c-4.1-3.7-6.5-8.2-7-13.6  c-1-10,0.6-19.6,3.6-29.1c0.2-0.5,0.3-1,0.5-1.6C58.5,54.8,58.4,54.7,58.3,54.4z M40.3,55.4C33.9,49.8,28,44.5,21.9,39.2  c-1.2,0.9-2.6,1.7-3.5,2.8c-6.2,7.3-8.7,15.7-7,25.1c1.1,6.3,7.9,9.8,13.7,7.1c2.3-1.1,4.7-2.8,6.2-4.9  C34.7,64.8,37.5,59.8,40.3,55.4z M77,33.3c0.2,0.2,0.4,0.3,0.6,0.5c1-0.6,2-1.1,2.9-1.8c2.3-1.9,4.6-4,6.9-5.9  c4.5-3.7,8.3-8.2,10.9-13.4c1-1.9,1-4.3,1.2-6.5c0-0.7-1.2-2-1.9-2c-1.5,0-3.5,0.1-4.4,1.1c-3,3.4-6,6.9-8.2,10.8  c-2.7,4.6-4.7,9.6-7,14.5C77.5,31.3,77.3,32.3,77,33.3z M69.2,55.8c-5.3,12.6-6.3,25.3-3.7,38.5C71.3,89.8,73.9,63.3,69.2,55.8z   M31.8,34c3.6,4.2,7,8.3,10.8,12.7C43.2,37.4,38.5,32,31.8,34z" data-id-fill="fill__fef2df" data-color-fill="#fef2df"></path>
</svg>