<svg xmlns="http://www.w3.org/2000/svg" xmlns:xlink="http://www.w3.org/1999/xlink" version="1.1" id="boe_canvas__item_1697210435237__svg" x="0px" y="0px" viewBox="0 0 470.6 267.1" enable-background="new 0 0 470.6 267.1" xml:space="preserve" preserveAspectRatio="none" style="width: 71.4219px; height: 41.0625px;">
<g xmlns="http://www.w3.org/2000/svg">
<path fill="#FEF2DF" d="M144.8,115c-0.6-2.6-1.5-5.1-1.6-7.7c-0.1-3.5,0.4-6.9,0.5-10.4c0.2-4.1-1.7-6.8-5.3-8.7   c-10.4-5.3-21-5.1-31.6-0.9c-1.2,0.5-2.4,2.7-2.3,4.1c0.6,19.8,1.9,39.5,2,59.3c0.1,22.3-0.7,44.7-1.2,67   c-0.3,12.1-3.2,23.6-8.4,34.6c-8.6,18.2-29.2,20-40.8,3.4c-3.6-5.2-7.2-10.5-10.6-15.8c-0.9-1.4-2-3-2-4.5c0-1.9,0.7-4.5,2-5.3   c1.3-0.7,4.3-0.2,5.5,1c4.9,4.9,9.4,10.2,14.2,15.2c2,2.1,4.5,3.7,6.8,5.5c1.8-2.7,4.3-5.1,5.3-8c4.8-14.9,4.1-30.4,4-45.8   c-0.2-30.5,0.2-61,0.3-91.5c0-10.8-0.7-11.4-11-8.2c-4.8,1.5-9.4,3.3-14,5.3c-14.9,6.6-28.6,4.6-40.2-6.8   c-5.7-5.6-10.5-12.4-15.2-19c-2.9-4.1-1.3-6.7,3.7-7.6c5-0.9,9.6,0,13.9,2.8c4.3,2.8,8.6,5.7,12.8,8.6c4.2,2.8,8.9,4.1,13.8,3   c12.5-2.8,25.1-5.5,37.5-8.7c13.2-3.4,26.1-7.8,40.1-6.6c11.6,0.9,22.2,5,31.9,10.9c6.5,4,10.1,10.6,12.7,17.7   c0.5,1.3,1.7,3.1,2.9,3.3c8.9,2.1,14.7,8.1,19.5,15.3c2.4,3.6,4.7,7.3,7,11c0.5,0,1.1,0,1.6,0.1c0.9-4.6,2-9.1,2.5-13.7   c0.4-3.3-0.2-6.9,4-8.2c5-1.5,10.1-2.5,14.5,1.6c3.1,2.9,3.7,6.2,2.5,10.3c-8,26-12.8,52.5-11.7,79.9c0.2,3.9,0.5,7.9,1.1,11.7   c0.3,1.9,1,3.8,2.1,5.4c3.5,5.4,6.9,5.6,10.4,0.2c3-4.7,5.3-9.8,7.9-14.8c7.1-13.9,12.9-28.3,15.2-43.9c0.4-3,2.7-5.8,4-8.3   c-2.5-8.1-5.9-16.2-7.3-24.7c-2.5-15.2,5.1-28.5,18.9-35.5c1.2-0.6,2.4-1.2,4-2c-2.6-3.6-0.8-6.6,0.7-10   c5.7-13,15.9-17.4,29.1-15.6c8,1.1,15.9,3.3,23.7,5.5c5.1,1.4,6.3,1.2,6.9-4.1c2.1-18.1,4.1-36.3,6.2-54.4c0.5-4.7,2.9-7,7.8-7   c9.8-0.1,14.6,5.3,13.7,15.9c-1.3,15.7-2.9,31.3-4.2,46.9c-0.2,2,1,4,1.5,6c1.9-0.5,4-0.7,5.7-1.7c3.7-2.1,7.2-4.4,10.6-6.9   c2.5-1.8,4.2-1.1,5.7,1.1c2.1,2.9,2.8,6.2,0.7,9.3c-5,7.6-11,13.8-21.1,13.4c-4.2-0.2-5.6,1.8-5.8,5.7c-1.5,29.2-1.6,58.3,1.3,87.4   c0.4,3.7,1.7,7.4,3.2,10.8c1.9,4.3,3.8,4.5,6.5,0.8c2.9-4,5.9-8.2,7.6-12.8c4-10.6,6.7-21.2,5.4-33.1c-2.7-25.3,3.4-49,16.9-70.5   c4.2-6.7,10-12.6,15.9-17.9c7.8-6.9,17.7-7.5,27.5-5.7c15.5,2.7,25.1,12.6,24.8,28.3c-0.4,21.9-23.2,47-51,36.4   c-3-1.1-5.9-2.4-9.6-3.9c-0.7,2.3-1.8,4.4-1.8,6.4c0.1,10.3,0,20.5,0.8,30.7c0.3,4.1,2.1,8.2,4.1,11.9c5,9.1,15.6,10.8,24.4,3.2   c4.4-3.9,8-9.1,10.9-14.3c10.1-18.1,19.7-36.5,29.7-54.6c0.9-1.6,3.1-2.5,4.7-3.7c0.5,2,1.7,4.3,1.3,6.1c-0.9,3.6-2.7,7-4.1,10.5   c-4.2,10.5-8.2,21.1-12.7,31.6c-1.9,4.4-4.7,8.3-7.2,12.4c-1.5,2.4-3.7,4.6-4.6,7.2c-6.3,18.1-32,29.5-52.9,16.8   c-1.6-0.9-3.1-1.9-4.9-3.1c-1.6,3.9-2.8,7.9-4.7,11.6c-2.5,5-5.5,9.7-8.3,14.6c-4.9,8.3-12.6,10.4-21.5,9.1   c-9.9-1.4-18.5-10.1-20.6-19.9c-6.4-30-5.5-60.4-4.8-90.8c0.3-12.5,0.5-12.6-11.4-16.3c-4.5-1.4-9-2.6-13.6-3.4   c-5.8-1-9.7,2-12.5,6.9c10.9,2.9,19.3,9.5,27.1,16.7c3.3,3.1,5.3,7.9,7.1,12.3c1.4,3.4,0.4,6.7-3.7,7.9c-3.8,1.1-6.8,0.1-8.4-4   c-3.1-8.1-8.4-14.3-16-18.4c-10.4-5.7-26.7,1.4-29.6,12.9c-2.1,8.4-1.4,16.6,3.2,24.1c3.4,5.5,7.5,10.6,11.2,15.9   c1.9,2.6,4,2.8,6.6,1.1c5.8-3.6,11.6-7.1,17.4-10.7c3.7-2.3,8.7-1.6,10.8,1.9c2.4,4,0.2,6.6-3.1,8.6c-4.7,2.9-9.5,5.9-14.4,8.6   c-3.7,2.1-4,4.5-1.6,7.7c2.8,3.9,5.7,7.8,8.4,11.8c7.3,10.7,10.4,22.8,8,35.4c-3.3,17.4-10.7,21.6-26.8,22.9   c-13.6,1.1-25.4-3.4-35.5-12.2c-6.2-5.4-9-12.4-7.3-20.8c0.2-0.8,0.2-1.7-0.1-2.6c-3.1,7.3-5.9,14.8-9.4,22   c-6.2,12.6-24.2,13.4-31.4,1.3c-2.9-4.8-4.1-10.6-6-16c-0.8-2.4-1.1-4.9-2.8-7.5c-1.9,3.8-3.9,7.6-5.8,11.5   c-3.1,6.4-5.7,13.1-9.1,19.3c-2.9,5.4-6,11.3-13.5,11.3c-9.5,0-18.2-2.3-23.3-11.2c-7.7-13.4-11.2-28-11.7-43.3   c-0.8-22,3.3-43,12.3-63.1c0.9-1.9,2-3.8,3.1-5.5c1.1-1.8,2.4-3.5,3.6-5.2C145.6,115.2,145.2,115.1,144.8,115z M189.9,140.6   c-4.4-8.2-8.3-18-17.8-23.8c-3.5-2.1-7.7-3.1-10.6-0.3c-2.6,2.5-4.7,6.4-5.3,10c-2.9,15.1-5.3,30.3-7.6,45.6   c-2.4,15.6,0.6,30.7,5.6,45.4c0.9,2.5,3.7,5.8,5.9,5.9c2.1,0.1,4.9-2.9,6.6-5.1c3-4,4.8-8.8,7.9-12.7c14.3-17.8,14.1-39.3,16-60.2   C190.7,144.2,190.3,143,189.9,140.6z M442.9,69c-3.2-11.7-10.8-15.6-23.9-12.3c-4.1,1-6.9,3.3-8.6,7.3c-1.7,4.2-4.2,8.1-5.9,12.2   c-2.1,5-3.8,10.1-5.6,15.3c-1.4,4,0.2,7.1,3.5,9.5c6.3,4.7,14,5.9,20.7,3.3C442.6,96.7,447,87.3,442.9,69z M286.6,197.1   c-3.3-6.7-6.1-12.5-8.9-18.3c-1.5-3-3.7-3-5.7-0.9c-6.7,6.9-13.7,13.7-17.4,22.9c-5.7,14.3,3.2,27.1,18.4,26.6c0.8,0,1.5,0,2.3-0.1   c9.2-0.1,11.8-5.6,12.3-12.2C288,209,286.9,202.7,286.6,197.1z M241.8,196.6c0.3,0.2,0.7,0.4,1,0.7c4.9-11.6,12.7-21.1,21.2-30   c0.9-0.9,1-3.6,0.3-4.8c-2.2-3.6-5-6.9-8.2-11.2C251.1,167.1,246.5,181.8,241.8,196.6z" data-id-fill="fill__fef2df" data-color-fill="#fef2df"></path>
</g>
</svg>